<svg viewBox="0 0 103 170" fill="none" xmlns="http://www.w3.org/2000/svg">
<path d="M98.3245 138.607H63.9167C61.3557 138.607 59.2399 140.611 59.2399 143.172C59.2399 145.843 61.3557 147.958 63.9167 147.958H93.6477V160.649H21.8253L75.2745 104.764C91.6431 87.6198 100.106 70.3646 100.106 52.8862C100.106 19.0434 72.7134 0.785767 47.3248 0.785767C28.9516 0.785767 12.8053 7.01991 1.00227 21.9374C0.334091 22.8278 0 23.7187 0 24.7207C0 25.9456 0.556526 27.2812 1.5588 28.1716L18.9297 42.3099C19.7091 42.9779 20.8226 43.3119 21.8249 43.3119C23.1612 43.3119 24.3859 42.7556 25.2766 41.6423C30.1758 35.7422 36.8572 32.1797 46.2108 32.1797C56.121 32.1797 64.1383 36.7442 66.5881 46.8744C67.0334 48.9897 67.3675 51.2161 67.3675 54.1106C67.3675 65.9113 57.3457 76.1531 49.2172 84.7249L5.78987 130.48C4.89926 131.37 4.45351 132.595 4.45351 133.708C4.45351 136.492 6.68049 138.384 9.13034 138.384C10.355 138.384 11.5802 137.939 12.582 136.937L57.6794 89.4006C66.2536 80.272 76.7207 68.5825 76.7207 54.1102C76.7207 50.4365 76.3866 47.4308 75.7185 44.7587C72.378 30.9544 61.3543 22.8274 46.2104 22.8274C36.3002 22.8274 27.9488 26.0559 21.3787 32.1788L11.4685 24.1635C20.3769 14.812 32.1804 10.1363 47.3239 10.1363C67.1447 10.1363 90.7512 24.0523 90.7512 52.8853C90.7512 67.3577 83.5133 82.6092 68.3694 98.418L5.34413 164.323C4.78716 164.991 4.45307 165.77 4.45307 166.549C4.45307 168.33 5.78943 170 7.79397 170H98.3232C100.884 170 103 167.885 103 165.324V143.282C103 140.721 100.884 138.606 98.3232 138.606L98.3245 138.607Z" fill="#FFED00"/>
</svg>
