<svg width="93" height="92" viewBox="0 0 93 92" fill="none" xmlns="http://www.w3.org/2000/svg">
<path d="M82.8756 11.8796L82.8744 11.7192C82.8546 11.6657 82.8113 11.5824 82.7345 11.4506L82.346 10.7952C81.163 8.8242 79.969 6.83205 78.8157 4.81752C78.6585 4.54395 78.5373 4.33255 78.4309 4.17462C78.3294 4.02539 78.2415 3.92467 78.15 3.86498C78.0225 3.78166 77.827 3.71948 77.5226 3.65979C77.2058 3.59762 76.7789 3.53668 76.1949 3.45336C71.2997 2.75823 66.365 2.2633 61.4166 1.94122C56.467 1.61915 51.5075 1.46868 46.5666 1.46619C41.4524 1.46371 36.441 1.63034 31.4419 1.96858C26.4428 2.30682 21.4561 2.81792 16.3902 3.50435C15.9633 3.56155 15.6415 3.60383 15.3978 3.64984C15.1627 3.69337 15.0043 3.74062 14.8991 3.80404C14.805 3.86124 14.711 3.9657 14.5972 4.13234C14.4784 4.30643 14.3348 4.55016 14.1443 4.87473L10.343 11.259C10.0287 11.8124 10.0312 12.137 10.0324 12.5623C10.0386 14.0956 10.0237 14.1528 10.0138 14.195C10.0076 14.2174 10.0039 14.2373 10.0138 15.0431C10.1821 28.2793 10.1264 41.758 10.072 55.187L10.0361 64.8257C10.0262 68.0253 10.02 71.3965 10.02 75.0998C10.02 75.7464 10.0015 76.3383 9.98537 76.8071V76.8183C9.94207 78.1688 9.93835 78.2596 10.8652 79.8936C11.8761 81.6768 11.8625 82.0996 11.8056 83.8232C11.7771 84.6837 11.7734 85.538 11.7697 86.3923L11.7672 86.8761C11.7549 89.0087 11.7487 90.0172 12.0692 90.3132C12.2065 90.44 12.4824 90.4997 12.918 90.5246C13.3746 90.5507 13.9958 90.537 14.8088 90.5196L15.9162 90.4985C16.3171 90.4935 16.7539 90.4898 17.2266 90.4923C18.0322 90.496 18.4789 90.4089 18.7165 90.2038C18.9454 90.006 18.9912 89.6752 18.9936 89.1928L18.9602 86.5291C18.9293 84.8429 18.8835 82.3235 19.0864 81.5462L19.2287 81.0016H19.3005C31.9146 81.0016 43.9111 80.9891 55.9238 80.978L73.7869 80.9618L73.9193 81.5276C74.1 82.3036 74.0542 84.6999 74.0232 86.3413L74.0072 87.1422C73.9923 87.8323 73.9775 88.53 73.9787 89.2089C73.9799 89.6578 74.0245 89.9837 74.2398 90.1876C74.46 90.3965 74.8709 90.496 75.6034 90.4947C76.4956 90.4923 77.259 90.5097 77.9173 90.5221H77.9248C79.7883 90.5619 80.7139 90.5805 80.9935 90.2038C81.3388 89.7412 81.3103 88.4827 81.2571 85.9906L81.2546 85.8899C81.236 84.9971 81.2125 83.9537 81.2064 82.7276C81.2026 82.0785 81.2521 81.6681 81.3647 81.3174C81.4773 80.9655 81.6481 80.682 81.8894 80.2841L82.0144 80.0776C83.0117 78.4063 83.0092 78.2782 82.982 76.6965L82.9659 75.4119L82.961 69.1818L82.9424 62.9305L82.9709 14.4649C83.0142 13.9538 82.9734 13.4974 82.9325 13.0398C82.8991 12.668 82.8657 12.2924 82.8756 11.8821V11.8796ZM87.8537 16.1088C87.8351 15.9111 87.7398 15.7718 87.3859 15.7022C86.9937 15.6239 85.5905 15.6276 84.4261 15.7209L84.3988 62.928L84.4174 69.1793L84.4273 75.4094C84.4273 76.0623 84.4335 76.3968 84.4384 76.6691V76.6728C84.4718 78.6401 84.4743 78.7993 83.2641 80.8262L83.1342 81.0414C82.7989 81.5985 82.659 81.8323 82.6628 82.7177C82.669 83.9376 82.6912 85.0008 82.7123 85.9086L82.7135 85.9521C82.7754 88.7824 82.8051 90.21 82.1591 91.078C81.7929 91.5692 81.3103 91.8092 80.6173 91.9174C79.9417 92.0243 79.0657 92.0056 77.8951 91.9808L77.8505 91.9795C77.2034 91.9659 76.4535 91.9509 75.6046 91.9522C74.2571 91.9559 73.4912 91.7395 73.0568 91.2831C72.62 90.8243 72.5272 90.1391 72.526 89.2039C72.5235 88.5523 72.5384 87.8908 72.5532 87.2329L72.5718 86.3065C72.5953 85.0667 72.6275 83.378 72.5668 82.4205L20.429 82.459C20.3969 82.9315 20.387 83.5944 20.3882 84.2982C20.3894 85.0468 20.4055 85.8452 20.4166 86.5067L20.4501 89.1915C20.4451 90.1926 20.356 90.8827 19.8994 91.3292C19.4478 91.7719 18.6459 91.9571 17.2217 91.9509C16.306 91.9472 15.5153 91.9646 14.8446 91.9783H14.8372C13.851 91.9994 13.0962 92.0156 12.501 91.9472C11.8897 91.8763 11.4418 91.7171 11.0829 91.3864C10.6845 91.0183 10.4853 90.5233 10.3912 89.7921C10.2984 89.0784 10.3046 88.1357 10.312 86.8562L10.3195 85.3179C10.3244 84.8043 10.3343 84.2907 10.3516 83.7772C10.3752 83.077 10.3888 82.6393 10.2972 82.2066C10.2056 81.7726 10.0052 81.3299 9.59807 80.6124C8.46956 78.6239 8.47327 78.5058 8.53019 76.7686L8.53143 76.73C8.5438 76.3483 8.55865 75.862 8.55865 75.0973C8.55865 69.2452 8.58711 62.2801 8.61557 55.2902L8.61681 55.1074C8.67002 41.9396 8.72323 28.7258 8.56608 15.7358L7.00572 15.7122C6.72607 15.7097 6.44394 15.7097 6.18656 15.7146C5.94774 15.7196 5.72625 15.7283 5.54559 15.742C5.3575 15.7557 5.2548 15.8253 5.20035 15.9347C5.14714 16.0417 5.12982 16.1909 5.12487 16.3675C5.71511 16.37 6.23605 16.3973 6.64068 16.6237C7.07501 16.8674 7.3658 17.3312 7.45242 18.2166C7.82488 21.9572 7.70361 25.8433 7.58235 29.7094C7.50686 32.1393 7.43138 34.5642 7.4784 36.9368C7.51181 38.4925 7.52914 39.2958 7.02923 39.7298C6.53798 40.1576 5.57281 40.1837 3.64989 40.1837L3.12771 40.1974C2.52262 40.2185 1.90268 40.2397 1.37184 40.0917C0.826146 39.94 0.379445 39.6129 0.150526 38.9377C-0.0536445 38.3346 0.00080103 28.1251 0.025549 23.5477C0.0280238 22.8451 0.0205994 22.1388 0.013175 21.4337C0.00451323 20.5744 -0.00414856 19.7139 0.00327583 18.8595C0.0144124 17.7976 0.108455 17.1833 0.468538 16.8251C0.818722 16.4769 1.40154 16.3862 2.38403 16.3737C2.46941 14.7434 2.87404 13.914 3.56204 13.4875C4.25745 13.0572 5.2251 13.051 6.44146 13.0435L7.15792 13.0348C7.37941 13.0298 8.3285 13.0211 8.57226 13.005L8.57845 12.566C8.57598 11.9107 8.5735 11.4132 9.07836 10.5278L9.08578 10.5167C9.89504 9.45965 10.9171 7.62916 11.8217 6.00759C12.2065 5.31991 12.5703 4.66706 12.8895 4.12487L12.8933 4.11866C13.3907 3.27181 13.6357 2.85274 14.1529 2.5431C14.3918 2.40009 14.6467 2.30931 14.9733 2.23843C15.2926 2.17003 15.6836 2.11656 16.2033 2.04817C21.2927 1.35179 26.3166 0.836963 31.3491 0.498721C36.3816 0.160478 41.4302 -0.00366844 46.5691 6.21683e-05C51.5459 0.00379278 56.5388 0.153017 61.5169 0.476337C66.4961 0.799657 71.4655 1.29832 76.3953 1.99843C77.0771 2.09418 77.5771 2.1663 77.9743 2.2546C78.3777 2.34537 78.6734 2.4548 78.9382 2.62766C79.1807 2.78434 79.3614 2.96714 79.5359 3.20341C79.7054 3.43471 79.8687 3.71824 80.0791 4.08508C81.1296 5.92054 82.2408 7.77466 83.3433 9.61136L83.6317 10.0926C83.816 10.4022 83.9509 10.6248 84.0474 10.8014C84.1464 10.9805 84.2095 11.1136 84.2541 11.2416C84.3407 11.5028 84.3382 11.6508 84.332 11.9044V11.9144C84.3271 12.1096 84.3209 12.4068 84.3927 13.005C84.6414 13.0211 85.6028 13.0311 85.8293 13.0361L86.5531 13.0448C87.7695 13.0522 88.7372 13.0584 89.4326 13.4875C90.1206 13.9128 90.5264 14.7385 90.6131 16.3613C91.2602 16.3538 91.7923 16.3774 92.192 16.6125C92.6176 16.8624 92.8837 17.3399 92.9592 18.2465V18.2539C92.9592 20.1864 92.9505 22.1251 92.9418 24.0637C92.922 28.6375 92.901 33.2212 93 37.7762C92.9988 38.9178 92.8899 39.5172 92.3368 39.8417C91.8022 40.1551 90.863 40.1837 89.1938 40.1837C88.9574 40.1862 88.7693 40.1949 88.5887 40.2024L88.5726 40.2036C87.3352 40.2571 86.1782 40.3043 85.6857 38.9613C85.4284 38.2612 85.4939 28.1674 85.5236 23.5775L85.5125 22.5752C85.4939 21.3342 85.4209 18.3286 85.7798 17.2964C85.9765 16.9234 86.229 16.7045 86.5866 16.5739C86.9145 16.4545 87.3278 16.4098 87.8697 16.3862L87.8561 16.1064L87.8537 16.1088ZM87.9601 17.8473C87.7497 17.856 87.5765 17.866 87.4379 17.8796C87.2102 17.9033 87.0914 17.9331 87.0667 17.9804C86.933 18.234 86.9578 21.0855 86.9702 22.6598L86.9763 23.5962C86.9466 28.1052 86.8823 37.9951 87.0518 38.4577C87.1768 38.7997 87.8227 38.7711 88.512 38.7412L88.533 38.74C88.7743 38.7288 89.0168 38.7188 89.19 38.7188C90.2678 38.7201 90.8717 38.7089 91.1934 38.5796C91.4817 38.4639 91.5386 38.2289 91.5386 37.7775C91.452 33.1975 91.4681 28.5977 91.4854 24.0041C91.4916 22.1723 91.499 20.3394 91.499 18.3634C91.4755 18.0861 91.3642 17.9505 91.1823 17.8871C90.9793 17.8162 90.6786 17.8212 90.3124 17.8287L87.9576 17.8448L87.9601 17.8473ZM3.08687 17.8386C2.36176 17.8324 1.94475 17.8436 1.72202 17.9804C1.51414 18.1072 1.46217 18.3721 1.45722 18.8732C1.45103 19.6828 1.45969 20.4973 1.46712 21.3118C1.47454 22.0592 1.48321 22.8078 1.47826 23.5551V23.5651C1.45474 28.0692 1.4003 38.0921 1.52899 38.4701C1.57972 38.6193 1.77771 38.6915 2.04375 38.725C2.33701 38.7624 2.71071 38.7487 3.0745 38.7362L3.64247 38.7201C4.87739 38.7213 5.49362 38.7076 5.77822 38.4888C6.04921 38.2799 6.03931 37.8322 6.02075 36.9667C5.93289 32.7349 5.95517 28.4584 5.97744 24.1943C5.98734 22.2357 5.99724 20.2797 5.99724 18.3335C5.9366 17.8299 5.47877 17.8299 4.88358 17.8299C4.57918 17.8374 4.2624 17.856 3.95924 17.851C3.8949 17.8486 3.73156 17.8436 3.0844 17.8374L3.08687 17.8386ZM34.5663 10.105C33.7645 10.105 33.2955 10.0329 33.0183 9.79167C32.7362 9.54545 32.6669 9.14752 32.6669 8.49466L32.6842 7.9587C32.6929 7.73611 32.7028 7.46875 32.7028 7.06087C32.7028 6.6791 32.6929 6.42542 32.6842 6.21402L32.6669 5.69422C32.6669 5.05753 32.7362 4.6596 33.0183 4.41213C33.2955 4.17089 33.7645 4.0913 34.5675 4.0913H58.4196C59.2215 4.0913 59.6905 4.16218 59.9689 4.40094C60.2522 4.64592 60.3215 5.04509 60.3215 5.70292L60.3042 6.26003C60.2955 6.48511 60.2856 6.7562 60.2856 7.16781L60.2943 7.71124C60.3042 8.0557 60.3141 8.40886 60.2943 8.72099C60.2745 9.02068 60.2287 9.25571 60.1334 9.44721C60.0357 9.64494 59.8872 9.79416 59.6682 9.91354C59.5061 10.0018 59.3341 10.0491 59.1299 10.0752C58.9319 10.1001 58.703 10.1038 58.4221 10.1038H34.57L34.5663 10.105ZM34.127 8.49466C34.127 8.55187 34.1357 8.58544 34.1666 8.59912C34.2273 8.62648 34.3498 8.63518 34.5663 8.63518L58.8354 8.6327L58.8366 8.62772C58.854 8.3529 58.8441 8.04077 58.8366 7.73859L58.823 7.16905C58.823 6.84822 58.8366 6.49133 58.8478 6.19039V6.18293C58.854 6.03122 58.8589 5.89816 58.8589 5.70168C58.8589 5.64323 58.8503 5.60966 58.8193 5.59474C58.7587 5.56738 58.635 5.55867 58.4184 5.55867H34.5663C34.3498 5.55867 34.2273 5.56738 34.1654 5.59474C34.1344 5.60841 34.127 5.6395 34.127 5.69049C34.1307 5.99142 34.1431 6.29112 34.1543 6.59205L34.1629 7.06087L34.1543 7.55206L34.1369 8.04699C34.132 8.18254 34.127 8.30689 34.127 8.49342V8.49466ZM32.9936 73.8537C32.9936 72.4672 32.996 71.772 33.3561 71.4052C33.7174 71.0371 34.398 71.0359 35.7542 71.0359C38.2624 71.0359 40.5714 71.0284 42.889 71.021C47.7322 71.006 52.5804 70.9911 57.4112 71.0384C58.656 71.0359 59.292 71.0359 59.636 71.4052C59.9763 71.772 59.9899 72.4659 59.9899 73.8525C59.9899 74.2106 59.9973 74.5501 60.0048 74.8859L60.0109 75.1905C60.0109 75.9105 59.9528 76.4913 59.6855 76.8992C59.4133 77.3157 58.9356 77.5445 58.1066 77.5445H34.8732C34.0441 77.5445 33.5665 77.3157 33.2955 76.9004C33.0295 76.4925 32.9701 75.9118 32.9701 75.1955L32.9762 74.8896C32.9837 74.5526 32.9911 74.2131 32.9911 73.8537H32.9936ZM35.7542 72.5045C34.4574 72.5045 34.4549 72.5045 34.4549 73.8537L34.4327 75.1955C34.4327 75.4865 34.4488 75.719 34.5168 75.872C34.5762 76.0038 34.6851 76.0759 34.8757 76.0759H58.1091C58.3009 76.0759 58.4097 76.0026 58.4691 75.8708C58.5372 75.7178 58.5533 75.484 58.5533 75.193L58.5322 73.855C58.5322 73.1524 58.5261 72.8029 58.3937 72.6487C58.2674 72.5008 57.9779 72.502 57.4124 72.502C52.3502 72.5095 47.2868 72.5082 42.2246 72.507L35.7554 72.5057L35.7542 72.5045ZM67.1198 60.1823C67.8672 60.0057 68.9573 60.0405 69.9794 60.0728C70.4657 60.0878 70.9384 60.1027 71.3468 60.0952H71.3529C72.719 60.0567 73.9441 60.0219 74.3066 61.5639C74.3747 61.8561 74.4019 62.361 74.4093 62.9243C74.4155 63.4826 74.4031 64.1007 74.3932 64.6205L74.3809 65.5668C74.3846 67.3276 74.387 68.1285 73.5469 68.6408C73.2523 68.8211 72.8947 68.9082 72.4233 68.9467C71.9642 68.984 71.3851 68.9766 70.6402 68.9666L70.5944 68.9654C70.1613 68.9604 69.6639 68.9542 69.1058 68.9542H68.9833C68.0973 68.9554 67.4527 68.9567 66.9639 68.8547C66.4566 68.7503 66.1163 68.5376 65.8589 68.1136C65.6795 67.8188 65.5928 67.4632 65.5545 66.9931C65.5174 66.5355 65.5248 65.9622 65.5359 65.2223L65.5396 64.9873C65.5483 64.3059 65.5582 63.6244 65.5335 62.9429C65.5075 62.2403 65.4877 61.6571 65.6807 61.1933C65.8774 60.7182 66.2883 60.3788 67.121 60.1835L67.1198 60.1823ZM67.4514 61.6111C67.2015 61.6696 67.079 61.8051 67.0245 62.0028C66.9639 62.2217 66.975 62.5251 66.9874 62.8907C67.0134 63.6393 67.0023 64.3867 66.9911 65.134L66.9899 65.2385C66.9725 66.4534 66.9626 67.1212 67.1025 67.35C67.1421 67.4147 67.2918 67.4495 67.5764 67.4706C67.8932 67.493 68.3522 67.493 68.9833 67.4918C69.5414 67.4893 70.0995 67.4968 70.6575 67.503C71.2812 67.5117 71.7638 67.5179 72.1214 67.503C72.4641 67.4893 72.6844 67.4557 72.7945 67.3886C72.9319 67.3053 72.9294 66.7618 72.9269 65.568C72.9257 65.2547 72.9319 64.945 72.938 64.6366L72.9393 64.5695C72.9578 63.6095 72.9851 62.3112 72.8861 61.8946C72.844 61.7131 72.6683 61.6235 72.4196 61.5813C72.1412 61.534 71.7737 61.5452 71.3876 61.5551C71.0065 61.5626 70.5462 61.5477 70.066 61.5315C69.1009 61.5004 68.054 61.4656 67.4527 61.6086L67.4514 61.6111ZM20.0368 60.2382C20.3907 60.1213 20.8596 60.0741 21.362 60.0604C21.8607 60.0467 22.3915 60.0666 22.8754 60.084L22.9459 60.0865C23.2354 60.0965 23.5052 60.1064 23.7217 60.1064L24.281 60.094C24.922 60.0741 25.5618 60.053 26.1013 60.2059C26.6556 60.3614 27.0986 60.6959 27.3151 61.3835C27.4834 61.9096 27.4574 63.5709 27.4401 64.6329L27.4327 65.2932C27.4327 65.4735 27.4401 65.6626 27.4463 65.8478L27.4475 65.8702C27.4686 66.5082 27.4896 67.125 27.3387 67.6448C27.1827 68.1795 26.8499 68.6048 26.1656 68.8336C25.6162 69.0139 24.0076 68.984 22.9694 68.9654C22.6403 68.9828 22.2455 68.9306 21.9263 68.9579C20.2669 68.9617 19.4849 68.9629 18.9639 68.1844C18.5692 67.595 18.5791 66.7506 18.5952 65.1651L18.6039 63.7388C18.6039 63.4938 18.5927 63.2526 18.5841 63.0312L18.5816 62.9939C18.5234 61.5887 18.49 60.7493 20.038 60.2407L20.0368 60.2382ZM22.8222 61.5464H22.8147C21.9646 61.5154 20.9512 61.4793 20.4872 61.6322C20.2397 61.7131 20.1197 61.8523 20.0665 62.0513C20.0083 62.2689 20.0207 62.5661 20.0355 62.938L20.038 62.9889C20.0467 63.209 20.0566 63.4515 20.0566 63.7363L20.0479 65.1726C20.0417 65.8255 20.0355 66.3254 20.0516 66.6934C20.0665 67.0441 20.1011 67.2642 20.1704 67.3674C20.257 67.498 20.7916 67.4955 21.925 67.493L22.3272 67.4918L23.0053 67.5017C23.9482 67.5179 25.3959 67.544 25.7028 67.4421C26.0369 67.3289 26.0146 66.6474 25.9899 65.9187L25.9887 65.869C25.9825 65.6862 25.9763 65.4972 25.9763 65.292L25.9837 64.6192C25.9911 64.1355 26.001 63.5112 25.9973 62.969C25.9924 62.4343 25.9738 61.9792 25.9243 61.8237C25.8253 61.5079 25.0767 61.5315 24.3256 61.5551L23.7217 61.5701C23.4569 61.5676 23.1699 61.5576 22.8655 61.5464L22.8197 61.5452L22.8222 61.5464ZM70.9632 13.0448C71.8578 13.0448 72.6275 13.097 73.3043 13.2052C73.9849 13.3146 74.5751 13.4812 75.1109 13.7101C75.6541 13.9426 76.1367 14.2361 76.5921 14.5942C77.0474 14.9524 77.4768 15.3739 77.9186 15.8614C78.8479 16.8923 79.3107 17.9182 79.5383 19.0548C79.7648 20.1852 79.7574 21.42 79.7487 22.8799V50.5038C79.7487 51.6628 79.7091 52.5482 79.5656 53.2396C79.4183 53.9422 79.1634 54.4434 78.734 54.8189C78.3121 55.1882 77.78 55.3847 77.0673 55.4867C76.3656 55.5874 75.4908 55.5986 74.371 55.5986H18.3032C17.1672 55.5974 16.2961 55.5625 15.6168 55.4282C14.9226 55.2902 14.4239 55.0502 14.0453 54.6373C13.6703 54.2295 13.4674 53.7084 13.3585 53.0083C13.2509 52.3181 13.2348 51.4551 13.2348 50.3496L13.2373 22.8326C13.2335 21.328 13.2311 20.0795 13.4674 18.9503C13.7062 17.8137 14.1863 16.799 15.149 15.7694C15.6168 15.2695 16.0598 14.8491 16.5213 14.4985C16.9841 14.1478 17.4667 13.8667 18.0136 13.6466C18.5482 13.4315 19.1347 13.2798 19.8153 13.1828C20.4921 13.0858 21.2655 13.0423 22.175 13.0435C23.155 13.0435 24.0633 13.0361 24.9703 13.0286C26.7484 13.0149 28.5266 13.0012 30.3035 13.0373L40.6296 13.041C50.7403 13.0448 60.8536 13.0485 70.9656 13.0435L70.9632 13.0448ZM74.5405 15.0568C74.1 14.869 73.6038 14.731 73.0197 14.6402C72.4332 14.5494 71.7576 14.5059 70.9644 14.5059C60.7398 14.5121 50.5151 14.5084 40.2905 14.5034L30.2886 14.4997C28.529 14.4636 26.7695 14.4773 25.0111 14.491C24.067 14.4972 23.1204 14.5047 22.175 14.5047C21.3583 14.5047 20.6728 14.542 20.0813 14.6216C19.4923 14.7024 18.9949 14.828 18.5556 15.0033C18.1262 15.1762 17.7402 15.4038 17.3627 15.6947C16.9841 15.9857 16.6104 16.3426 16.2107 16.7704C14.6813 18.4057 14.6863 20.1578 14.6924 22.8289L14.6962 50.3471C14.6962 51.286 14.7061 52.0122 14.7654 52.5544C14.8224 53.0817 14.9288 53.4348 15.1193 53.6425C15.3062 53.8465 15.6329 53.9683 16.1377 54.038C16.6611 54.1113 17.3702 54.13 18.3044 54.13C31.5149 54.1238 44.7278 54.125 57.9383 54.1263L74.3722 54.1275C75.3349 54.1275 76.0835 54.1213 76.6428 54.0641C77.1898 54.0094 77.5585 53.9049 77.7763 53.7146C77.9866 53.5306 78.1141 53.206 78.1896 52.6974C78.2675 52.1727 78.2898 51.4551 78.2898 50.5013V23.7292L78.296 22.8737C78.3108 20.271 78.3207 18.479 76.842 16.8388C76.4659 16.4222 76.1058 16.0678 75.7346 15.7718C75.3633 15.4771 74.976 15.2384 74.543 15.0543L74.5405 15.0568Z" fill="#CCCCCC"/>
</svg>
