<svg width="20" height="16" viewBox="0 0 20 16" fill="none" xmlns="http://www.w3.org/2000/svg">
<path fill-rule="evenodd" clip-rule="evenodd" d="M1.7104 0.0153162C1.03309 0.100923 0.613405 0.386188 0.364199 0.798633C0.109022 1.2212 0.0259535 1.78325 0.0259535 2.4052C0.0259535 3.51754 0.0335546 4.55193 0.0411556 5.58797C0.0585294 7.95022 0.0759032 10.3262 0.0088512 12.657C-0.02101 13.6903 0.0110229 14.5381 0.321036 15.1177C0.622906 15.6819 1.20357 16 2.2783 16H17.7217C18.7964 16 19.3774 15.6822 19.679 15.1177C19.989 14.5378 20.021 13.69 19.9911 12.657C19.9241 10.3262 19.9415 7.9505 19.9588 5.58797C19.9664 4.55193 19.974 3.51754 19.974 2.4052C19.974 1.78325 19.891 1.2212 19.6358 0.798633C19.3869 0.386188 18.9672 0.100923 18.2899 0.0153162L15.9561 0H4.04391L1.7104 0.0153162ZM1.61104 14.4096L1.61077 14.0844L1.61647 4.15371C1.61484 4.11022 1.62163 4.06619 1.6371 4.02516C1.65203 3.9855 1.67565 3.94776 1.70714 3.91494C1.76903 3.85094 1.85129 3.81812 1.93381 3.81675C2.01607 3.81566 2.09913 3.84629 2.16266 3.90838C2.64804 4.38263 3.12989 4.864 3.6112 5.34455C4.20354 5.93614 4.79614 6.528 5.39391 7.10564C5.85079 7.54708 6.34295 8.02243 6.79739 8.47015C7.25643 8.92226 7.68454 9.35303 8.01437 9.70612C8.88034 10.6297 9.84486 11.4544 11.0811 10.5603C11.4128 10.3204 11.7104 10.0012 11.974 9.71843C12.7031 8.93949 13.4803 8.19091 14.2505 7.44862L14.6061 7.10564C15.2039 6.528 15.7965 5.93641 16.3888 5.34455C16.8701 4.86373 17.3517 4.38263 17.8373 3.90838C17.9009 3.84602 17.9839 3.81566 18.0662 3.81675C18.1487 3.81785 18.231 3.85067 18.2929 3.91494C18.3244 3.94776 18.348 3.9855 18.3629 4.02516C18.3784 4.06591 18.3854 4.10995 18.3835 4.15371L18.3887 14.0844L18.3868 14.4096H1.61104ZM9.67383 9.14626C9.06901 8.5079 8.43025 7.88458 7.79122 7.26099C7.24232 6.72547 6.69314 6.18913 6.16243 5.64103C5.94797 5.43617 5.74682 5.24089 5.55218 5.05026C5.35672 4.8588 5.16507 4.66927 4.97205 4.47836C4.77416 4.28335 4.57951 4.09436 4.3846 3.90482C3.89976 3.43412 3.41167 2.95986 2.95642 2.47576C2.89507 2.41121 2.83236 2.34503 2.77291 2.27747C2.71373 2.20991 2.6589 2.14263 2.61492 2.07617C2.57637 2.02147 2.55547 1.9561 2.55547 1.88882C2.55547 1.79966 2.59157 1.71843 2.64994 1.65962C2.70857 1.60055 2.7892 1.56417 2.8777 1.56417L10.0001 1.56554L17.1226 1.56472C17.2113 1.56417 17.2917 1.60082 17.3501 1.65935C17.4087 1.71843 17.4448 1.79966 17.4448 1.88882C17.4448 1.95474 17.4244 2.01928 17.3873 2.07344C17.3441 2.13908 17.2882 2.208 17.2271 2.27747C17.1676 2.34503 17.1052 2.41121 17.0436 2.47576C16.5881 2.95986 16.1 3.43385 15.6154 3.90482C15.4205 4.09436 15.2258 4.28308 15.0279 4.47836C14.8352 4.66927 14.6436 4.85853 14.4478 5.05026C14.2532 5.24089 14.052 5.43617 13.8376 5.64103C13.3071 6.18913 12.7577 6.72547 12.2088 7.26099C11.5697 7.88486 10.931 8.50817 10.3262 9.14626C10.1918 9.28848 9.80821 9.28848 9.67383 9.14626Z" />
</svg>
