<svg width="91" height="92" viewBox="0 0 91 92" fill="none" xmlns="http://www.w3.org/2000/svg">
<path d="M3.61417 69.0611C3.61417 68.1546 3.93708 67.3089 4.40779 66.5116C4.87423 65.7213 5.48632 64.9772 6.07216 64.2653L6.07913 64.2573C6.35117 63.9271 6.61892 63.6019 6.83045 63.3239L8.08408 61.6723C9.53692 59.7518 11.8027 56.7587 13.761 54.2178C15.7355 51.6559 17.4223 49.5231 17.7211 49.322L18.2069 48.9946C19.611 50.3365 23.2605 53.4689 24.121 54.6732C24.3599 55.0097 24.4975 55.4624 24.581 55.9463C24.6635 56.4227 24.6956 56.9324 24.724 57.3926L24.7476 57.755L24.7765 58.0797C24.8386 58.6319 24.9034 59.1598 24.9709 59.6695C25.0373 60.1744 25.1085 60.6781 25.183 61.1841L25.4143 62.69L25.6521 64.161C25.9118 65.7508 26.1838 66.7616 26.4757 67.8482L26.4885 67.896C26.6535 68.5079 26.8259 69.1498 27.0048 69.9203L27.2131 70.8208H9.10905L7.45004 70.845C6.55305 70.8456 5.60788 70.7896 4.88226 70.5472C4.13147 70.2961 3.61417 69.8472 3.61417 69.0617V69.0611ZM7.19245 65.2062C6.17873 66.4385 5.07665 67.7799 5.07665 69.0611C5.07665 69.1773 5.3669 69.2547 5.78781 69.3063C6.25263 69.3633 6.86579 69.3767 7.4495 69.3767C7.88005 69.3767 8.11996 69.3713 8.3347 69.367L9.10798 69.3525L25.3634 69.352L25.0689 68.238C24.7669 67.1165 24.4873 66.0766 24.2121 64.3954L23.9647 62.8631L23.7382 61.3954C23.6664 60.905 23.5946 60.398 23.5245 59.8652C23.4554 59.3378 23.3885 58.7969 23.3258 58.2388L23.2942 57.8824L23.268 57.4786C23.246 57.1189 23.2208 56.7227 23.1743 56.3732C23.1293 56.0383 23.0645 55.7447 22.9622 55.5678L18.1501 50.9624C17.4266 51.8312 15.8613 53.8549 14.1605 56.0786C12.3783 58.4104 10.4987 60.8943 9.24293 62.554L7.9893 64.211C7.73386 64.547 7.4811 64.8546 7.22459 65.1664L7.19245 65.2057V65.2062ZM26.4136 6.19905C26.4136 5.23613 26.8795 4.65225 27.627 4.31031C28.3553 3.9775 29.353 3.87858 30.4444 3.87858C30.8401 3.87858 31.3976 3.9103 32.0113 3.94524C33.4689 4.0275 35.25 4.12804 35.9403 3.8646C35.9837 3.81836 36.0201 3.7533 36.0512 3.68072C36.0897 3.59094 36.1208 3.4947 36.1508 3.40007C36.2729 3.01565 36.3934 2.64038 36.6831 2.35381C36.9733 2.06725 37.4258 1.87746 38.2039 1.87746H52.8357C53.0119 1.87746 53.1849 1.89628 53.3493 1.93015C53.5201 1.96563 53.6823 2.01832 53.8296 2.08445C53.9935 2.15757 54.1456 2.25166 54.2778 2.35973C54.4117 2.46941 54.5274 2.59522 54.6179 2.73178C54.7892 2.98931 54.8894 3.21405 54.9504 3.40975C55.0115 3.60491 55.035 3.77158 55.0543 3.91245C55.0549 3.92051 55.0533 3.90062 55.3671 3.91083C55.7516 3.92428 56.5372 3.92696 58.1105 3.92696C58.5764 3.92696 59.0251 3.91514 59.4712 3.90331C59.9318 3.89148 60.3923 3.87858 60.8336 3.87858C61.986 3.88073 62.9263 3.97266 63.5845 4.36945C64.2539 4.77322 64.6266 5.48237 64.6266 6.71143V7.44585H26.4136V6.19905ZM30.4449 5.34689C29.7627 5.34689 29.1377 5.38291 28.6729 5.50119C28.2932 5.59743 28.0222 5.74797 27.921 5.97754H62.9992C62.8557 5.73507 62.619 5.58237 62.3057 5.48882C61.9233 5.37431 61.4232 5.34474 60.8346 5.34474C60.4111 5.34689 59.9842 5.35871 59.5585 5.36947C59.0701 5.38237 58.5807 5.39527 58.1116 5.39527C55.9834 5.39527 54.9113 5.35656 54.3448 5.18398C53.7332 4.99742 53.6877 4.67429 53.6111 4.11138L53.6101 4.10331C53.5902 3.96137 53.5613 3.77427 53.4087 3.54577C53.3942 3.52481 53.3728 3.5033 53.3466 3.48341C53.3166 3.46136 53.2796 3.43932 53.2368 3.4205C53.1833 3.39685 53.1217 3.37695 53.0547 3.36459C52.9899 3.35276 52.916 3.34523 52.8373 3.34523H38.2055C37.9479 3.34523 37.8028 3.40383 37.7139 3.49201C37.625 3.5818 37.5827 3.71298 37.5404 3.84632C37.4735 4.05707 37.4044 4.27213 37.2909 4.48074C37.1752 4.69365 37.014 4.89795 36.765 5.08075C36.7125 5.11892 36.7088 5.12054 36.6477 5.15011C35.6849 5.61356 33.6847 5.50173 32.0316 5.41033C31.4367 5.37699 30.8862 5.34635 30.4454 5.34635L30.4449 5.34689ZM45.5201 68.1563C46.4744 68.1563 47.2717 67.9062 47.9074 67.4917C48.6159 67.0294 49.1268 66.3616 49.4315 65.6084C49.545 65.3266 49.6317 65.032 49.6901 64.7331C49.749 64.4314 49.779 64.1239 49.7795 63.8202C49.7801 63.5132 49.7512 63.204 49.6933 62.9024C49.6366 62.6067 49.5509 62.3158 49.4373 62.0395C49.1332 61.3002 48.6137 60.6454 47.8753 60.1943C47.2139 59.79 46.3737 59.5464 45.3498 59.5464L45.1425 59.5502C44.6017 59.5792 44.0913 59.726 43.6303 59.9566C43.1322 60.2056 42.6899 60.555 42.3231 60.9636C41.9664 61.361 41.681 61.8137 41.4866 62.2841C41.2949 62.7475 41.1905 63.2314 41.1905 63.6986L41.1931 63.8615C41.2253 64.4594 41.364 65.0358 41.5937 65.5611C41.8251 66.089 42.149 66.5659 42.5501 66.9622C42.932 67.339 43.3877 67.6444 43.9023 67.852C44.3902 68.0482 44.9337 68.1573 45.5201 68.1573V68.1563ZM50.7847 66.1594C50.3707 67.1837 49.6799 68.0912 48.724 68.7202C47.8672 69.2842 46.7962 69.6246 45.5201 69.6246C44.7372 69.6246 44.0089 69.4767 43.3523 69.2106C42.6583 68.9289 42.0435 68.5159 41.5268 68.0057C40.9961 67.4826 40.5687 66.8546 40.2635 66.1632C39.9609 65.4756 39.7783 64.7223 39.736 63.9417L39.728 63.7013C39.7275 63.0513 39.8678 62.3879 40.1248 61.7556C40.384 61.1179 40.7631 60.5104 41.2365 59.983C41.726 59.4367 42.322 58.9706 42.9962 58.6362C43.6228 58.3259 44.3189 58.1281 45.0622 58.0878L45.3466 58.0781C46.6929 58.0776 47.803 58.4093 48.6833 58.9598C49.6703 59.5776 50.3691 60.4722 50.7852 61.483C50.9352 61.8486 51.0487 62.2309 51.1231 62.619C51.1986 63.0131 51.2367 63.4169 51.2356 63.8202C51.2351 64.2223 51.196 64.6255 51.1205 65.0186C51.0455 65.4089 50.933 65.7933 50.7847 66.1594ZM43.2575 40.8756C43.2575 40.2632 43.3823 39.7471 43.5896 39.332C43.823 38.8637 44.1615 38.5218 44.5428 38.311C44.6949 38.2277 44.855 38.1632 45.0178 38.1207C45.1838 38.0777 45.353 38.0551 45.5201 38.0551C45.8542 38.0551 46.19 38.1406 46.4979 38.3105C46.8797 38.5207 47.2177 38.8626 47.4511 39.3309C47.6578 39.746 47.7826 40.2621 47.7826 40.875C47.7826 41.3159 47.6412 41.6815 47.4078 41.9692C47.1491 42.2874 46.7764 42.5106 46.3576 42.638C46.2253 42.6783 46.0872 42.7095 45.9469 42.7294C45.8055 42.7493 45.6615 42.7606 45.5201 42.7606C45.3787 42.7606 45.2347 42.7498 45.0933 42.7294C44.953 42.7095 44.8148 42.6783 44.6825 42.6385C44.2638 42.5116 43.8911 42.288 43.6324 41.9692C43.3989 41.6815 43.2575 41.3165 43.2575 40.875V40.8756ZM45.2448 39.596C45.0933 39.6799 44.9567 39.8347 44.8614 40.0605C44.7736 40.2697 44.72 40.5412 44.72 40.8761C44.72 40.9519 44.7538 41.0186 44.8095 41.0734C44.8807 41.1439 44.9862 41.1987 45.1051 41.2347C45.1666 41.2535 45.2347 41.2686 45.3048 41.2783C45.3739 41.288 45.4467 41.2928 45.5206 41.2928C45.594 41.2928 45.6668 41.2874 45.7354 41.2783C45.8055 41.2686 45.8741 41.2535 45.9356 41.2347C46.054 41.1987 46.16 41.1439 46.2307 41.074C46.2869 41.0186 46.3207 40.9519 46.3207 40.8761C46.3207 40.5412 46.2671 40.2697 46.1793 40.0605C46.084 39.8347 45.9474 39.6799 45.7959 39.596C45.7525 39.5723 45.7064 39.5535 45.6609 39.5422C45.6159 39.5309 45.5683 39.5245 45.5201 39.5245C45.4719 39.5245 45.4242 39.5309 45.3792 39.5422C45.3343 39.5541 45.2882 39.5723 45.2448 39.596ZM32.0654 87.5792C32.0611 87.7663 32.1039 87.9707 32.1805 88.1819C32.2662 88.4169 32.3963 88.6621 32.5521 88.9008C32.731 89.1744 32.942 89.4352 33.1632 89.6642C33.3918 89.9013 33.6323 90.1078 33.8593 90.2632C34.0682 90.3293 34.3188 90.382 34.5956 90.4229C34.9105 90.4686 35.2586 90.4987 35.6179 90.5164C35.9858 90.5341 36.3671 90.5385 36.7393 90.5347C37.1377 90.5304 37.5324 90.5148 37.8949 90.4944L37.8842 89.5056L37.8848 88.4282L37.8392 86.6104C38.2189 86.5131 38.9092 86.2792 39.2567 86.2513C39.4126 86.2378 39.7125 86.2453 39.9593 86.2513L40.6046 86.2561C41.1203 86.2545 41.5937 86.2534 42.1367 86.3341L42.7606 86.4265L42.7483 90.489L48.5596 90.4755L48.5339 86.5169C50.1517 86.5104 51.7706 86.5056 53.3878 86.4921L53.6079 86.7669C53.8671 87.09 53.9705 87.7513 53.9972 88.4787C54.0229 89.1529 53.9849 89.8868 53.9469 90.4562L56.8242 90.4008C57.2762 90.2771 57.6344 90.0363 57.9161 89.7202C58.2031 89.3981 58.4136 88.9949 58.5662 88.5562C58.7419 88.0518 58.8474 87.4965 58.9079 86.9459C58.9689 86.3921 58.985 85.8432 58.9834 85.3539L58.9668 82.7533C58.9662 82.3012 58.9695 81.849 58.9786 81.4038L32.0434 81.4286L32.0659 87.5809L32.0654 87.5792ZM31.3296 89.704C31.1009 89.3535 30.9097 88.9787 30.7817 88.5986C30.665 88.2497 30.6007 87.8948 30.6088 87.5491L30.5804 79.9662C40.5468 79.9662 50.5207 79.9769 60.4866 79.9388L60.4566 80.6995C60.4116 81.8334 60.4212 83.0076 60.4309 84.1604L60.4389 85.3523C60.441 85.9039 60.4212 86.5244 60.3495 87.154C60.2777 87.7868 60.1519 88.4341 59.9414 89.0373C59.7111 89.6976 59.3834 90.3046 58.9213 90.7933C58.458 91.2836 57.8588 91.6551 57.0898 91.8406C56.3647 92.0175 53.3578 91.9299 52.388 91.9482L52.4598 90.7605C52.4882 90.3669 52.5305 89.7922 52.5519 89.2486C52.5717 88.7492 52.5754 88.2674 52.5385 87.9594L49.998 87.9723C50.0114 90.1492 50.1501 90.1148 49.7228 91.9352C46.9113 91.9498 44.0962 91.9546 41.2847 91.9546L41.2981 87.7271C41.0684 87.7174 40.8429 87.718 40.6094 87.7185L39.6503 87.7077L39.419 87.711L39.3221 87.7357L39.3355 88.7459L39.3349 89.8288L39.3788 91.8482L38.6961 91.9073C38.2414 91.946 37.6738 91.9804 37.0654 91.9939C36.5711 92.0046 36.0501 92.0025 35.5478 91.9777C35.1017 91.9562 34.6647 91.9159 34.2658 91.8524C33.9043 91.7949 33.5728 91.718 33.2911 91.6175C33.2044 91.5858 33.2167 91.5928 33.1396 91.5433C32.821 91.3379 32.482 91.0583 32.1617 90.7331C31.8586 90.425 31.5689 90.0728 31.328 89.704H31.3296ZM42.6781 40.5347C42.6781 40.9089 42.7547 41.2659 42.9004 41.589C43.046 41.9132 43.2618 42.2046 43.5371 42.445C43.8177 42.6885 44.1631 42.8864 44.5631 43.0197C44.9449 43.1466 45.3798 43.2176 45.8601 43.2176L45.9201 43.2197C46.2146 43.21 46.5076 43.1224 46.7812 42.9789C47.0725 42.8256 47.3451 42.6047 47.5781 42.3412C47.8281 42.0589 48.0166 41.7595 48.1419 41.4385C48.2678 41.1175 48.3337 40.7724 48.3396 40.3982C48.3197 39.7955 48.1489 39.2965 47.8801 38.9019C47.5807 38.4626 47.1566 38.1503 46.6816 37.9653C46.4926 37.8922 46.2934 37.8368 46.0899 37.8013C45.8832 37.7653 45.6727 37.7486 45.4644 37.7524C45.2566 37.7556 45.0472 37.7798 44.8432 37.8228C44.6418 37.8653 44.4442 37.9271 44.2568 38.0078C43.7877 38.2094 43.3732 38.5395 43.0883 38.9954C42.8318 39.4046 42.6781 39.9186 42.6781 40.5358V40.5347ZM42.5801 43.5509C42.1421 43.167 41.7993 42.7052 41.568 42.1939C41.3372 41.6842 41.2151 41.1224 41.2151 40.5353C41.2151 39.6008 41.4556 38.8175 41.8566 38.1879C42.3038 37.4857 42.9507 36.9755 43.6849 36.6599C43.958 36.5427 44.2445 36.4524 44.5374 36.3911C44.833 36.3293 45.1377 36.2948 45.4414 36.29C45.7445 36.2852 46.0497 36.3083 46.3458 36.3604C46.6393 36.412 46.9285 36.4922 47.2064 36.6002C47.9492 36.8889 48.61 37.3739 49.0786 38.0535C49.4989 38.6632 49.7656 39.4309 49.7956 40.353C49.7961 40.9207 49.7019 41.4493 49.5139 41.9423C49.326 42.4348 49.0437 42.8934 48.6689 43.316C47.887 44.1988 46.8299 44.6466 45.7461 44.687C44.629 44.7294 43.4814 44.3396 42.5791 43.5509H42.5801ZM35.1408 3.51782C34.797 3.51782 34.1603 3.50222 33.4534 3.48556L33.4036 3.48448C31.6728 3.44416 29.5185 3.39362 28.5246 3.56997C27.8471 3.68986 27.3175 3.94363 26.9143 4.27213C26.4452 4.65547 26.1426 5.14312 25.9734 5.64689C25.9091 5.83883 25.8625 6.034 25.8331 6.22486C25.802 6.42594 25.7886 6.62433 25.7913 6.81358C25.794 6.98778 25.8111 7.15553 25.84 7.30983C25.869 7.46575 25.9113 7.61037 25.9627 7.73457C26.005 7.83726 26.0483 7.92113 26.0874 7.97705L26.1233 8.02866H29.0665V8.76309C29.0665 8.99427 29.0569 9.40503 29.0477 9.82655L29.0451 9.94967C29.0226 10.9282 28.9985 11.94 29.1131 12.8239C29.2255 13.6944 29.4729 14.4417 29.9876 14.9105C30.1434 15.0525 30.3555 15.2121 30.6023 15.3659C30.824 15.5041 31.0747 15.6385 31.3376 15.753C31.5577 15.8476 31.7842 15.9283 32.0059 15.9815C32.2046 16.0294 32.4017 16.0573 32.5891 16.0573H58.45C58.9213 16.0573 59.3957 15.9589 59.8364 15.7665C60.2622 15.5804 60.6563 15.3057 60.9862 14.9487C61.2946 14.6148 61.549 14.2035 61.7214 13.7202C61.8816 13.2707 61.9726 12.7556 61.9726 12.1798V8.02974H62.7041L64.015 8.0464C65.025 8.0464 65.206 7.88887 65.206 6.37271C65.206 6.03023 65.1407 5.71087 65.025 5.42216C64.9002 5.10925 64.716 4.82752 64.4922 4.58504C64.2405 4.31192 63.9379 4.08342 63.6118 3.90922C63.2744 3.72911 62.9103 3.60491 62.5499 3.54631C62.0577 3.46674 61.2829 3.43932 60.4169 3.43824C59.5489 3.43771 58.5855 3.4619 57.7212 3.48341L57.6757 3.48448C56.9383 3.50276 56.2705 3.51997 55.8988 3.51997H55.3189L55.1877 2.95221C55.1443 2.76457 55.0554 2.57586 54.9328 2.40059C54.8069 2.22101 54.6447 2.05381 54.4572 1.91241C54.2736 1.77423 54.0647 1.66025 53.8414 1.58283C53.6315 1.51078 53.4071 1.47046 53.1774 1.47046H37.8644C37.6347 1.47046 37.4103 1.51132 37.2004 1.58337C36.9771 1.66025 36.7682 1.77423 36.5845 1.91241C36.3971 2.05327 36.2343 2.22101 36.1085 2.40113C35.9853 2.57694 35.8969 2.76511 35.8536 2.95221L35.7218 3.51997H35.1424L35.1408 3.51782ZM33.4507 2.02262L34.6294 2.04628C34.7413 1.8081 34.888 1.57745 35.0615 1.36401C35.2474 1.13443 35.4664 0.923675 35.709 0.740338C36.0164 0.50915 36.3655 0.318824 36.7409 0.190327C37.0954 0.0688186 37.474 0 37.8633 0H53.1763C53.5656 0 53.9442 0.0688186 54.2987 0.190327C54.6741 0.319362 55.0233 0.50915 55.3307 0.740338C55.5732 0.923138 55.7923 1.13389 55.9781 1.36347C56.1516 1.57691 56.2978 1.80756 56.4102 2.04628L57.7067 2.01886C59.4921 1.9737 61.6743 1.91886 62.7812 2.09897C63.2975 2.1823 63.8164 2.35973 64.2978 2.61833C64.7642 2.86834 65.1975 3.19684 65.5611 3.59147C65.907 3.96675 66.1924 4.40332 66.3863 4.88989C66.5662 5.34205 66.6685 5.83883 66.6685 6.37164C66.6685 9.21363 66.3129 9.51256 64.3251 9.51256L63.4356 9.50181V12.1798C63.4356 12.9444 63.3092 13.6347 63.0854 14.246C62.8439 14.9057 62.4883 15.4734 62.0561 15.9417C61.5849 16.453 61.0231 16.845 60.4185 17.11C59.7925 17.3853 59.1189 17.5262 58.4511 17.5262H57.7367C57.9161 17.5719 58.0934 17.6235 58.2669 17.681C58.7183 17.8305 59.1499 18.0213 59.5366 18.2541C59.8895 18.4665 60.2081 18.7138 60.4775 18.9966C60.7013 19.2316 60.893 19.4929 61.0419 19.7805C61.2084 19.6192 61.3819 19.4445 61.5549 19.2665L62.8257 17.9391C63.4436 17.3203 63.9363 16.9073 64.3321 16.6417C64.6432 16.4331 64.8981 16.3132 65.1091 16.2536C64.9297 16.0724 64.7605 15.8842 64.6282 15.6557C64.4633 15.3718 64.3556 15.0293 64.3556 14.5723C64.3556 14.368 64.4991 14.0702 64.7262 13.7406C64.9731 13.3809 65.3217 12.975 65.6848 12.6105C66.3804 11.9121 67.2228 11.2755 67.6394 11.2755C68.1653 11.2755 68.6279 11.4906 69.0456 11.8013C69.458 12.1078 69.8248 12.504 70.1724 12.8798L70.544 13.2745L70.9472 12.861C71.3125 12.4739 71.6846 12.0798 72.1521 11.7809C72.6239 11.4787 73.19 11.2755 73.9338 11.2755C76.0774 11.2755 77.036 12.411 78.0497 13.6159L78.0551 13.6223C78.2527 13.8567 78.4535 14.096 78.6704 14.3288C78.8669 14.5401 79.0747 14.7428 79.2985 14.9256L79.4967 14.781C79.6927 14.6315 79.8887 14.4815 80.1334 14.3697C80.3824 14.2557 80.6812 14.1799 81.0802 14.1799C82.7156 14.1799 83.5949 15.1514 84.5594 16.2165L84.8609 16.5487L85.2127 16.9143L85.4478 17.1434L85.6786 17.3568C86.6045 18.209 87.9369 19.4364 87.9369 20.7214C87.9369 21.4644 87.8887 21.8902 87.7869 22.1919C87.6825 22.5021 87.5256 22.6747 87.3098 22.9128L87.2803 22.9451C87.4372 23.1263 87.6209 23.3172 87.8153 23.5102C88.0301 23.7231 88.2598 23.9419 88.4804 24.1505C88.814 24.4715 89.1536 24.8193 89.4979 25.1269C90.2669 25.8392 91 26.5194 91 28.0667C91 28.4382 90.9282 28.8071 90.8056 29.163C90.6701 29.5587 90.4698 29.9399 90.2353 30.2936C90.0463 30.5797 89.8315 30.8506 89.6093 31.098C89.3822 31.3501 89.1439 31.5808 88.9137 31.7808C89.0357 31.9157 89.1627 32.0421 89.288 32.1603C89.4395 32.3034 89.5868 32.434 89.725 32.5566L89.7849 32.6104C89.9616 32.7695 90.1287 32.919 90.2717 33.0652C90.698 33.5023 90.9802 33.9211 90.9877 34.4029C90.9952 34.8814 90.7301 35.411 90.0618 36.0669C88.8146 37.2922 88.1762 37.8949 87.6895 38.0535C87.1684 38.2234 86.8498 37.9191 86.2388 37.3341L85.8746 36.9975L85.8387 37.0895L85.8366 37.1217C85.8853 37.3158 85.925 37.4755 85.8505 37.6965C85.7804 37.9046 85.6042 38.1594 85.2283 38.5422L75.2415 48.4639L78.2254 52.407L78.6752 52.9839L79.1797 53.6527C79.4426 54.0006 79.7029 54.3458 79.9246 54.6237L85.0622 61.2696C85.2454 61.5104 85.4692 61.7878 85.7124 62.0905L85.7589 62.1486C86.6768 63.2895 87.879 64.7825 88.6459 66.3003C89.2087 67.4127 89.545 68.5283 89.416 69.5348C89.2858 70.5504 88.6844 71.4515 87.3741 72.1198C86.6506 72.4881 85.6877 72.6569 84.6328 72.7241C83.5864 72.7908 82.4452 72.7601 81.357 72.73L81.2853 72.7279C80.7921 72.715 80.3085 72.7021 79.7195 72.7021H64.6512C64.5913 72.9037 64.5152 73.122 64.429 73.3472C64.3331 73.5994 64.2255 73.8591 64.1146 74.1128C63.9556 74.4779 63.7848 74.843 63.6316 75.1634C63.479 75.4817 63.3408 75.7564 63.246 75.9451L63.1721 76.0919C62.5285 77.3704 61.6957 79.0226 60.1529 79.0226H30.8883C29.3466 79.0226 28.5138 77.3704 27.8712 76.0946L27.4102 75.1629C27.2565 74.843 27.0862 74.4784 26.9271 74.1128C26.8168 73.8591 26.7092 73.5999 26.6128 73.3472C26.5271 73.1225 26.4511 72.9042 26.3905 72.7021H11.3223C10.9218 72.7021 10.5603 72.7139 10.1629 72.7273L10.1479 72.7279C9.12619 72.7623 7.88487 72.8037 6.67515 72.715C5.45633 72.6257 4.26481 72.4047 3.34909 71.9128C2.4596 71.4343 1.82342 70.745 1.6317 69.7568C1.44267 68.7799 1.69222 67.5127 2.56724 65.8713C3.01332 65.0347 7.29902 59.4986 9.6783 56.4248L11.0813 54.6103L15.796 48.4601L5.70695 38.4357C5.35993 38.0513 5.2041 37.7933 5.15055 37.5863C5.09486 37.3717 5.14252 37.2185 5.20303 37.0422C4.40833 37.8201 3.62702 38.5331 2.29681 37.3884C2.12759 37.2427 1.92302 37.0626 1.71578 36.868C1.50265 36.668 1.27773 36.4443 1.06781 36.2126C0.835398 35.954 0.616374 35.6792 0.441262 35.4024C0.263472 35.1212 0.127452 34.8346 0.0626548 34.5539L0 34.2873L0.127987 34.0459C0.252226 33.8104 0.413415 33.5615 0.598166 33.3131C0.795235 33.0475 1.01801 32.7824 1.24935 32.5335C1.39554 32.3759 1.55138 32.219 1.70989 32.0689C1.84162 31.9437 1.97657 31.8222 2.11045 31.7082L1.75648 31.3576C1.34306 30.9555 0.917331 30.5393 0.592811 30.0221C0.265614 29.5001 0.0428409 28.878 0.0428409 28.0673C0.0428409 27.2248 0.32452 26.5538 0.757213 25.9602C1.18616 25.372 1.75969 24.865 2.35464 24.3392C2.60955 24.1139 2.87034 23.8833 3.11453 23.6489C3.34159 23.4311 3.55901 23.2069 3.75394 22.9725C3.40371 22.6037 3.10597 22.2472 3.10597 21.4047C3.10597 20.43 3.26127 19.7983 3.56865 19.2698C3.87389 18.745 4.3264 18.3289 4.92563 17.7778L4.93153 17.7719C5.17143 17.5514 5.44347 17.3014 5.83011 16.9138C5.97256 16.7708 6.1043 16.6267 6.24728 16.4697L6.26977 16.445C7.12016 15.5154 8.34273 14.1793 9.62207 14.1793C10.8168 14.1793 11.092 14.4003 11.6254 14.8283L11.6447 14.8433C11.7721 14.7267 11.9098 14.5922 12.0528 14.4476L12.5813 13.9035C13.1581 13.3035 13.7862 12.6508 14.4326 12.146C15.0886 11.6341 15.7649 11.2744 16.4279 11.2744C17.53 11.2744 18.2063 11.4148 18.6952 11.654C19.189 11.8959 19.4873 12.2357 19.838 12.6341C19.936 12.7454 20.0394 12.8626 20.1513 12.9793C20.2498 13.0815 20.3585 13.1863 20.4806 13.2911L20.8705 12.8793C21.2175 12.5035 21.5849 12.1072 21.9967 11.8008C22.4149 11.49 22.8776 11.275 23.4029 11.275C24.1066 11.275 24.6796 11.9228 25.1026 12.4035L25.108 12.4094C25.1765 12.4874 25.2403 12.5594 25.3233 12.6427C26.3215 13.6449 26.7724 14.2046 26.8479 14.6546C26.9282 15.1283 26.6171 15.4487 26.0992 15.9826L25.8727 16.2208C25.952 16.2288 26.0382 16.245 26.1314 16.2718C26.3118 16.3235 26.5228 16.4143 26.7691 16.5616C27.0182 16.7111 27.3079 16.9654 27.6206 17.2756C27.9275 17.5799 28.2648 17.9477 28.6092 18.3224L28.6134 18.3273C29.1061 18.8633 29.6186 19.4214 30.0181 19.7875C30.1911 19.4655 30.4074 19.1773 30.658 18.9224C30.9536 18.6214 31.2985 18.3638 31.6766 18.1493C32.0418 17.9412 32.4397 17.773 32.8526 17.6412C32.9848 17.5993 33.1198 17.5606 33.2558 17.5256H32.5902C32.2994 17.5256 32.0022 17.4858 31.7082 17.4176C31.3853 17.3423 31.065 17.2315 30.7614 17.1004C30.4288 16.9568 30.1097 16.7831 29.8232 16.6025C29.5045 16.4009 29.2239 16.1885 29.0119 15.9955C27.4808 14.6019 27.5371 12.1841 27.5906 9.92171L27.5992 9.49805H26.1249C25.794 9.49805 25.4962 9.38353 25.2429 9.1803C24.9827 8.97116 24.769 8.66739 24.6159 8.29802C24.5302 8.09157 24.4611 7.85984 24.414 7.61091C24.3679 7.36843 24.3406 7.10768 24.3363 6.83778C24.332 6.56573 24.3508 6.28185 24.3952 5.99582C24.4375 5.72431 24.5023 5.45011 24.5934 5.18129C24.8445 4.43719 25.2869 3.71567 25.9675 3.15114C26.5507 2.66726 27.3106 2.29736 28.275 2.12585C28.8314 2.02746 29.677 1.9909 30.6082 1.98499C31.5357 1.97907 32.55 2.00327 33.4523 2.02424L33.4507 2.02262ZM35.0905 64.4497C35.0905 63.5481 35.1344 62.7427 35.2377 62.0018C35.3416 61.2599 35.5066 60.5835 35.7475 59.9394C35.9907 59.2916 36.3093 58.6846 36.7195 58.0862C37.1286 57.4894 37.6293 56.9006 38.2371 56.2877C39.2375 55.2791 40.3422 54.5463 41.4952 54.0581C42.7354 53.5323 44.0319 53.2898 45.3161 53.2898C46.0304 53.2898 46.7443 53.3667 47.4436 53.5113C48.1564 53.6592 48.8558 53.8796 49.5262 54.164C50.1887 54.4441 50.8238 54.7888 51.4177 55.1877C52.011 55.5856 52.5647 56.0399 53.0654 56.541C53.9672 57.4426 54.7046 58.5007 55.2075 59.6711C55.6819 60.776 55.9486 61.983 55.9486 63.254C55.9486 64.1352 55.9026 64.9352 55.796 65.6788C55.6894 66.4218 55.5213 67.1105 55.2776 67.7654C55.0324 68.4262 54.7111 69.0455 54.303 69.6472C53.8949 70.2477 53.3975 70.8327 52.7977 71.4241C51.7829 72.4252 50.669 73.1526 49.5112 73.6365C48.2662 74.1569 46.9697 74.3978 45.6877 74.3978C44.9632 74.3978 44.2413 74.3198 43.5355 74.172C42.8152 74.0209 42.1099 73.7962 41.4352 73.5064C40.7685 73.2203 40.1302 72.8687 39.5341 72.4623C38.9397 72.0563 38.3849 71.5924 37.8848 71.0811C37.0092 70.1864 36.2948 69.1407 35.8075 67.9847C35.347 66.8923 35.0889 65.7019 35.0889 64.4492L35.0905 64.4497ZM37.1131 60.4561C36.908 61.0034 36.7677 61.5921 36.6788 62.2459C36.5904 62.9019 36.5529 63.6277 36.5529 64.4497C36.5529 65.5057 36.7714 66.5089 37.1613 67.4304C37.5742 68.4063 38.182 69.2934 38.9263 70.0547C39.3601 70.4977 39.841 70.8999 40.3567 71.2526C40.874 71.6058 41.4288 71.9112 42.0071 72.1596C42.5908 72.4101 43.2008 72.6047 43.8257 72.7348C44.4346 72.8623 45.0595 72.9295 45.6882 72.9295C46.7855 72.9295 47.8945 72.7236 48.9586 72.2778C49.9493 71.8633 50.9036 71.2386 51.7749 70.38C52.2997 69.8633 52.7318 69.3574 53.0831 68.8439C53.4344 68.331 53.707 67.8073 53.9121 67.2546C54.1199 66.6966 54.2634 66.0971 54.3549 65.4385C54.446 64.7788 54.4861 64.0573 54.4861 63.2545C54.4861 62.1836 54.2602 61.1663 53.858 60.2335C53.4312 59.2437 52.8041 58.3464 52.0378 57.5797C51.6014 57.1437 51.1199 56.7485 50.6053 56.4022C50.088 56.0549 49.5359 55.7555 48.9613 55.5119C48.3835 55.2667 47.7794 55.0764 47.1614 54.949C46.5579 54.8243 45.9394 54.7587 45.3171 54.7587C44.2199 54.7587 43.113 54.9657 42.0564 55.4135C41.0727 55.8307 40.1286 56.4576 39.2728 57.3206C38.7378 57.8603 38.2992 58.3738 37.9442 58.8867C37.5902 59.3991 37.3182 59.9136 37.1142 60.4561H37.1131ZM55.0168 69.5789C55.1148 69.1536 55.3076 68.7294 55.5009 68.3014L55.6477 67.9762L55.7826 67.653C55.8806 67.4009 55.9454 67.1869 55.9909 67.0062C56.0354 66.8277 56.0622 66.6761 56.0841 66.5503C56.1253 66.3105 56.1596 66.1207 56.2362 65.9412C56.3139 65.7589 56.4349 65.5933 56.648 65.4105C56.8504 65.2368 57.1321 65.0739 57.5739 64.8675C58.0104 64.6637 58.6064 64.4137 59.4445 64.0632L60.3088 63.7008L68.1374 60.2599L68.455 60.8631C69.0274 61.9502 69.3777 62.1626 69.6915 62.3524C69.8403 62.4422 69.9849 62.5303 70.1365 62.6545C70.288 62.7782 70.4428 62.9363 70.6083 63.1631L71.1491 63.9051L57.8315 69.6767L57.4904 69.8316C56.9688 70.0692 56.3449 70.3542 55.894 70.4595L54.7502 70.7278L55.0168 69.5789ZM57.1418 68.1864L57.0432 68.4267C59.6303 67.2423 62.2939 66.1073 64.9479 64.9766C66.1555 64.4626 67.3641 63.947 68.6178 63.4045C68.4764 63.3062 68.327 63.1857 68.1674 63.0223C67.9655 62.8153 67.7449 62.5363 67.4996 62.1389L65.4218 63.0578C63.63 63.8519 61.8366 64.6476 60.003 65.4164C59.2388 65.7363 58.6931 65.9648 58.2979 66.1428C57.9199 66.3138 57.7035 66.4288 57.5948 66.5224C57.5841 66.5315 57.5739 66.5552 57.5637 66.5917L57.5225 66.7998C57.4963 66.9552 57.4636 67.139 57.4068 67.3654C57.3501 67.5912 57.2676 67.8606 57.1407 68.1864H57.1418ZM68.6713 60.0561C68.4287 59.4717 68.3248 58.9141 68.343 58.3571C68.3613 57.8012 68.5 57.2464 68.7409 56.6641C69.2282 55.4899 70.1102 54.6866 71.1277 54.2689C71.6755 54.0436 72.2646 53.9296 72.851 53.9291C73.4379 53.9285 74.0254 54.0425 74.5716 54.2705C75.5601 54.6845 76.4159 55.4764 76.8973 56.656C77.2475 57.5152 77.315 58.3652 77.1335 59.1668C76.9466 59.9953 76.4935 60.7722 75.814 61.4572C75.3722 61.9024 74.8715 62.2336 74.3445 62.454C73.5445 62.7889 72.6807 62.8696 71.8635 62.7126C71.0463 62.5551 70.2725 62.1583 69.654 61.5395C69.2518 61.1378 68.9139 60.6411 68.6719 60.0561H68.6713ZM70.0192 59.4937C70.1922 59.9104 70.4267 60.2572 70.702 60.5314C71.1154 60.9443 71.6241 61.1981 72.1575 61.2932C72.6914 61.3878 73.2537 61.3255 73.7726 61.1083C74.1351 60.9561 74.4795 60.7281 74.7794 60.4249C75.2511 59.9496 75.5703 59.4265 75.702 58.8722C75.8268 58.3464 75.7845 57.7872 75.5484 57.2071C75.2276 56.4184 74.6615 55.8936 74.0082 55.6205C73.6425 55.4678 73.2473 55.3931 72.8526 55.3942C72.4579 55.3952 72.0616 55.4732 71.6932 55.6243C71.0061 55.906 70.4117 56.4458 70.0883 57.2254C69.9185 57.6351 69.8162 58.0018 69.7991 58.3636C69.7825 58.7238 69.85 59.0867 70.0187 59.4932L70.0192 59.4937ZM78.9339 56.4861L85.5496 65.0594C86.5628 66.4159 87.1668 67.46 87.373 68.2767C87.5861 69.1229 87.3832 69.7316 86.7748 70.1891C86.2597 70.5773 85.436 70.7606 84.3061 70.838C83.1912 70.9149 81.7689 70.8896 80.0418 70.8595L79.9883 70.859C78.9681 70.8413 77.8237 70.8214 76.3152 70.8214H63.8255L64.128 69.5149C64.2662 68.9127 64.3679 68.474 64.4831 68.1272C64.6004 67.7745 64.7321 67.5197 64.9292 67.2939C65.1016 67.096 65.289 66.9578 65.5236 66.8326C65.7517 66.7116 66.027 66.603 66.3804 66.4643L66.3986 66.4573C66.6621 66.3535 66.9818 66.2272 67.3973 66.0471C67.9087 65.8256 68.3414 65.6315 68.8073 65.4223L68.8689 65.3949C70.6056 64.6164 72.7342 63.6615 74.0885 63.2578C74.8008 63.0454 75.3957 62.7588 75.8825 62.4078C76.3854 62.0448 76.7752 61.612 77.0596 61.1196C77.3637 60.5937 77.5565 59.991 77.6502 59.326C77.7482 58.6249 77.7381 57.8534 77.6331 57.0265L77.2925 54.3624L78.9328 56.4872L78.9339 56.4861ZM84.3913 65.9465L79.14 59.1432C79.0977 59.6093 79.0174 60.0566 78.8974 60.4824C78.7598 60.9701 78.5697 61.4282 78.3239 61.8534C77.9437 62.511 77.4344 63.0863 76.7822 63.5642C76.1567 64.0234 75.3989 64.3938 74.5004 64.6621C73.8717 64.8497 73.0357 65.1772 72.1457 65.5524C71.2573 65.9266 70.3105 66.3519 69.4596 66.7331L67.9757 67.3939L67.3995 67.6347L66.9116 67.8288C66.6551 67.9299 66.4554 68.0089 66.3076 68.0778C66.1694 68.1428 66.0773 68.1993 66.0259 68.2579C65.9638 68.3288 65.9086 68.4493 65.8497 68.6375C65.794 68.8138 65.7351 69.0477 65.6633 69.3536H76.3141C77.5185 69.3536 78.846 69.3773 80.0343 69.3977H80.0681C83.2308 69.4531 85.2781 69.4885 85.9003 69.0203C86.0669 68.895 86.0503 68.6197 85.8312 68.1509C85.5924 67.6407 85.119 66.9224 84.3907 65.9471L84.3913 65.9465ZM38.4931 53.8592V43.6988L39.7751 45.1805C40.1548 45.6198 40.5698 45.9967 41.0164 46.3316C41.463 46.6666 41.9439 46.9601 42.4564 47.2322L42.8479 47.4397V53.2452L42.2824 53.3775C41.7329 53.506 41.2938 53.7377 40.8767 53.9576C40.6432 54.0807 40.4161 54.2011 40.1773 54.3065C39.9363 54.413 39.6793 54.5065 39.3895 54.5737L38.4926 54.7829V53.8592H38.4931ZM39.9556 47.3612V52.786L40.1976 52.6608C40.5575 52.471 40.9313 52.2737 41.3859 52.1145V48.3139C41.1658 48.1886 40.9522 48.0601 40.746 47.9268C40.5264 47.7849 40.3122 47.6349 40.1045 47.4784L39.9556 47.3612ZM38.6634 41.2191V41.1041C38.6661 38.5965 38.6677 37.5045 40.8836 35.3518C41.5059 34.7464 42.2288 34.2883 43.0016 33.9792C43.8059 33.6577 44.6638 33.4969 45.5195 33.4969C46.3737 33.4969 47.2316 33.6582 48.0359 33.9792C48.8087 34.2889 49.5321 34.7464 50.1555 35.3518C51.2945 36.4583 52.0522 37.796 52.3371 39.2218C52.6113 40.5928 52.4501 42.0444 51.7743 43.4514C51.5708 43.8756 51.3293 44.2837 51.0835 44.6386C50.82 45.0192 50.5491 45.3423 50.3124 45.5617C49.6242 46.1977 48.8847 46.658 48.1253 46.9639C47.3049 47.294 46.461 47.4445 45.632 47.4445C44.6301 47.4445 43.6292 47.2214 42.7097 46.8144C41.7854 46.4058 40.9415 45.8096 40.2592 45.0671C39.7569 44.5197 39.3505 43.8993 39.0741 43.2332C38.8096 42.5966 38.6634 41.917 38.6634 41.2202V41.2191ZM40.1227 41.1035L40.1253 41.2175C40.1259 41.7283 40.2357 42.2267 40.4343 42.6966C40.6426 43.1912 40.9516 43.6579 41.3335 44.074C41.877 44.666 42.5533 45.1429 43.2945 45.4703C44.0314 45.7967 44.833 45.9757 45.632 45.9757C46.2843 45.9757 46.9483 45.8569 47.5936 45.5961C48.1917 45.3542 48.7771 44.9886 49.3238 44.4832C49.4984 44.3214 49.704 44.073 49.9081 43.7735C50.1014 43.4902 50.2942 43.1606 50.4596 42.8149C50.9882 41.7143 51.1055 40.5664 50.8838 39.4836C50.6508 38.3454 50.0419 37.2744 49.1433 36.4018C48.6603 35.933 48.097 35.5782 47.4934 35.3384C46.8658 35.09 46.1927 34.9647 45.519 34.9647C44.8464 34.9647 44.1738 35.09 43.5462 35.3389C42.9427 35.5787 42.3793 35.9341 41.8947 36.4045C40.1227 38.1234 40.1227 39.0277 40.1221 41.1035H40.1227ZM53.9646 38.5927C59.4975 42.9181 65.1343 47.5859 70.771 51.7172C71.0313 51.9054 71.1871 52.0183 71.3044 52.1694C71.4222 52.3215 71.4924 52.5006 71.5759 52.8167L71.7703 53.5479L71.0367 53.7199C70.3866 53.8716 69.9116 54.2458 69.4339 54.6221L69.428 54.6264C69.21 54.7985 68.9894 54.9721 68.7238 55.1506L68.2863 55.4442L54.8439 44.9714C54.5975 44.7773 54.4197 44.6273 54.2478 44.4826L54.2393 44.4751C54.0374 44.3031 53.8398 44.1364 53.6411 43.9864C53.4414 43.8359 53.2336 43.6961 53.006 43.5751L52.6076 43.3633L52.6177 42.9127C52.6376 41.9955 52.7452 41.6509 52.8362 41.3579C52.8818 41.2127 52.9214 41.0858 52.9246 40.8051C52.9278 40.5143 52.8946 40.0584 52.7934 39.261L52.5685 37.5013L53.9646 38.5927ZM69.4258 52.5334L54.3823 40.7734C54.3833 41.003 54.3705 41.1761 54.3485 41.3208C54.3207 41.5052 54.2773 41.6433 54.2312 41.7917C54.2055 41.8756 54.1761 41.9665 54.152 42.0853C54.13 42.195 54.1091 42.3331 54.0942 42.5192C54.4861 42.7719 54.823 43.0568 55.1743 43.3536L55.7344 43.8133L68.3307 53.6264L68.5305 53.4694C68.8796 53.1947 69.2266 52.921 69.6401 52.6957L69.4253 52.5323L69.4258 52.5334ZM74.1035 13.154C74.6771 13.154 75.4568 13.6852 76.2365 14.3713C77.0033 15.046 77.7766 15.8756 78.3475 16.488L78.3635 16.5052C78.5531 16.7079 78.7132 16.8799 78.9162 17.0842C80.3781 18.552 81.9268 20.2047 83.4878 21.808L85.5105 23.8387C86.1927 24.5037 86.8717 25.1392 87.5395 25.7263C87.9454 26.1081 88.339 26.478 88.6191 26.8989C89.0036 27.4753 89.1846 28.0716 88.9597 28.7339C88.7407 29.3823 88.1281 30.0888 86.929 30.8947L86.4321 31.2281C81.2864 26.0979 76.1481 20.959 71.0019 15.8283L71.3162 15.332C71.418 15.1707 71.6477 14.8793 71.932 14.5686C72.1543 14.3261 72.414 14.067 72.6748 13.846C72.9201 13.6379 73.1782 13.4567 73.4315 13.3331C73.6601 13.2218 73.8877 13.1546 74.103 13.1546L74.1035 13.154ZM77.2845 17.4869C76.7881 16.9541 76.1149 16.2326 75.4959 15.6423C74.8923 15.0675 74.3493 14.6223 74.1035 14.6223C74.0837 14.6223 74.0312 14.6508 73.96 14.6987C73.8626 14.7632 73.7431 14.8573 73.6173 14.9638C73.4893 15.0718 73.3581 15.1944 73.2339 15.3191C73.1155 15.438 73.0047 15.5562 72.9083 15.6654L86.6018 29.3323C87.0993 28.949 87.3682 28.6361 87.4785 28.3726C87.5845 28.1178 87.5368 27.906 87.4083 27.7135C87.3125 27.5699 87.1818 27.4194 87.034 27.2667C86.8851 27.1129 86.7148 26.9527 86.5424 26.7909L86.0508 26.3231L77.8821 18.1224L77.2845 17.4869ZM4.14914 30.9372C2.91854 30.1044 2.29734 29.3727 2.07564 28.7103C1.84966 28.0339 2.03334 27.435 2.4082 26.8774C2.69041 26.4602 3.06366 26.1199 3.43156 25.7833L3.43584 25.779C3.57775 25.65 3.7202 25.5199 3.87068 25.3688L13.994 15.2052C15.4201 13.7734 16.2121 13.1347 16.8027 13.0126C17.425 12.8841 17.8009 13.2944 18.4007 13.9508C18.5367 14.1003 18.6942 14.2718 18.8811 14.4487C19.0685 14.6256 19.2886 14.8105 19.5531 14.9879L20.2884 15.482L17.1096 18.6939C12.976 22.8704 8.84183 27.0484 4.7034 31.2195L4.64824 31.2748L4.14861 30.9372H4.14914ZM3.61899 27.6968C3.49314 27.885 3.44495 28.0995 3.55687 28.3635C3.67254 28.6377 3.95368 28.9657 4.47848 29.371L18.0473 15.6686C17.9086 15.5466 17.7859 15.4283 17.6762 15.3164C17.5444 15.1826 17.4298 15.0578 17.3259 14.9439C17.1364 14.7363 17.0164 14.6062 16.761 14.7245C16.4552 14.8664 15.9625 15.3057 15.0275 16.2444L4.90421 26.4081C4.76659 26.5463 4.59308 26.7049 4.42011 26.8624C4.26267 27.0065 4.10416 27.1506 3.966 27.2898C3.82837 27.4285 3.70574 27.5662 3.61845 27.6974L3.61899 27.6968ZM11.2554 16.3751C11.1477 16.303 11.0476 16.2294 10.956 16.1595L10.7145 15.9692C10.5812 15.8616 10.4794 15.7804 10.3316 15.7283C10.1801 15.6745 9.97122 15.6471 9.61939 15.6471C9.3013 15.6471 8.90341 15.9057 8.50232 16.2541C8.09158 16.6116 7.67709 17.0654 7.33811 17.4364L7.07625 17.7246L6.86097 17.9515C6.56537 18.2482 6.22211 18.5638 5.91847 18.8434L5.90616 18.8552C5.45793 19.2665 5.11895 19.5778 4.89725 19.9472C4.67769 20.3123 4.56631 20.744 4.56631 21.4042C4.56631 21.5569 4.60004 21.6677 4.65092 21.7585C4.70393 21.8521 4.78105 21.9333 4.86191 22.0177C4.92778 22.0865 4.99632 22.158 5.07129 22.2456C5.14412 22.33 5.21856 22.4252 5.29192 22.5349L5.56343 22.9413L5.29192 23.3494C5.01025 23.772 4.68733 24.1441 4.34996 24.4855C4.01259 24.8274 3.66183 25.1376 3.31964 25.4398C2.37714 26.2731 1.50425 27.0446 1.50425 28.0667C1.50425 29.071 2.15597 29.7065 2.77234 30.3071C2.94906 30.4791 3.12364 30.649 3.2934 30.8329C3.46101 31.0141 3.61952 31.206 3.76036 31.4173L4.16521 32.0254L3.56062 32.4329C3.37426 32.5582 3.16648 32.7216 2.95442 32.9093C2.74128 33.0975 2.52333 33.3104 2.31716 33.5313C2.16079 33.6996 2.01299 33.8701 1.88339 34.0351C1.7704 34.1787 1.66651 34.3217 1.57762 34.4604C1.63385 34.5706 1.70989 34.6867 1.79718 34.8061C1.89892 34.9437 2.01888 35.0868 2.14579 35.2282C2.33001 35.4308 2.53029 35.6287 2.72147 35.8077C2.91693 35.9911 3.09793 36.1497 3.24413 36.276C3.41549 36.4233 3.57293 36.4271 3.72341 36.3577C3.8921 36.2803 4.06346 36.1126 4.23697 35.9422C4.34889 35.8325 4.46188 35.7217 4.57755 35.6185C4.69697 35.512 4.82389 35.4093 4.96151 35.3169L5.56718 34.9099L5.97256 35.5174C6.69229 36.5959 6.70675 37.0551 6.63392 37.3481C6.67087 37.3588 6.7121 37.3825 6.75762 37.425L17.7361 48.3284L12.2397 55.5001L10.8371 57.3179C9.65259 58.848 7.99037 60.9948 6.59857 62.8201C5.19553 64.6605 4.03883 66.2089 3.85247 66.5595C3.22485 67.7374 3.00957 68.6208 3.08562 69.2773C3.15952 69.9165 3.51617 70.3434 4.03454 70.6219C5.51684 71.4182 8.21207 71.3284 10.1008 71.2655L10.164 71.2633C10.6374 71.2483 11.0631 71.2337 11.3218 71.2337H27.6463L27.7025 71.9074C27.7159 72.0644 27.7845 72.3037 27.8835 72.5843C27.9848 72.8687 28.1202 73.1978 28.2638 73.5268C28.4164 73.8757 28.5786 74.2241 28.7254 74.529L29.1725 75.4322C29.4092 75.9027 29.6823 76.4435 29.9795 76.8618C30.265 77.2634 30.5729 77.5538 30.8883 77.5538H60.1529C60.4684 77.5538 60.7763 77.2634 61.0617 76.8613C61.3594 76.4425 61.632 75.9016 61.8687 75.4311L62.3159 74.5284C62.4621 74.2236 62.6249 73.8757 62.7769 73.5263C62.9205 73.1967 63.0559 72.8682 63.1572 72.5838C63.2568 72.3031 63.3248 72.0644 63.3376 71.9069L63.3928 71.2327H79.7189C80.1184 71.2327 80.6952 71.2483 81.2906 71.2639L81.3892 71.2665C83.3979 71.3214 85.5962 71.3816 86.7164 70.8106C87.516 70.4031 87.8683 69.8283 87.9235 69.1703C87.9797 68.4993 87.7339 67.7331 87.3425 66.9595C86.6463 65.582 85.503 64.1605 84.6296 63.075L84.5535 62.9809C84.3115 62.6798 84.0898 62.404 83.905 62.1604L78.7791 55.528C78.4492 55.1124 78.2023 54.7839 77.9592 54.4597L77.5067 53.8576L77.0858 53.3156C76.2804 52.2586 75.4257 51.1269 74.5737 49.9989L73.3078 48.3241L84.1883 37.5148C84.2713 37.4304 84.3398 37.3895 84.3955 37.3717C84.3682 37.2406 84.3538 37.0771 84.4095 36.8384C84.4785 36.5443 84.6595 36.1314 85.0687 35.5174L85.4735 34.9093L86.0797 35.3169C86.6313 35.6873 86.9799 36.0206 87.2429 36.2723L87.2461 36.2749C87.3676 36.3922 87.4324 36.4524 87.6118 36.3379C87.8453 36.1884 88.2459 35.8018 89.0384 35.0228C89.2858 34.7798 89.3935 34.6018 89.4074 34.4582C89.4192 34.3265 89.3463 34.212 89.2301 34.0926L89.0116 33.8819L88.7589 33.6566C88.5275 33.4523 88.2748 33.2297 88.0226 32.9706C87.7693 32.7109 87.5149 32.413 87.2803 32.0614L86.8744 31.4533L87.4801 31.0463C87.7248 30.8818 88.0231 30.6367 88.3171 30.3377C88.564 30.0866 88.8092 29.7963 89.017 29.4829C89.1782 29.2409 89.3153 28.9877 89.4074 28.7345C89.4888 28.5108 89.5364 28.2855 89.5364 28.0678C89.5364 27.6135 89.4127 27.2715 89.2253 26.9844C89.0347 26.6936 88.7728 26.45 88.5051 26.2027L88.4943 26.1925C88.3487 26.0575 88.2014 25.921 88.0916 25.8108C87.8223 25.5403 87.6643 25.3909 87.501 25.2349L87.4817 25.2167C87.1684 24.921 86.8391 24.6086 86.536 24.2935C86.2318 23.9774 85.9544 23.658 85.7488 23.35L85.4762 22.9424L85.7488 22.5349C85.8473 22.3881 85.9362 22.2698 86.0155 22.173C86.0974 22.0725 86.167 21.9956 86.2297 21.9268C86.3137 21.8338 86.3753 21.7666 86.4133 21.6198C86.4546 21.4591 86.4744 21.1999 86.4744 20.7214C86.4744 20.0708 85.4221 19.1031 84.6933 18.4326L84.1792 17.9525L83.8413 17.5971L83.4787 17.1987C82.743 16.3885 82.0714 15.6482 81.0807 15.6482C80.7696 15.6482 80.5763 15.796 80.3824 15.945C80.2496 16.0466 80.1147 16.1503 79.9599 16.2407C79.8008 16.3331 79.6198 16.4165 79.3944 16.4767L79.0774 16.5611L78.8032 16.3767C78.0208 15.8509 77.4741 15.2035 76.9471 14.5761L76.9412 14.5691C76.5439 14.0971 76.1567 13.6368 75.6854 13.2971C75.2212 12.9632 74.6696 12.7444 73.9343 12.7444C73.5027 12.7444 73.1546 12.8847 72.8499 13.0922C72.5393 13.304 72.2694 13.5901 72.0043 13.8707L72.0017 13.8739C71.6755 14.2191 71.3515 14.5611 70.9376 14.8396L70.5311 15.1116L70.1263 14.8396C69.7734 14.6025 69.4483 14.2514 69.1056 13.8815C68.8491 13.6046 68.5797 13.3126 68.3248 13.0976C68.0785 12.8895 67.8418 12.7449 67.6394 12.7449C67.6324 12.7449 67.5564 12.8331 67.4096 12.9729C67.2292 13.1433 66.9786 13.389 66.7188 13.6497C66.4591 13.9105 66.2144 14.1616 66.0446 14.3422C65.9065 14.4901 65.8181 14.5659 65.8181 14.5729C65.8181 14.7369 65.8733 14.8734 65.9568 14.9966C66.0446 15.1267 66.1678 15.2476 66.2926 15.3697C66.4945 15.5675 66.6985 15.7675 66.8832 16.0444L67.1542 16.452L66.8832 16.8595C66.1191 18.0058 65.7785 18.0832 65.3934 17.8246C65.3212 17.7756 65.251 17.717 65.176 17.6509L63.8603 18.9751L63.2166 19.6445C62.8696 20.0112 62.4878 20.4133 62.1156 20.7762C61.7429 21.1402 61.3782 21.465 61.0687 21.673L60.0373 22.3661L59.9344 21.1257C59.9071 20.7956 59.7909 20.501 59.6083 20.244C59.4059 19.9574 59.1215 19.7139 58.7874 19.5128C58.3606 19.2558 57.8556 19.0638 57.326 18.9343C56.7465 18.7929 56.135 18.7246 55.5577 18.7246H35.4809C34.917 18.7246 34.3332 18.7816 33.7811 18.9074C33.282 19.0208 32.8065 19.1913 32.3947 19.4257C32.0573 19.6176 31.7612 19.8558 31.5331 20.1418C31.3242 20.4042 31.1694 20.7101 31.088 21.0612L30.9167 21.7978L30.1889 21.6026C29.4531 21.4053 28.4646 20.3305 27.5376 19.3214L27.5344 19.3176C27.2217 18.9773 26.9159 18.6445 26.6529 18.3773C26.3927 18.1133 26.1721 17.909 26.0253 17.8213L25.8047 17.6934C25.5412 17.8192 25.3361 17.9165 25.0748 17.8187C24.8317 17.7278 24.5564 17.4584 24.1575 16.8606L23.8849 16.4525L24.1575 16.046C24.3251 15.795 24.4895 15.5853 24.6416 15.4089C24.7958 15.2299 24.9334 15.0879 25.0528 14.9648C25.1551 14.8594 25.2167 14.7944 25.1573 14.6707C25.0743 14.4992 24.8215 14.2202 24.2881 13.6847L24.0118 13.3788C23.7746 13.1089 23.4549 12.7465 23.4019 12.7465C23.1994 12.7465 22.9633 12.8906 22.7169 13.0992C22.462 13.3148 22.1927 13.6057 21.9378 13.8809L21.9335 13.8858C21.5913 14.2546 21.2678 14.6046 20.9149 14.8412L20.5085 15.1138L20.1036 14.8412C19.7684 14.6154 19.5076 14.3971 19.2913 14.1906C19.0765 13.9852 18.9041 13.7885 18.745 13.6078C18.299 13.1008 17.9873 12.7465 16.4257 12.7465C16.0798 12.7465 15.6268 13.0352 15.1421 13.446C14.6468 13.8659 14.1172 14.4164 13.6309 14.9224L13.6272 14.9267C13.0531 15.5234 12.5272 16.0702 12.0678 16.3783L11.6613 16.6503L11.2565 16.3783L11.2554 16.3751ZM66.058 16.5971C66.0816 16.6219 66.0784 16.6186 66.058 16.5971V16.5971Z" fill="#CCCCCC"/>
</svg>
