<svg width="26" height="26" viewBox="0 0 26 26" fill="none" xmlns="http://www.w3.org/2000/svg">
<path d="M13 26C20.1797 26 26 20.1797 26 13C26 5.8203 20.1797 0 13 0C5.8203 0 0 5.8203 0 13C0 20.1797 5.8203 26 13 26Z" fill="#FF0000"/>
<path d="M15 20.2887C15 20.5519 14.9474 20.815 14.8421 21.0782C14.7368 21.3413 14.5789 21.5519 14.4211 21.7098C14.2632 21.8677 14 22.0255 13.7895 22.1308C13.5263 22.2361 13.3158 22.2887 13 22.2887C12.7368 22.2887 12.4737 22.2361 12.2105 22.1308C11.9474 22.0255 11.7368 21.8677 11.5789 21.7098C11.4211 21.5519 11.2632 21.3413 11.1579 21.0782C11.0526 20.815 11 20.5519 11 20.2887C11 20.0256 11.0526 19.7624 11.1579 19.4992C11.2632 19.2361 11.4211 19.0256 11.5789 18.8677C11.7368 18.6571 12 18.5519 12.2105 18.4466C12.4737 18.3413 12.7368 18.2887 13 18.2887C13.2632 18.2887 13.5263 18.3413 13.7895 18.4466C14.0526 18.5519 14.2632 18.7098 14.4211 18.8677C14.5789 19.0256 14.7368 19.2887 14.8421 19.4992C14.9474 19.7624 15 20.0256 15 20.2887ZM11.5263 4.47368C11.5263 4.05263 11.6842 3.68421 11.9474 3.42105C12.2105 3.15789 12.5789 3 13 3C13.4211 3 13.7895 3.15789 14.0526 3.42105C14.3158 3.68421 14.4737 4.05263 14.4737 4.47368V14.5519C14.4737 14.7624 14.4211 14.9203 14.3684 15.1308C14.2632 15.2887 14.1579 15.4466 14.0526 15.6045C13.9474 15.7624 13.7895 15.8677 13.5789 15.9203C13.4211 15.9729 13.2105 16.0255 13 16.0255C12.7895 16.0255 12.5789 15.9729 12.4211 15.9203C12.2632 15.8677 12.1053 15.7624 11.9474 15.6045C11.7895 15.4466 11.7368 15.2887 11.6316 15.1308C11.5789 14.9729 11.5263 14.7624 11.5263 14.5519V4.47368Z" fill="white"/>
</svg>
