<svg width="24" height="12" viewBox="0 0 24 12" fill="none" xmlns="http://www.w3.org/2000/svg">
<path fill-rule="evenodd" clip-rule="evenodd" d="M2.74072 5.10972C2.66437 5.28902 2.25677 5.6252 1.99734 5.83883L1.83441 5.975L1.36777 6.38409L0.894318 6.79063L0.747285 6.91205C0.491541 7.12029 0.182435 7.37193 0.0734392 7.65591C-0.03357 7.93422 -0.0168241 8.19323 0.0796829 8.40657C0.152915 8.56942 0.273266 8.70673 0.418595 8.80716C0.565058 8.90844 0.73792 8.97312 0.916174 8.98901C1.15858 9.01057 1.41318 8.94276 1.62834 8.75751L1.97377 8.45168C2.16906 8.27664 2.36662 8.09905 2.56871 7.93819L4.4489 6.26749L4.49573 6.27487C4.68903 6.30494 4.92462 6.42778 5.12672 6.53303C5.20137 6.5719 5.27205 6.6085 5.33705 6.638C5.87323 6.88085 6.92686 7.20284 7.52889 7.38668C7.79485 7.46782 7.97708 7.52371 8.00631 7.54243L8.05599 7.5742L8.05258 7.63236C8.03073 7.98528 7.88455 8.53708 7.72985 9.12149C7.49426 10.0117 7.23738 10.9826 7.37845 11.3777C7.43465 11.5349 7.54649 11.6878 7.69295 11.8019C7.82693 11.906 7.99099 11.9789 8.16924 11.9942C9.11359 12.0751 9.26602 11.2918 9.38722 10.6642L9.44427 10.3865L9.53084 9.99925C9.68384 9.30958 9.94696 8.12571 10.0545 7.8684L10.0781 7.81166L10.1388 7.80655C10.4508 7.78045 10.9353 7.79606 11.4017 7.81109C11.7014 7.82045 11.994 7.8301 12.2248 7.82783C12.6225 7.82414 13.0224 7.77223 13.4158 7.72144C13.6701 7.68854 13.9228 7.65563 14.1632 7.63662L14.2276 7.63123L14.2588 7.68825C14.4521 8.03975 14.7493 8.72346 15.0397 9.39157C15.3366 10.0756 15.6275 10.7445 15.789 11.0163C15.8779 11.1655 16.0337 11.3091 16.2284 11.3956C16.3925 11.4682 16.5852 11.5006 16.7896 11.4606C16.9818 11.4231 17.1455 11.3431 17.275 11.2268C17.405 11.1099 17.5026 10.9545 17.5605 10.7684C17.6803 10.3848 17.5029 10.0254 17.3479 9.71187L17.271 9.55356L16.2114 7.16483L16.3025 7.12426C16.4524 7.05702 16.6204 6.99716 16.7893 6.93674C16.9298 6.88595 17.0731 6.83489 17.2009 6.78155C18.0973 6.40764 18.4444 6.18352 19.0359 5.80194L19.6348 5.42065L19.6885 5.4564C19.8704 5.57782 20.4654 6.1072 21.0674 6.64254C21.6873 7.19377 22.3157 7.75265 22.4889 7.86528C22.7015 8.00344 22.9325 8.04571 23.1474 8.01507C23.3311 7.98897 23.5045 7.90897 23.6456 7.79123C23.7869 7.67322 23.8973 7.51633 23.9547 7.33618C24.0228 7.12398 24.0191 6.87631 23.9095 6.61814C23.8028 6.36565 22.7086 5.44136 22.0555 4.88986L21.517 4.43055C21.395 4.32814 21.2743 4.226 21.1912 4.13409L21.1415 4.07933L21.179 4.01635C21.2661 3.86883 21.3768 3.73719 21.4923 3.59903C21.5837 3.49009 21.6791 3.37605 21.7654 3.25207L21.7855 3.22313C21.9669 2.96156 22.14 2.71163 22.3112 2.40892C22.5664 1.95756 22.607 1.57967 22.517 1.29342C22.4645 1.12632 22.3663 0.988729 22.2408 0.886029C22.1139 0.782196 21.9587 0.713257 21.7943 0.683469C21.5054 0.630984 21.186 0.698221 20.9326 0.905604C20.8278 0.990997 20.714 1.20661 20.6039 1.41513C20.5406 1.53485 20.4779 1.65315 20.4168 1.74847C19.9825 2.4231 19.7206 2.68382 19.227 3.17604L19.1165 3.2864C18.7311 3.67166 18.129 4.09749 17.4603 4.4697C16.816 4.82886 16.1064 5.14036 15.4657 5.32108C13.1606 5.97131 10.49 6.08876 8.07302 5.49215C5.95809 4.97043 4.03619 3.90117 2.72 2.16522C2.62406 2.03841 2.52472 1.90195 2.42878 1.75528C2.33369 1.60917 2.24258 1.45314 2.16338 1.28831C1.97094 0.888015 1.6729 0.694817 1.36976 0.657085C1.21535 0.637794 1.05838 0.657936 0.914754 0.710421C0.770277 0.763188 0.636587 0.848581 0.528726 0.959507C0.313289 1.18051 0.198331 1.50591 0.290297 1.87812C0.359271 2.15671 0.572438 2.52949 0.833859 2.90851C1.21052 3.45406 1.68426 4.00727 1.98712 4.327C2.10122 4.44757 2.2193 4.54715 2.3371 4.64701C2.46114 4.75198 2.58716 4.85837 2.72085 5.00078L2.76542 5.04844L2.74015 5.10859L2.74072 5.10972Z" fill="#6D6D6D"/>
</svg>
