<svg width="22" height="14" viewBox="0 0 22 14" fill="none" xmlns="http://www.w3.org/2000/svg">
<path fill-rule="evenodd" clip-rule="evenodd" d="M10.0983 7.91611C8.47344 8.16608 7.04577 9.56565 7.39078 11.4344C7.66112 12.8983 9.19703 14.2005 11.1706 13.9024C12.7557 13.6631 14.1786 12.2164 13.8459 10.4043C13.5708 8.90791 12.0367 7.61771 10.0983 7.91611Z" fill="#6D6D6D"/>
<path fill-rule="evenodd" clip-rule="evenodd" d="M2.51233 6.32406C2.44234 6.1595 2.06871 5.85094 1.83089 5.65487L1.68154 5.52989L1.25379 5.15441L0.819791 4.78128L0.685011 4.66984C0.45058 4.47872 0.167232 4.24776 0.0673193 3.98711C-0.0307725 3.73167 -0.0154221 3.49394 0.0730427 3.29813C0.140172 3.14867 0.250494 3.02264 0.383712 2.93047C0.51797 2.83751 0.676427 2.77814 0.839826 2.76356C1.06203 2.74377 1.29542 2.80601 1.49264 2.97604L1.80929 3.25673C1.9883 3.41739 2.1694 3.58039 2.35465 3.72803L4.07816 5.26143L4.12109 5.25466C4.29828 5.22706 4.51424 5.11432 4.69949 5.01771C4.76792 4.98204 4.83271 4.94845 4.89229 4.92137C5.38379 4.69848 6.34962 4.40294 6.90148 4.23422C7.14528 4.15975 7.31232 4.10845 7.33912 4.09126L7.38465 4.0621L7.38153 4.00872C7.3615 3.6848 7.2275 3.17836 7.0857 2.64196C6.86974 1.82488 6.63427 0.933839 6.76358 0.571124C6.8151 0.42687 6.91762 0.286523 7.05187 0.181848C7.17468 0.0862873 7.32507 0.0193684 7.48847 0.00530763C8.35413 -0.068902 8.49385 0.65002 8.60495 1.22599L8.65725 1.48091L8.73661 1.83633C8.87685 2.46933 9.11804 3.55591 9.21666 3.79208L9.23825 3.84416L9.29393 3.84885C9.57988 3.8728 10.024 3.85848 10.4515 3.84468C10.7263 3.83609 10.9945 3.82723 11.2061 3.82932C11.5706 3.8327 11.9372 3.88035 12.2978 3.92696C12.531 3.95717 12.7625 3.98737 12.9829 4.00482L13.042 4.00976L13.0706 3.95743C13.2478 3.63481 13.5202 3.00728 13.7864 2.39408C14.0585 1.76629 14.3252 1.1523 14.4733 0.902853C14.5547 0.765891 14.6976 0.634137 14.8761 0.554719C15.0264 0.488061 15.2031 0.458377 15.3905 0.495091C15.5666 0.529462 15.7167 0.60289 15.8354 0.709648C15.9545 0.816927 16.0441 0.959617 16.0971 1.13043C16.2069 1.48247 16.0443 1.81238 15.9022 2.1001L15.8317 2.2454L14.8604 4.43784L14.944 4.47507C15.0813 4.53678 15.2354 4.59172 15.3902 4.64719C15.519 4.69379 15.6504 4.74066 15.7675 4.78962C16.5892 5.1328 16.9074 5.33851 17.4496 5.68872L17.9986 6.03868L18.0478 6.00587C18.2146 5.89443 18.7599 5.40855 19.3118 4.9172C19.88 4.41128 20.4561 3.89832 20.6148 3.79495C20.8097 3.66814 21.0215 3.62934 21.2185 3.65746C21.3868 3.68142 21.5458 3.75485 21.6751 3.86291C21.8047 3.97123 21.9059 4.11522 21.9584 4.28056C22.0209 4.47533 22.0175 4.70265 21.9171 4.9396C21.8192 5.17134 20.8162 6.01967 20.2175 6.52586L19.7239 6.94742C19.612 7.04142 19.5015 7.13516 19.4252 7.21952L19.3797 7.26978L19.414 7.32758C19.4939 7.46298 19.5954 7.5838 19.7013 7.71061C19.7851 7.8106 19.8725 7.91527 19.9516 8.02906L19.9701 8.05562C20.1363 8.2957 20.295 8.52509 20.4519 8.80292C20.6859 9.2172 20.7231 9.56403 20.6406 9.82676C20.5924 9.98012 20.5024 10.1064 20.3874 10.2007C20.2711 10.296 20.1288 10.3592 19.9781 10.3866C19.7133 10.4348 19.4205 10.373 19.1882 10.1827C19.0922 10.1043 18.9879 9.90643 18.8869 9.71505C18.8289 9.60517 18.7714 9.49659 18.7154 9.4091C18.3173 8.7899 18.0772 8.55061 17.6247 8.09884L17.5235 7.99755C17.1702 7.64395 16.6183 7.25311 16.0053 6.91149C15.4147 6.58184 14.7642 6.29594 14.1769 6.13008C12.0639 5.53327 9.61579 5.42547 7.40027 5.97306C5.46159 6.45191 3.69984 7.4333 2.49334 9.02659C2.40539 9.14299 2.31432 9.26823 2.22638 9.40285C2.13922 9.53695 2.0557 9.68016 1.9831 9.83144C1.80669 10.1988 1.53349 10.3762 1.25561 10.4108C1.11407 10.4285 0.970181 10.41 0.838524 10.3618C0.706087 10.3134 0.583538 10.235 0.484666 10.1332C0.287181 9.93039 0.181803 9.63173 0.266105 9.2901C0.329331 9.03441 0.524735 8.69226 0.764371 8.34439C1.10964 7.84367 1.5439 7.33592 1.82152 7.04246C1.92612 6.9318 2.03436 6.8404 2.14234 6.74875C2.25604 6.65241 2.37157 6.55476 2.49412 6.42405L2.53496 6.38031L2.51181 6.3251L2.51233 6.32406Z" fill="#6D6D6D"/>
</svg>
