<svg width="28" height="28" viewBox="0 0 28 28" fill="none" xmlns="http://www.w3.org/2000/svg">
<path fill-rule="evenodd" clip-rule="evenodd" d="M7.25715 13.0628C8.16134 16.2908 11.1263 19.4737 14.2877 20.6404C15.2377 20.9892 15.6466 19.6361 16.797 18.8483C17.9023 18.0836 20.6864 21.4413 21.2532 22.2978C21.627 22.8636 21.637 23.1476 21.4297 23.4774C20.7563 24.5459 19.5414 25.6515 18.4552 26.2487C16.2361 26.9852 11.6598 25.2292 8.45831 22.4319C6.8398 21.0029 5.69957 19.7956 4.4124 18.0651C1.85959 14.6631 1.09748 10.6631 1.99598 8.48916C2.68012 7.4502 3.87031 6.31346 4.98283 5.73343C5.32934 5.54674 5.6085 5.5786 6.15491 5.99444C6.95977 6.62359 10.1063 9.65504 9.25148 10.7028C8.37793 11.7908 6.98701 12.0846 7.27111 13.0643L7.25715 13.0628Z" stroke="#FFED00" stroke-width="1.5" stroke-miterlimit="22.9256" stroke-linecap="round" stroke-linejoin="round"/>
<path d="M22.6574 11.7757L15.6435 11.163L16.2449 4.10236" stroke="#FFED00" stroke-width="1.5" stroke-miterlimit="22.9256" stroke-linecap="round" stroke-linejoin="round"/>
<line x1="23.719" y1="4.24805" x2="18.4851" y2="8.64131" stroke="#FFED00" stroke-width="1.5" stroke-linecap="round"/>
</svg>
