<svg width="80" height="92" viewBox="0 0 80 92" fill="none" xmlns="http://www.w3.org/2000/svg">
<path d="M72.4967 63.1901V63.082C72.513 61.7285 72.5247 60.7486 72.499 60.0436C72.4756 59.3504 72.4171 58.9251 72.2931 58.6689C72.2323 58.542 72.1129 58.4434 71.9328 58.3517C71.7386 58.253 71.4742 58.1567 71.1349 58.0368L70.5874 57.8371C70.3861 57.7619 70.1638 57.675 69.9205 57.5739L69.4783 57.3906C69.4666 56.4906 69.4502 55.5859 69.4502 54.6859L69.5531 54.512C69.7801 54.1314 70.0188 53.9011 70.2528 53.7483C70.4867 53.5956 70.716 53.5204 70.9337 53.4499C71.0764 53.4029 71.2098 53.3606 71.3034 53.1068C71.4086 52.8201 71.4718 52.2844 71.4648 51.2551L71.4625 33.9625L72.1948 33.9766C73.0442 33.9931 73.4794 34.12 73.7087 34.3103C73.9544 34.5147 73.9661 34.7756 73.9755 35.0529C73.9755 35.0952 73.9755 34.9753 74.2258 34.9777C74.5674 34.9824 75.2507 34.9871 76.6125 34.9918C77.0383 34.9918 77.3799 34.973 77.642 34.9236C77.8924 34.8743 78.0679 34.7991 78.1802 34.6863C78.2948 34.5711 78.372 34.3902 78.4235 34.1364C78.4773 33.8709 78.5007 33.5231 78.5054 33.0907L78.5241 31.8124C78.5686 29.0842 78.6552 23.8511 78.358 22.9746C77.9977 21.9125 78.124 21.6281 78.3323 21.1535C78.4727 20.8362 78.6809 20.3639 78.4844 18.4276C78.365 17.2433 77.5274 17.248 76.2334 17.2527H75.8029C75.3489 17.2527 74.9582 17.255 74.6423 17.2856C74.3358 17.3138 74.0971 17.3678 73.9357 17.4642C73.8117 17.537 73.7157 17.6663 73.6479 17.866C73.573 18.0798 73.5285 18.3759 73.5098 18.773C73.435 20.3757 73.69 21.2451 73.8327 21.7245L73.8351 21.7315C73.8795 21.8796 73.9146 22.0065 73.938 22.1263C73.9614 22.2508 73.9661 22.3707 73.9474 22.4976C73.8865 22.89 73.7462 23.0897 73.4654 23.1955C73.2056 23.2942 72.8266 23.3012 72.2674 23.3106L71.4695 23.3247C71.4695 22.8242 71.5139 22.1286 71.4695 21.6587C71.4742 17.6804 71.4788 13.9417 70.5616 10.1585C70.3651 9.35012 70.1545 8.52062 69.8924 7.72402C69.6327 6.92976 69.3215 6.16841 68.9261 5.494C68.5517 4.85484 68.0978 4.28382 67.5292 3.82795C66.9629 3.37208 66.2797 3.029 65.4514 2.84336C63.4461 2.39454 59.9948 2.05146 55.7854 1.81882C51.1689 1.56269 45.6398 1.43579 40.1061 1.43579C34.556 1.43579 29.0012 1.56974 24.3542 1.82822C20.105 2.06556 16.6163 2.40864 14.59 2.85746C14.1314 2.9585 13.736 3.08539 13.3944 3.24049C13.0527 3.39323 12.7579 3.57417 12.5029 3.78095C12.2455 3.99009 12.0162 4.23448 11.8056 4.51176C11.595 4.79139 11.3985 5.10627 11.2042 5.4611C9.90329 7.84151 9.25047 10.6402 8.92289 13.5282C8.59532 16.4232 8.59298 19.4075 8.59064 22.1498V23.5057L6.27886 23.0498L6.17825 22.5775C6.12443 22.319 6.19463 21.9454 6.28822 21.4378L6.29056 21.4213C6.45201 20.5519 6.70706 19.189 6.49647 18.1503C6.3046 17.2127 5.4412 17.2268 4.30871 17.2456L3.64887 17.2527C3.20664 17.2527 2.84162 17.2644 2.55148 17.3044C2.27304 17.3443 2.06713 17.4078 1.93142 17.5135C1.81209 17.6052 1.72551 17.7579 1.66467 17.9858C1.59916 18.2255 1.56406 18.5498 1.55236 18.9657L1.55002 19.0198C1.53832 19.431 1.52662 19.7999 1.54534 20.1571C1.56406 20.5119 1.6132 20.855 1.71849 21.2122C2.06479 22.3848 2.03905 22.4224 1.76529 22.8289C1.73019 22.8806 1.67169 22.9675 1.59916 23.36C1.55236 23.6161 1.51726 24.0602 1.49387 24.6242C1.46579 25.2681 1.45175 26.0647 1.44707 26.9153C1.44239 28.008 1.45175 29.1923 1.47047 30.2709C1.49387 31.6385 1.52896 32.8369 1.55704 33.4667C1.57342 33.8662 1.62022 34.1646 1.69275 34.3785C1.76061 34.5805 1.85654 34.7074 1.97821 34.7803C2.13966 34.8766 2.37833 34.9283 2.68485 34.9565C3.00073 34.9847 3.39149 34.9871 3.84776 34.9871L4.4491 35.0035C4.73456 35.0153 5.0364 35.027 5.30782 35.0153C5.56989 35.0035 5.80387 34.9683 5.96766 34.8837C6.08231 34.8249 6.13847 34.792 6.16655 34.7709L6.16889 34.7756C6.23909 34.5171 6.29056 34.3221 6.53157 34.1834C6.75385 34.0542 7.13525 33.986 7.85826 33.9743L8.59064 33.9602L8.5883 51.2481C8.58596 51.7533 8.5883 52.1598 8.61403 52.4841C8.63977 52.7966 8.68891 53.0246 8.77782 53.1867C8.8527 53.323 8.98373 53.4382 9.18964 53.5486C9.40724 53.6637 9.70207 53.7765 10.0975 53.8987L10.6216 54.0609C10.5865 55.17 10.5561 56.2791 10.5304 57.3883L10.1022 57.5692C9.83544 57.682 9.58273 57.7783 9.34875 57.8629L8.70997 58.0838C8.21158 58.2507 7.92378 58.3494 7.77403 58.6619C7.61492 58.9932 7.58216 59.5807 7.58684 60.7321C7.58918 61.517 7.58684 62.4499 7.57748 63.4744L7.54238 66.8088C7.48389 72.002 7.41369 78.0999 7.66171 80.6119C7.71085 81.1242 7.77637 81.5777 7.8606 81.996C7.9425 82.4119 8.04311 82.7902 8.16478 83.1498C8.28646 83.5093 8.43153 83.8547 8.6 84.2025C8.7708 84.555 8.96735 84.9098 9.19198 85.2881C9.68803 86.12 9.64357 87.1257 9.59677 88.1197V88.1244C9.57337 88.6273 9.54998 89.1278 9.62017 89.5367C9.68569 89.9244 9.83544 90.2322 10.1513 90.3779C10.6193 90.5941 13.4669 90.5424 15.196 90.5119L15.2733 90.5095C15.7108 90.5025 16.0758 90.4954 16.3192 90.4954C17.1802 90.4978 17.6576 90.3521 17.9149 90.063C18.17 89.7764 18.2191 89.3299 18.2215 88.7401L18.2027 87.1751V86.4466H61.855V87.1727L61.8386 88.7518C61.8433 89.3722 61.8971 89.814 62.1756 90.0889C62.4587 90.3685 62.9852 90.4954 63.9375 90.4884L64.485 90.4931L65.187 90.5095C66.8927 90.5518 69.4853 90.6129 69.9696 90.3286C70.5523 89.9879 70.5078 89.0738 70.461 88.1338V88.1291C70.4353 87.6121 70.4119 87.0881 70.4633 86.5829C70.5172 86.0683 70.6529 85.5725 70.9524 85.1236C71.3057 84.5902 71.5912 83.9393 71.8158 83.2085C72.0427 82.473 72.2112 81.6482 72.3329 80.7717C72.4592 79.8623 72.5411 78.8942 72.5856 77.9025C72.6324 76.9085 72.6441 75.8864 72.6394 74.8712C72.63 73.3791 72.5996 71.8751 72.5692 70.3736L72.5669 70.2396C72.5435 69.0647 72.5271 67.8898 72.5154 66.7149C72.5037 65.5164 72.4967 64.3391 72.499 63.1877L72.4967 63.1901ZM6.17357 34.7779V34.7826V34.7779ZM25.2808 71.9315C24.7099 71.9315 24.3355 71.6989 24.1694 71.4005C24.1039 71.283 24.0688 71.1537 24.0688 71.0245C24.0688 70.8953 24.1015 70.766 24.167 70.6485C24.3308 70.3571 24.7005 70.1292 25.2785 70.1292H54.7746C55.2449 70.1292 55.5515 70.2537 55.734 70.437C55.851 70.5545 55.9165 70.6979 55.9375 70.8459C55.9586 70.9892 55.9399 71.142 55.8907 71.283C55.7995 71.5438 55.6029 71.7741 55.369 71.8657C54.8191 72.0725 28.3179 71.9268 25.2808 71.9315ZM60.7296 72.7657C59.7679 72.7657 59.1806 72.5754 58.8296 72.2253C58.4763 71.8728 58.371 71.3699 58.371 70.7472C58.371 70.4699 58.4037 70.1503 58.4388 69.8049L58.4435 69.7603C58.4693 69.5112 58.4973 69.2457 58.5114 68.9778L59.0051 59.8909L59.0215 59.4585L59.0285 59.0731C59.0402 58.2084 59.0495 57.494 59.3397 56.9864C59.6345 56.4671 60.2054 56.1734 61.3309 56.1734C62.1124 56.1734 62.6272 56.1616 63.0671 56.1522L64.1832 56.1311C65.2525 56.1311 65.9193 56.211 66.3288 56.5517C66.743 56.8971 66.8763 57.4917 66.8763 58.5139V70.4229C66.8763 71.4428 66.7289 72.0396 66.2961 72.3898C65.8679 72.7352 65.1729 72.8198 64.0732 72.8198C63.8556 72.8198 63.4485 72.8104 62.9782 72.7986L62.8401 72.7963C62.2949 72.7822 61.6491 72.7657 60.7272 72.7657H60.7296ZM59.8194 70.7472C59.8194 70.9235 59.8545 71.0644 59.9738 71.1561C60.1048 71.2571 60.3388 71.3112 60.7296 71.3112C61.4643 71.3112 62.2434 71.33 62.9033 71.3464H62.9243C63.3034 71.3558 63.638 71.3629 64.0755 71.3629C64.6348 71.3629 64.9834 71.33 65.1823 71.196C65.3695 71.0691 65.4327 70.8342 65.4327 70.4229V58.5139C65.4327 58.1026 65.3765 57.8676 65.2057 57.7454C65.0255 57.6162 64.705 57.5857 64.1855 57.5857C63.7784 57.5857 63.4976 57.5927 63.1841 57.5998L63.1185 57.6021C62.5523 57.6139 61.8948 57.6303 61.3309 57.6303C60.9097 57.6303 60.6968 57.7642 60.5938 57.9992C60.4815 58.253 60.4769 58.6337 60.4698 59.0943L60.4628 59.529L60.4464 59.9708L59.9527 69.0577C59.9363 69.3608 59.9059 69.6404 59.8802 69.8989L59.8755 69.9389C59.8451 70.2349 59.817 70.5075 59.817 70.7496L59.8194 70.7472ZM13.4739 71.955C13.378 71.76 13.3054 71.1396 13.254 70.2584C13.1955 69.255 13.158 67.9015 13.1393 66.4517C13.1159 64.5671 13.1159 62.4898 13.1346 60.8214C13.1533 59.0872 13.1931 57.7854 13.2399 57.5786C13.4294 56.7515 14.0051 56.3661 14.7164 56.2016C15.409 56.0418 16.2303 56.0935 16.9509 56.1381L16.9767 56.1405C17.2645 56.1569 17.5336 56.1734 17.7184 56.1734L18.0998 56.1687C19.2721 56.1546 19.953 56.1452 20.3741 56.493C20.7953 56.8408 20.9287 57.5199 20.9965 58.8734C21.0176 59.3034 21.0784 60.1024 21.1486 61.0681L21.1603 61.2138C21.4551 65.1592 21.9395 71.6308 20.9778 72.3874C20.8117 72.5167 20.1589 72.6459 19.3165 72.7281C18.5373 72.8057 17.585 72.848 16.7052 72.8221C16.0103 72.8033 15.3341 72.7422 14.7819 72.6318C14.2929 72.5331 13.8951 72.3898 13.6611 72.1924L13.5441 72.0937L13.4739 71.9527V71.955ZM14.5807 66.4352C14.597 67.6407 14.6181 68.7639 14.6485 69.6334C14.6719 70.3407 14.7023 70.8812 14.7374 71.1537C14.8989 71.2101 15.1422 71.2571 15.437 71.29C15.8114 71.3347 16.2677 71.3629 16.745 71.3746C17.5078 71.3958 18.2963 71.3864 18.9234 71.3605C19.5739 71.3323 20.0372 71.29 20.091 71.2454C20.442 70.9681 19.9951 64.983 19.7213 61.3266L19.712 61.195C19.6418 60.2645 19.5833 59.4867 19.5575 58.9392C19.492 57.5974 19.2978 57.5998 18.1185 57.6139L17.7301 57.6186C17.4563 57.6209 17.1756 57.6021 16.8737 57.5857H16.8644C15.9354 57.5269 14.7515 57.4541 14.6485 57.9005C14.6111 58.0627 14.583 59.2917 14.569 60.953C14.5573 62.565 14.5573 64.5859 14.5807 66.4329V66.4352ZM25.0819 68.2987C24.5133 68.2987 24.139 68.0637 23.9728 67.7652C23.9073 67.6478 23.8722 67.5185 23.8722 67.3893C23.8722 67.26 23.905 67.1308 23.9705 67.0133C24.1343 66.7243 24.5016 66.4963 25.0819 66.4963H54.9782C55.4485 66.4963 55.7574 66.6209 55.9375 66.8042C56.0545 66.9216 56.12 67.065 56.1411 67.213C56.1622 67.3564 56.1434 67.5091 56.0943 67.6501C56.0031 67.9109 55.8065 68.1389 55.5702 68.2305C55.0133 68.4373 28.1588 68.2916 25.0819 68.2963V68.2987ZM24.8807 64.6658C24.3098 64.6658 23.9354 64.4331 23.7693 64.1347C23.7037 64.0172 23.6686 63.888 23.6686 63.7587C23.6686 63.6295 23.7014 63.5003 23.7669 63.3828C23.9307 63.0914 24.3004 62.8634 24.8783 62.8634H55.1771C55.6474 62.8634 55.9539 62.988 56.1364 63.1713C56.2534 63.2888 56.3189 63.4321 56.34 63.5801C56.3611 63.7258 56.3423 63.8762 56.2932 64.0172C56.2019 64.2781 56.0054 64.506 55.7714 64.5976C55.2075 64.8091 27.9974 64.6587 24.8783 64.6634L24.8807 64.6658ZM24.6795 61.0329C24.1109 61.0329 23.7365 60.7979 23.5704 60.4995C23.5049 60.382 23.4698 60.2527 23.4698 60.1235C23.4698 59.9943 23.5025 59.865 23.568 59.7475C23.7318 59.4585 24.0992 59.2306 24.6795 59.2306H55.3783C55.8486 59.2306 56.1575 59.3551 56.3377 59.5384C56.4546 59.6559 56.5202 59.7992 56.5412 59.9473C56.5623 60.0906 56.5436 60.2433 56.4944 60.3843C56.4032 60.6452 56.2043 60.8755 55.9703 60.9671C55.4672 61.1598 27.7821 61.0259 24.6771 61.0329H24.6795ZM12.8492 11.9256C13.8249 11.613 40.6326 11.7047 55.5678 11.754C58.3148 11.7117 61.2958 11.9091 64.003 11.7728C66.4973 11.7752 67.7655 11.7752 68.6172 12.5671C69.0548 12.9736 69.3051 13.5211 69.4712 14.3107C69.635 15.0885 69.7216 16.1013 69.8386 17.4571L69.8409 17.49C70.0749 20.2511 70.0375 24.791 70.0024 28.8116L69.9837 31.1826L69.9813 33.2881C69.9837 33.744 69.979 34.1905 69.9416 34.6111C69.9018 35.0388 69.8269 35.4406 69.6888 35.8048C69.5251 36.2348 69.2841 36.6038 68.9378 36.8834C68.5915 37.1607 68.1375 37.351 67.5479 37.4239C66.1674 37.5931 39.1889 37.5085 24.6093 37.4662L23.5002 37.4638C20.6994 37.4544 18.5584 37.4497 16.6795 37.4497C16.3379 37.4497 16.008 37.4662 15.664 37.4826L15.6313 37.485C14.1782 37.5531 12.4725 37.6354 11.4827 36.8787C10.8673 36.4064 10.5725 35.7555 10.4391 35.0223C10.3081 34.3033 10.3362 33.5067 10.3619 32.7336L10.3736 32.3341L10.3783 31.8782C10.3806 31.1639 10.3736 30.278 10.3689 29.2934L10.3666 29.1406C10.3362 24.9226 10.2917 18.9469 10.6614 16.1083L10.7222 15.596C10.9188 13.937 11.0896 12.4966 12.8492 11.9303V11.9256ZM55.5936 13.2015H55.4368C40.5437 13.1545 14.0425 13.0629 13.2844 13.3073C12.8538 13.4459 12.6082 13.7608 12.4537 14.1814C12.2946 14.6161 12.2268 15.1731 12.1589 15.7652L12.0934 16.2916C11.7377 19.0362 11.7799 24.9391 11.8103 29.1148C11.8196 30.0359 11.8196 30.9571 11.8243 31.8782C11.8267 32.1061 11.815 32.4328 11.8056 32.7641V32.7829C11.7845 33.3892 11.7635 34.0119 11.8313 34.5429C11.8968 35.0576 12.0466 35.4876 12.3601 35.7273C12.9311 36.1643 14.3584 36.0939 15.5681 36.0375L15.6125 36.0351C16.015 36.0163 16.3964 35.9975 16.6795 35.9975L24.8011 36.021C39.3924 36.0633 66.0457 36.1479 67.3747 35.9834C67.6508 35.9505 67.8591 35.8683 68.0135 35.7484C68.1656 35.6309 68.2709 35.4735 68.3411 35.2902C68.437 35.0411 68.4885 34.7333 68.5142 34.3973C68.5423 34.0518 68.5447 33.6782 68.5423 33.2952L68.5447 31.178L68.5634 28.821C68.5961 24.8474 68.6359 20.3616 68.4019 17.6099L68.3996 17.577C68.299 16.3879 68.2218 15.4973 68.1118 14.8558C68.0042 14.2284 67.8661 13.8383 67.6415 13.6292C67.4262 13.4295 67.0518 13.3284 66.4762 13.2767C65.8819 13.2227 65.07 13.225 63.9983 13.225L55.5959 13.2039L55.5936 13.2015ZM73.9404 63.0984L73.9661 68.0355L74.0129 70.4206C74.0433 71.8939 74.0737 73.372 74.0808 74.8736C74.0878 75.924 74.0737 76.979 74.0269 78.0036C73.9801 79.0328 73.8959 80.0339 73.7649 80.9785C73.6268 81.9537 73.4373 82.8748 73.1752 83.709C72.9132 84.5479 72.5786 85.2999 72.1574 85.9343C71.9913 86.1834 71.9187 86.5124 71.8906 86.879C71.8626 87.255 71.8836 87.6685 71.9024 88.0774C71.9351 88.7636 71.9679 89.438 71.8275 90.0466C71.6847 90.6646 71.3665 91.2051 70.6973 91.5975C69.869 92.0816 67.0308 92.0134 65.1589 91.9688H65.1121C64.6254 91.957 64.2089 91.9476 63.9422 91.9476C62.3721 91.957 61.49 91.7197 60.9963 91.198C60.5003 90.674 60.402 89.8774 60.395 88.7659L60.402 87.9082H19.6511L19.6605 88.7471C19.6558 89.7975 19.5669 90.5965 19.0989 91.1393C18.6333 91.6821 17.8003 91.9547 16.3168 91.95L15.2194 91.9641C13.3663 91.997 10.3104 92.051 9.54764 91.6986C8.7825 91.3461 8.41515 90.8009 8.24902 90.1523C8.08523 89.5179 8.11799 88.7941 8.15308 88.0657C8.1718 87.6732 8.18818 87.2738 8.16712 86.9189C8.14606 86.5712 8.08523 86.2633 7.95186 86.0377C7.69915 85.6148 7.47921 85.2153 7.28968 84.8229C7.09781 84.4281 6.93402 84.0357 6.79363 83.6221C6.65558 83.2109 6.53859 82.7808 6.44499 82.3109C6.3514 81.8409 6.27886 81.331 6.22271 80.7623C5.96766 78.1916 6.03786 72.0537 6.09869 66.8229L6.13379 63.4768C6.14315 62.4546 6.14549 61.524 6.14315 60.7462C6.13613 59.106 6.19931 58.2601 6.49647 57.7407C6.80299 57.2073 7.32946 57.0311 8.24902 56.7209L8.26072 56.7162C8.49938 56.6363 8.77782 56.5423 9.11008 56.4131L9.14518 55.116C8.74039 54.9656 8.41749 54.8081 8.15542 54.6201C7.87698 54.4204 7.66639 54.1854 7.50728 53.894C7.33414 53.5791 7.24054 53.2267 7.1914 52.7966C7.14461 52.376 7.13993 51.8755 7.14227 51.2551L7.14461 35.8448L7.03697 35.9294C6.92466 36.014 6.78427 36.1009 6.61346 36.1878C6.2812 36.357 5.90683 36.4322 5.52309 36.4628C5.14637 36.491 4.75796 36.4769 4.38826 36.4604H4.37188C4.1847 36.4534 4.00219 36.4463 3.84308 36.4463C3.27683 36.4487 2.7878 36.4416 2.36429 36.3876C1.93142 36.3335 1.56172 36.2301 1.23882 36.0398C0.880824 35.8283 0.611741 35.5346 0.424553 35.1257C0.242045 34.7239 0.139091 34.2069 0.111013 33.5396C0.0829346 32.9121 0.0478369 31.7043 0.0244383 30.3202C0.00805937 29.2323 -0.00363989 28.0315 0.00103982 26.92C0.00571952 26.0271 0.0220985 25.1882 0.0525166 24.5044C0.0805948 23.8981 0.120372 23.4093 0.174189 23.1085C0.286502 22.4882 0.433912 22.2273 0.534526 22.0746C0.480709 22.0159 0.405834 21.8937 0.328619 21.6305C0.190568 21.1629 0.125052 20.7352 0.101653 20.3099C0.0759151 19.8869 0.0899542 19.4616 0.103993 18.9892L0.106333 18.9352C0.122712 18.2913 0.199927 17.7767 0.347338 17.3631C0.499428 16.9402 0.726394 16.6229 1.04227 16.3762C1.34411 16.1436 1.69977 16.0002 2.13264 15.918C2.55616 15.8381 3.05221 15.8122 3.63951 15.8146L4.27595 15.8075C4.94047 15.7958 5.54649 15.7864 6.07062 15.8851C6.52923 15.972 6.92232 16.1412 7.2382 16.4631C7.33648 14.4611 7.53068 12.4402 7.92846 10.4945C8.34027 8.47127 8.96969 6.52794 9.92903 4.77259C10.163 4.34727 10.404 3.95719 10.6754 3.60706C10.9469 3.25458 11.2464 2.9397 11.588 2.66242C11.9319 2.38279 12.3157 2.1431 12.7579 1.94336C13.1955 1.74363 13.6962 1.58149 14.2695 1.45459C16.3496 0.994021 19.8921 0.641542 24.1928 0.399507C28.8889 0.136323 34.4975 3.09224e-05 40.0944 3.09224e-05C45.6749 -0.00231894 51.2555 0.129273 55.9235 0.390107C60.1867 0.629793 63.6941 0.979922 65.7509 1.44049C66.8108 1.67783 67.6789 2.11255 68.3996 2.68592C69.1203 3.25928 69.6912 3.97364 70.1568 4.77259C70.6014 5.53395 70.9454 6.3705 71.2308 7.23054C71.5163 8.09059 71.7409 8.97179 71.9491 9.82949C72.2299 10.988 72.4288 12.137 72.5692 13.2814C72.7002 14.353 72.7798 15.4245 72.8266 16.5031L72.9108 16.4279C72.9974 16.355 73.091 16.2892 73.1893 16.2305C73.5098 16.0402 73.8795 15.9368 74.3147 15.8804C74.7406 15.8263 75.2296 15.8193 75.7935 15.8193H76.217C78.3065 15.8099 79.6566 15.8028 79.9093 18.3007C80.0263 19.4569 80.0099 20.2041 79.9421 20.7187C79.8719 21.2428 79.7455 21.5271 79.6449 21.7527C79.6122 21.8279 79.5841 21.8913 79.5864 21.9853C79.5888 22.0934 79.6239 22.2532 79.7151 22.5211C80.0918 23.6255 80.0029 29.0208 79.9561 31.8406L79.9374 33.1142C79.9327 33.7346 79.8836 34.2445 79.7689 34.6698C79.6543 35.1022 79.4694 35.4453 79.1957 35.7226C78.9196 35.9999 78.578 36.1855 78.1474 36.3006C77.7262 36.4134 77.2185 36.4557 76.6054 36.4534C75.3092 36.4487 74.4317 36.3735 73.8397 36.256C73.3835 36.1643 73.0887 36.0445 72.8968 35.9106L72.8991 51.2622C72.9085 52.7872 72.7424 53.6097 72.4663 54.0867C72.1831 54.5802 71.7947 54.7071 71.3689 54.8434C71.2846 54.8692 71.1957 54.8998 71.1115 54.9444C71.0366 54.9844 70.9617 55.0408 70.8892 55.123L70.9032 56.4225L71.6075 56.681C72.1129 56.8619 72.5084 57.0029 72.8243 57.1979C73.1495 57.3977 73.3928 57.6515 73.587 58.0533C73.7859 58.4669 73.8795 59.0003 73.9216 59.8039C73.9614 60.5935 73.9497 61.6509 73.931 63.1125L73.9404 63.0984Z" fill="#CCCCCC"/>
</svg>
