<svg width="197" height="95" viewBox="0 0 197 95" fill="none" xmlns="http://www.w3.org/2000/svg">
<path d="M45.5042 58.3691L34.9669 62.1882C33.7675 60.3365 32.2091 59.4098 30.2884 59.4098C28.6093 59.4098 27.1959 60.1294 26.0483 61.5669C24.9007 63.0062 24.326 64.7181 24.326 66.701C24.326 68.6856 24.9162 70.3958 26.1 71.835C27.2822 73.2743 28.6783 73.9939 30.2884 73.9939C31.3169 73.9939 32.216 73.7454 32.9875 73.2502C33.7589 72.7531 34.299 72.0749 34.6079 71.2172H29.3651V63.5774H47.8702V66.7528C47.8702 69.828 47.0643 72.6548 45.4542 75.2347C43.8441 77.8147 41.6679 79.8563 38.9274 81.3611C36.1852 82.8659 33.2032 83.6184 29.9829 83.6184C26.7627 83.6184 23.7807 82.8659 21.0402 81.3611C18.2997 79.8563 16.1236 77.8147 14.5117 75.2347C12.9016 72.6548 12.0957 69.828 12.0957 66.7528C12.0957 63.6775 12.9016 60.849 14.5117 58.2708C16.1218 55.6908 18.298 53.6493 21.0402 52.1444C23.7824 50.6396 26.7627 49.8871 29.9829 49.8871C33.2739 49.8871 36.2888 50.6482 39.0292 52.1686C41.7714 53.6907 43.9303 55.7564 45.5059 58.3691H45.5042ZM50.9524 82.6261V50.4825H63.0843V82.6261H50.9524ZM66.6807 82.6261V50.4825H78.6573V72.2596H90.3267V82.6261H66.6824H66.6807ZM93.9732 82.6261V50.4825H109.907C113.334 50.4825 116.025 51.2091 117.978 52.6639C119.932 54.1187 120.908 56.0549 120.908 58.4675C120.908 60.6506 120.481 62.271 119.623 63.3289C118.767 64.3868 117.414 65.2634 115.562 65.9589C120.053 67.0496 122.296 69.4967 122.296 73.3002C122.296 79.518 118.149 82.6261 109.857 82.6261H93.9732ZM107.748 62.5351C109.256 62.5351 110.01 61.7585 110.01 60.2036C110.01 59.5081 109.812 58.9973 109.419 58.666C109.025 58.3346 108.502 58.1689 107.852 58.1689H105.127V62.5333H107.748V62.5351ZM108.109 74.6394C109.924 74.6394 110.834 73.7955 110.834 72.1094C110.834 70.4562 109.857 69.6278 107.903 69.6278H105.128V74.6394H108.109ZM125.38 82.6261V50.4825H147.687V59.2631H137.149V62.3383H146.658V70.5718H137.149V73.9456H147.892V82.6261H125.378H125.38ZM166.603 50.4825C169.617 50.4825 172.163 50.8622 174.235 51.6232C176.308 52.3843 177.875 53.5837 178.938 55.2197C180.001 56.8574 180.531 58.949 180.531 61.4944C180.531 65.562 178.391 68.2403 174.106 69.5312L182.947 82.6261H169.583L163.776 72.0594V82.6261H152.005V50.4825H166.603ZM163.776 65.0667H165.831C168.059 65.0667 169.174 63.9243 169.174 61.6429C169.174 60.849 168.898 60.1622 168.351 59.5841C167.802 59.0059 167.1 58.716 166.244 58.716H163.777V65.0667H163.776Z" fill="black"/>
<path d="M25.5788 43.416C19.7217 43.8682 14.4341 46.4516 10.4994 50.3863C6.1557 54.73 3.45837 60.7234 3.45837 67.3106C3.45837 73.9012 6.1557 80.188 10.4994 84.5317C14.8431 88.8754 20.8348 91.5727 27.4237 91.5727H169.495C176.085 91.5727 182.075 88.8754 186.421 84.5317C190.764 80.188 193.462 73.9012 193.462 67.3123C193.462 60.7234 190.764 54.7317 186.421 50.3863C182.077 46.0426 176.085 43.3453 169.497 43.3453H92.4856L60.6026 34.154C60.4404 34.3628 60.2661 34.5596 60.0815 34.746L60.0849 34.7494C58.9649 35.8694 57.4152 36.5632 55.7067 36.5632C53.9965 36.5632 52.4485 35.8694 51.3285 34.7494L51.332 34.746C50.2085 33.6225 49.5148 32.0745 49.5148 30.3695C49.5148 28.6662 50.2085 27.1199 51.3285 25.9965L51.3337 25.9913C52.4572 24.8696 54.0034 24.1776 55.7067 24.1776C57.41 24.1776 58.9563 24.8696 60.0798 25.9913L60.0849 25.9965C61.2067 27.1199 61.8987 28.6679 61.8987 30.3695C61.8987 30.5731 61.8883 30.7733 61.8693 30.9735L92.9119 39.9197H169.498C177.033 39.9197 183.882 43.0019 188.845 47.9651C193.809 52.93 196.891 59.7777 196.891 67.3123C196.891 74.8486 193.809 81.9914 188.845 86.9546C183.882 91.9178 177.035 95 169.498 95H27.4271C19.8943 95 13.0448 91.9196 8.08162 86.9546C3.1184 81.9914 0.0362416 74.8469 0.0362416 67.3123C0.0362416 59.776 3.1184 52.9283 8.08162 47.9651C12.5478 43.4989 18.5413 40.5565 25.1871 40.0129C25.71 38.8584 26.8731 38.0542 28.2227 38.0542C30.0623 38.0542 31.5533 39.5452 31.5533 41.3849C31.5533 43.2245 30.0623 44.7155 28.2227 44.7155C27.1475 44.7155 26.1932 44.2064 25.584 43.416H25.5788ZM56.8612 21.1851L64.81 0L60.2886 22.3327C59.2531 21.7391 58.0951 21.3404 56.8612 21.1851ZM49.5614 23.451L43.0036 7.2826L53.1285 21.4785C51.791 21.8668 50.5778 22.5485 49.5614 23.451ZM46.4516 30.6922L0 15.3901L47.2696 26.5556C46.7398 27.7205 46.4447 29.0113 46.4447 30.3695C46.4447 30.4782 46.4464 30.5852 46.4516 30.6922ZM48.469 36.1386L35.5346 41.1484L46.6622 32.3627C46.9711 33.7623 47.5992 35.0445 48.4656 36.13L48.4707 36.1386H48.469ZM63.2258 24.9869L83.2477 17.3695L64.7824 28.5695C64.5218 27.2563 63.9816 26.0396 63.2258 24.9869ZM58.0227 28.0432C57.4325 27.453 56.611 27.0871 55.7016 27.0871C54.7921 27.0871 53.9706 27.453 53.3804 28.0432L53.3753 28.0484C52.7851 28.6386 52.4192 29.4583 52.4192 30.3695C52.4192 31.279 52.7851 32.1021 53.3753 32.6906H53.3804C53.9741 33.2843 54.7955 33.6518 55.7016 33.6518C56.6076 33.6518 57.429 33.2843 58.0227 32.6906H58.0278C58.618 32.1004 58.9839 31.279 58.9839 30.3695C58.9839 29.46 58.618 28.6386 58.0278 28.0484L58.0227 28.0432Z" fill="black"/>
</svg>
