<svg width="21" height="21" viewBox="0 0 21 21" fill="none" xmlns="http://www.w3.org/2000/svg">
<path fill-rule="evenodd" clip-rule="evenodd" d="M4.81486 8.21226C4.55325 8.21226 4.31476 8.30365 4.14246 8.44966C3.97121 8.59461 3.86299 8.79314 3.86299 9.01268C3.84933 9.22066 3.97856 9.44546 4.14351 9.58411C4.31686 9.73012 4.55641 9.81941 4.81801 9.81941L7.95415 9.8173C7.95415 11.2995 7.9552 11.8425 7.95625 12.9581C7.95625 13.2196 8.04765 13.4581 8.19369 13.6303C8.33868 13.8026 8.53725 13.9097 8.75683 13.9097C8.96485 13.9234 9.18969 13.7942 9.32837 13.6293C9.47441 13.456 9.56371 13.2165 9.56371 12.9549L9.56161 9.81836L12.6988 9.82046C12.9604 9.82046 13.201 9.73117 13.3733 9.58516C13.5382 9.44651 13.6675 9.22066 13.6538 9.01373C13.6538 8.79524 13.5467 8.59566 13.3743 8.45071C13.202 8.3047 12.9636 8.21331 12.7019 8.21331C11.5872 8.21226 11.0441 8.21121 9.56056 8.21121L9.56266 5.0757C9.56266 4.81414 9.47336 4.5736 9.32732 4.40133C9.18864 4.23641 8.96275 4.10721 8.75578 4.12086C8.53725 4.12086 8.33762 4.22906 8.19264 4.40028C8.0466 4.57255 7.9552 4.81099 7.9552 5.07255C7.95415 6.18705 7.95309 6.73011 7.95309 8.21121C6.47065 8.21121 5.92748 8.21226 4.81381 8.21331L4.81486 8.21226Z" fill="#6D6D6D"/>
<path fill-rule="evenodd" clip-rule="evenodd" d="M12.1421 0.924439C11.1083 0.495867 9.97363 0.259521 8.78327 0.259521C7.5929 0.259521 6.45822 0.495867 5.4244 0.924439C4.35066 1.36877 3.38303 2.02213 2.57299 2.83201C1.76296 3.64188 1.10946 4.60932 0.665047 5.68285C0.23639 6.71647 0 7.85093 0 9.04106C0 10.2312 0.23639 11.3656 0.665047 12.3993C1.10946 13.4728 1.76296 14.4402 2.57299 15.2501C3.38303 16.06 4.35066 16.7133 5.4244 17.1577C6.45822 17.5862 7.5929 17.8226 8.78327 17.8226C9.82129 17.8226 10.8162 17.643 11.7397 17.3131C12.699 16.9707 13.5804 16.4654 14.3516 15.8331L14.4535 15.7491L19.381 20.6713C19.5669 20.8562 19.8107 20.9486 20.0534 20.9476C20.2961 20.9476 20.5388 20.8531 20.7237 20.6671C20.9086 20.4812 21.001 20.2375 21 19.9949C21 19.7522 20.9054 19.5096 20.7195 19.3247L15.7626 14.373L15.8372 14.2722C16.3888 13.5295 16.8269 12.6955 17.1232 11.7974C17.4089 10.9308 17.5644 10.0043 17.5644 9.04211C17.5644 7.85198 17.328 6.71752 16.8994 5.6839C16.455 4.61037 15.8015 3.64293 14.9914 2.83306C14.1814 2.02318 13.2138 1.36982 12.14 0.92549L12.1421 0.924439ZM11.413 2.686C12.2556 3.03474 13.0131 3.54629 13.6466 4.17865C14.2802 4.8131 14.7908 5.57046 15.1396 6.41185C15.4758 7.22277 15.6607 8.11038 15.6607 9.04106C15.6607 9.97173 15.4747 10.8604 15.1396 11.6703C14.7908 12.5127 14.2791 13.2701 13.6466 13.9035C13.0131 14.5369 12.2556 15.0474 11.413 15.3961C10.603 15.7323 9.71413 15.9171 8.78327 15.9171C7.85241 15.9171 6.96463 15.7312 6.15354 15.3961C5.31199 15.0474 4.55448 14.5369 3.9199 13.9035C3.28637 13.2701 2.77471 12.5127 2.4259 11.6703C2.0897 10.8604 1.90479 9.97173 1.90479 9.04106C1.90479 8.11038 2.09075 7.22277 2.4259 6.41185C2.77471 5.57046 3.28532 4.8131 3.91885 4.17865C4.55343 3.54419 5.31093 3.03369 6.15249 2.68495C6.96358 2.34881 7.85136 2.16394 8.78222 2.16394C9.71307 2.16394 10.6019 2.34986 11.4119 2.68495L11.413 2.686Z" fill="#6D6D6D"/>
</svg>
