<svg width="21" height="21" viewBox="0 0 21 21" fill="none" xmlns="http://www.w3.org/2000/svg">
<path fill-rule="evenodd" clip-rule="evenodd" d="M4.79277 8.21229C4.53116 8.21229 4.29267 8.30368 4.12036 8.44969C3.94911 8.59465 3.8409 8.79318 3.8409 9.01272C3.82724 9.2207 3.95647 9.44549 4.12141 9.58414C4.29477 9.73015 4.53431 9.81944 4.79592 9.81944C7.42354 9.81734 10.0491 9.81734 12.6767 9.81944C12.9383 9.81944 13.1789 9.73015 13.3512 9.58414C13.5161 9.44549 13.6454 9.21965 13.6317 9.01272C13.6317 8.79423 13.5246 8.59465 13.3523 8.44969C13.1799 8.30368 12.9415 8.21229 12.6798 8.21229C10.0491 8.20914 7.42249 8.20914 4.79172 8.21229H4.79277Z" fill="#6D6D6D"/>
<path fill-rule="evenodd" clip-rule="evenodd" d="M12.1421 0.924439C11.1083 0.495867 9.97363 0.259521 8.78327 0.259521C7.5929 0.259521 6.45822 0.495867 5.4244 0.924439C4.35066 1.36877 3.38303 2.02213 2.57299 2.83201C1.76296 3.64188 1.10947 4.60932 0.665049 5.68285C0.236392 6.71647 0 7.85092 0 9.04105C0 10.2312 0.236392 11.3656 0.665049 12.3993C1.10947 13.4728 1.76296 14.4402 2.57299 15.2501C3.38303 16.06 4.35066 16.7133 5.4244 17.1577C6.45822 17.5862 7.5929 17.8226 8.78327 17.8226C9.82129 17.8226 10.8162 17.643 11.7397 17.3131C12.699 16.9707 13.5804 16.4654 14.3516 15.8331L14.4535 15.7491L19.381 20.6713C19.5669 20.8562 19.8107 20.9486 20.0534 20.9476C20.2961 20.9476 20.5388 20.8531 20.7237 20.6671C20.9086 20.4812 21.001 20.2375 21 19.9949C21 19.7522 20.9054 19.5096 20.7195 19.3247L15.7626 14.373L15.8372 14.2722C16.3888 13.5295 16.8269 12.6955 17.1232 11.7974C17.4089 10.9308 17.5644 10.0043 17.5644 9.0421C17.5644 7.85197 17.328 6.71752 16.8994 5.6839C16.455 4.61037 15.8015 3.64293 14.9914 2.83306C14.1814 2.02318 13.2138 1.36982 12.14 0.925489L12.1421 0.924439ZM11.413 2.686C12.2556 3.03474 13.0131 3.54629 13.6466 4.17865C14.2802 4.8131 14.7908 5.57046 15.1396 6.41185C15.4758 7.22277 15.6607 8.11038 15.6607 9.04105C15.6607 9.97173 15.4747 10.8604 15.1396 11.6703C14.7908 12.5127 14.2791 13.2701 13.6466 13.9035C13.0131 14.5369 12.2556 15.0474 11.413 15.3961C10.603 15.7322 9.71412 15.9171 8.78327 15.9171C7.85241 15.9171 6.96463 15.7312 6.15354 15.3961C5.31199 15.0474 4.55448 14.5369 3.9199 13.9035C3.28637 13.2701 2.77471 12.5127 2.4259 11.6703C2.0897 10.8604 1.90479 9.97173 1.90479 9.04105C1.90479 8.11038 2.09075 7.22277 2.4259 6.41185C2.77471 5.57046 3.28532 4.8131 3.91885 4.17865C4.55343 3.54419 5.31093 3.03369 6.15249 2.68495C6.96358 2.34881 7.85136 2.16394 8.78222 2.16394C9.71307 2.16394 10.6019 2.34986 11.4119 2.68495L11.413 2.686Z" fill="#6D6D6D"/>
</svg>
