<svg width="31" height="43" viewBox="0 0 31 43" fill="none" xmlns="http://www.w3.org/2000/svg">
<path fill-rule="evenodd" clip-rule="evenodd" d="M18.938 34.753L25.3574 25.0077C26.0646 23.8816 27.9787 20.9576 28.4049 19.9303C30.2606 15.4474 29.2819 10.6214 26.7737 7.39755C21.1765 0.200818 10.1915 0.200818 4.59432 7.39755C2.08615 10.6214 1.1074 15.4474 2.96307 19.9303C3.38927 20.9576 5.30339 23.8834 6.01058 25.0077L12.43 34.753L15.6849 39.5933L18.9399 34.753H18.938Z" fill="#FFED00" stroke="#313131" stroke-width="2.8195" stroke-miterlimit="22.9256"/>
<path d="M15.6833 21.817C18.9714 21.817 21.6369 19.1515 21.6369 15.8634C21.6369 12.5753 18.9714 9.90979 15.6833 9.90979C12.3953 9.90979 9.72974 12.5753 9.72974 15.8634C9.72974 19.1515 12.3953 21.817 15.6833 21.817Z" fill="#FFED00" stroke="#313131" stroke-width="2.8195" stroke-miterlimit="22.9256"/>
</svg>
