<svg width="20" height="28" viewBox="0 0 20 28" fill="none" xmlns="http://www.w3.org/2000/svg">
<path d="M16.3622 16.1322L12.1402 22.5417H12.1414L10.0006 25.7252L7.85983 22.5417L3.63777 16.1322C3.17265 15.3927 1.91372 13.4685 1.63341 12.7928C0.412934 9.84438 1.05666 6.67034 2.70629 4.54998C6.38756 -0.183326 13.6124 -0.183326 17.2937 4.54998C18.9433 6.67034 19.5871 9.84438 18.3666 12.7928C18.0863 13.4685 16.8274 15.3916 16.3622 16.1322Z" stroke-width="1.5" stroke-miterlimit="22.9256"/>
<path d="M9.99937 14.0337C12.162 14.0337 13.9151 12.2806 13.9151 10.118C13.9151 7.95539 12.162 6.20228 9.99937 6.20228C7.8368 6.20228 6.08368 7.95539 6.08368 10.118C6.08368 12.2806 7.8368 14.0337 9.99937 14.0337Z" stroke-width="1.5" stroke-miterlimit="22.9256"/>
</svg>
