<svg class="phone" width="23" height="24" viewBox="0 0 23 24" fill="none" xmlns="http://www.w3.org/2000/svg">
<path fill-rule="evenodd" clip-rule="evenodd" d="M7.25691 9.06306C8.1611 12.2911 11.1261 15.474 14.2875 16.6407C15.2375 16.9895 15.6464 15.6364 16.7967 14.8486C17.9021 14.0839 20.6862 17.4416 21.253 18.2981C21.6267 18.8639 21.6368 19.1479 21.4294 19.4777C20.7561 20.5462 19.5411 21.6518 18.455 22.249C16.2358 22.9855 11.6596 21.2295 8.45807 18.4322C6.83955 17.0032 5.69933 15.7959 4.41215 14.0654C1.85935 10.6634 1.09724 6.6634 1.99574 4.48946C2.67988 3.45051 3.87007 2.31376 4.98259 1.73374C5.3291 1.54705 5.60826 1.57891 6.15466 1.99475C6.95952 2.6239 10.1061 5.65534 9.25124 6.7031C8.37768 7.79114 6.98676 8.08488 7.27086 9.06465L7.25691 9.06306Z" stroke-width="1.5" stroke-miterlimit="22.9256" stroke-linecap="round" stroke-linejoin="round"/>
</svg>
