<svg width="125" height="114" viewBox="0 0 125 114" fill="none" xmlns="http://www.w3.org/2000/svg">
<path d="M62.0031 3.00049L22.0011 40.0024" stroke="#E5E5E5" stroke-width="2" stroke-miterlimit="22.9256"/>
<path d="M62.0031 3.00049L103.005 40.0024" stroke="#E5E5E5" stroke-width="2" stroke-miterlimit="22.9256"/>
<path d="M118.838 35.1191H6.16224C2.75893 35.1191 0 37.849 0 41.2165V106.998C0 110.365 2.75893 113.095 6.16224 113.095H118.838C122.241 113.095 125 110.365 125 106.998V41.2165C125 37.849 122.241 35.1191 118.838 35.1191Z" fill="#CECECE"/>
<path d="M114.545 39.8809H10.4546C7.31063 39.8809 4.7619 42.2773 4.7619 45.2335V102.981C4.7619 105.937 7.31063 108.333 10.4546 108.333H114.545C117.689 108.333 120.238 105.937 120.238 102.981V45.2335C120.238 42.2773 117.689 39.8809 114.545 39.8809Z" stroke="#E5E5E5" stroke-width="2" stroke-miterlimit="22.9256"/>
<path d="M44.9323 68.3432C45.2916 68.3338 45.6206 68.2592 45.9193 68.1192C46.2179 67.9792 46.4746 67.7925 46.6893 67.5592C46.9039 67.3212 47.0696 67.0458 47.1863 66.7332C47.3076 66.4158 47.3683 66.0752 47.3683 65.7112C47.3683 65.3565 47.3076 65.0228 47.1863 64.7102C47.0696 64.3928 46.9039 64.1152 46.6893 63.8772C46.4746 63.6392 46.2179 63.4502 45.9193 63.3102C45.6206 63.1702 45.2916 63.0955 44.9323 63.0862V68.3432ZM43.1473 63.0862C42.7833 63.0955 42.4519 63.1702 42.1533 63.3102C41.8593 63.4502 41.6049 63.6392 41.3903 63.8772C41.1756 64.1152 41.0099 64.3928 40.8933 64.7102C40.7766 65.0228 40.7183 65.3565 40.7183 65.7112C40.7183 66.0752 40.7766 66.4158 40.8933 66.7332C41.0099 67.0458 41.1756 67.3212 41.3903 67.5592C41.6049 67.7925 41.8593 67.9792 42.1533 68.1192C42.4519 68.2592 42.7833 68.3338 43.1473 68.3432V63.0862ZM44.9323 61.6372C45.5623 61.6558 46.1409 61.7748 46.6683 61.9942C47.1956 62.2135 47.6483 62.5075 48.0263 62.8762C48.4089 63.2448 48.7076 63.6718 48.9223 64.1572C49.1369 64.6425 49.2443 65.1605 49.2443 65.7112C49.2443 66.2665 49.1369 66.7892 48.9223 67.2792C48.7076 67.7645 48.4089 68.1915 48.0263 68.5602C47.6483 68.9288 47.1956 69.2228 46.6683 69.4422C46.1409 69.6615 45.5623 69.7805 44.9323 69.7992V71.0032H43.1473V69.7992C42.5219 69.7805 41.9456 69.6615 41.4183 69.4422C40.8909 69.2182 40.4359 68.9242 40.0533 68.5602C39.6706 68.1915 39.3719 67.7645 39.1573 67.2792C38.9426 66.7892 38.8353 66.2665 38.8353 65.7112C38.8353 65.1605 38.9426 64.6425 39.1573 64.1572C39.3719 63.6718 39.6706 63.2472 40.0533 62.8832C40.4359 62.5145 40.8909 62.2205 41.4183 62.0012C41.9456 61.7818 42.5219 61.6605 43.1473 61.6372V60.4542H44.9323V61.6372ZM60.8739 65.9422C60.8739 66.6842 60.7502 67.3725 60.5029 68.0072C60.2602 68.6372 59.9149 69.1832 59.4669 69.6452C59.0189 70.1072 58.4799 70.4688 57.8499 70.7302C57.2199 70.9868 56.5199 71.1152 55.7499 71.1152C54.9845 71.1152 54.2869 70.9868 53.6569 70.7302C53.0269 70.4688 52.4855 70.1072 52.0329 69.6452C51.5849 69.1832 51.2372 68.6372 50.9899 68.0072C50.7425 67.3725 50.6189 66.6842 50.6189 65.9422C50.6189 65.2002 50.7425 64.5142 50.9899 63.8842C51.2372 63.2495 51.5849 62.7012 52.0329 62.2392C52.4855 61.7772 53.0269 61.4178 53.6569 61.1612C54.2869 60.8998 54.9845 60.7692 55.7499 60.7692C56.2632 60.7692 56.7462 60.8298 57.1989 60.9512C57.6515 61.0678 58.0669 61.2358 58.4449 61.4552C58.8229 61.6698 59.1612 61.9335 59.4599 62.2462C59.7632 62.5542 60.0199 62.8995 60.2299 63.2822C60.4399 63.6648 60.5985 64.0802 60.7059 64.5282C60.8179 64.9762 60.8739 65.4475 60.8739 65.9422ZM58.9489 65.9422C58.9489 65.3868 58.8742 64.8898 58.7249 64.4512C58.5755 64.0078 58.3632 63.6322 58.0879 63.3242C57.8125 63.0162 57.4765 62.7805 57.0799 62.6172C56.6879 62.4538 56.2445 62.3722 55.7499 62.3722C55.2552 62.3722 54.8095 62.4538 54.4129 62.6172C54.0209 62.7805 53.6849 63.0162 53.4049 63.3242C53.1295 63.6322 52.9172 64.0078 52.7679 64.4512C52.6185 64.8898 52.5439 65.3868 52.5439 65.9422C52.5439 66.4975 52.6185 66.9968 52.7679 67.4402C52.9172 67.8788 53.1295 68.2522 53.4049 68.5602C53.6849 68.8635 54.0209 69.0968 54.4129 69.2602C54.8095 69.4235 55.2552 69.5052 55.7499 69.5052C56.2445 69.5052 56.6879 69.4235 57.0799 69.2602C57.4765 69.0968 57.8125 68.8635 58.0879 68.5602C58.3632 68.2522 58.5755 67.8788 58.7249 67.4402C58.8742 66.9968 58.9489 66.4975 58.9489 65.9422ZM69.6757 62.4282H66.6237V71.0032H64.7407V62.4282H61.6887V60.8812H69.6757V62.4282ZM80.7315 65.9422C80.7315 66.6842 80.6078 67.3725 80.3605 68.0072C80.1178 68.6372 79.7725 69.1832 79.3245 69.6452C78.8765 70.1072 78.3375 70.4688 77.7075 70.7302C77.0775 70.9868 76.3775 71.1152 75.6075 71.1152C74.8421 71.1152 74.1445 70.9868 73.5145 70.7302C72.8845 70.4688 72.3431 70.1072 71.8905 69.6452C71.4425 69.1832 71.0948 68.6372 70.8475 68.0072C70.6001 67.3725 70.4765 66.6842 70.4765 65.9422C70.4765 65.2002 70.6001 64.5142 70.8475 63.8842C71.0948 63.2495 71.4425 62.7012 71.8905 62.2392C72.3431 61.7772 72.8845 61.4178 73.5145 61.1612C74.1445 60.8998 74.8421 60.7692 75.6075 60.7692C76.1208 60.7692 76.6038 60.8298 77.0565 60.9512C77.5091 61.0678 77.9245 61.2358 78.3025 61.4552C78.6805 61.6698 79.0188 61.9335 79.3175 62.2462C79.6208 62.5542 79.8775 62.8995 80.0875 63.2822C80.2975 63.6648 80.4561 64.0802 80.5635 64.5282C80.6755 64.9762 80.7315 65.4475 80.7315 65.9422ZM78.8065 65.9422C78.8065 65.3868 78.7318 64.8898 78.5825 64.4512C78.4331 64.0078 78.2208 63.6322 77.9455 63.3242C77.6701 63.0162 77.3341 62.7805 76.9375 62.6172C76.5455 62.4538 76.1021 62.3722 75.6075 62.3722C75.1128 62.3722 74.6671 62.4538 74.2705 62.6172C73.8785 62.7805 73.5425 63.0162 73.2625 63.3242C72.9871 63.6322 72.7748 64.0078 72.6255 64.4512C72.4761 64.8898 72.4015 65.3868 72.4015 65.9422C72.4015 66.4975 72.4761 66.9968 72.6255 67.4402C72.7748 67.8788 72.9871 68.2522 73.2625 68.5602C73.5425 68.8635 73.8785 69.0968 74.2705 69.2602C74.6671 69.4235 75.1128 69.5052 75.6075 69.5052C76.1021 69.5052 76.5455 69.4235 76.9375 69.2602C77.3341 69.0968 77.6701 68.8635 77.9455 68.5602C78.2208 68.2522 78.4331 67.8788 78.5825 67.4402C78.7318 66.9968 78.8065 66.4975 78.8065 65.9422ZM18.7917 86.6162C18.8944 86.6162 18.9854 86.6558 19.0647 86.7352L19.8067 87.5402C19.396 88.0488 18.8897 88.4385 18.2877 88.7092C17.6904 88.9798 16.9717 89.1152 16.1317 89.1152C15.3804 89.1152 14.7037 88.9868 14.1017 88.7302C13.5044 88.4735 12.9934 88.1165 12.5687 87.6592C12.144 87.2018 11.8174 86.6558 11.5887 86.0212C11.3647 85.3865 11.2527 84.6935 11.2527 83.9422C11.2527 83.1815 11.374 82.4862 11.6167 81.8562C11.8594 81.2215 12.2 80.6755 12.6387 80.2182C13.082 79.7608 13.6094 79.4062 14.2207 79.1542C14.832 78.8975 15.5087 78.7692 16.2507 78.7692C16.988 78.7692 17.6414 78.8905 18.2107 79.1332C18.7847 79.3758 19.2724 79.6932 19.6737 80.0852L19.0437 80.9602C19.0064 81.0162 18.9574 81.0652 18.8967 81.1072C18.8407 81.1492 18.7614 81.1702 18.6587 81.1702C18.5887 81.1702 18.5164 81.1515 18.4417 81.1142C18.367 81.0722 18.2854 81.0232 18.1967 80.9672C18.108 80.9065 18.0054 80.8412 17.8887 80.7712C17.772 80.7012 17.6367 80.6382 17.4827 80.5822C17.3287 80.5215 17.149 80.4725 16.9437 80.4352C16.743 80.3932 16.5097 80.3722 16.2437 80.3722C15.791 80.3722 15.3757 80.4538 14.9977 80.6172C14.6244 80.7758 14.3024 81.0092 14.0317 81.3172C13.761 81.6205 13.551 81.9938 13.4017 82.4372C13.2524 82.8758 13.1777 83.3775 13.1777 83.9422C13.1777 84.5115 13.257 85.0178 13.4157 85.4612C13.579 85.9045 13.7984 86.2778 14.0737 86.5812C14.349 86.8845 14.6734 87.1178 15.0467 87.2812C15.42 87.4398 15.8214 87.5192 16.2507 87.5192C16.5074 87.5192 16.7384 87.5052 16.9437 87.4772C17.1537 87.4492 17.345 87.4048 17.5177 87.3442C17.695 87.2835 17.8607 87.2065 18.0147 87.1132C18.1734 87.0152 18.3297 86.8962 18.4837 86.7562C18.5304 86.7142 18.5794 86.6815 18.6307 86.6582C18.682 86.6302 18.7357 86.6162 18.7917 86.6162ZM30.1055 89.0032H28.3975C28.2202 89.0032 28.0709 88.9565 27.9495 88.8632C27.8329 88.7698 27.7232 88.6322 27.6205 88.4502L25.4645 85.0482C25.4085 84.9502 25.3479 84.8708 25.2825 84.8102C25.2219 84.7448 25.1542 84.6935 25.0795 84.6562C25.0095 84.6142 24.9279 84.5862 24.8345 84.5722C24.7459 84.5582 24.6432 84.5512 24.5265 84.5512H23.3995V89.0032H21.5165V78.8812H23.3995V83.1232H24.3515C24.5429 83.1232 24.7085 83.0905 24.8485 83.0252C24.9885 82.9598 25.1192 82.8385 25.2405 82.6612L27.4595 79.3852C27.5529 79.2358 27.6625 79.1145 27.7885 79.0212C27.9145 78.9278 28.0662 78.8812 28.2435 78.8812H29.8535L27.1025 82.9412C26.9859 83.1185 26.8505 83.2655 26.6965 83.3822C26.5425 83.4988 26.3722 83.5898 26.1855 83.6552C26.4655 83.7345 26.7012 83.8605 26.8925 84.0332C27.0885 84.2012 27.2752 84.4345 27.4525 84.7332L30.1055 89.0032ZM40.9274 83.9422C40.9274 84.6842 40.8038 85.3725 40.5564 86.0072C40.3138 86.6372 39.9684 87.1832 39.5204 87.6452C39.0724 88.1072 38.5334 88.4688 37.9034 88.7302C37.2734 88.9868 36.5734 89.1152 35.8034 89.1152C35.0381 89.1152 34.3404 88.9868 33.7104 88.7302C33.0804 88.4688 32.5391 88.1072 32.0864 87.6452C31.6384 87.1832 31.2908 86.6372 31.0434 86.0072C30.7961 85.3725 30.6724 84.6842 30.6724 83.9422C30.6724 83.2002 30.7961 82.5142 31.0434 81.8842C31.2908 81.2495 31.6384 80.7012 32.0864 80.2392C32.5391 79.7772 33.0804 79.4178 33.7104 79.1612C34.3404 78.8998 35.0381 78.7692 35.8034 78.7692C36.3168 78.7692 36.7998 78.8298 37.2524 78.9512C37.7051 79.0678 38.1204 79.2358 38.4984 79.4552C38.8764 79.6698 39.2148 79.9335 39.5134 80.2462C39.8168 80.5542 40.0734 80.8995 40.2834 81.2822C40.4934 81.6648 40.6521 82.0802 40.7594 82.5282C40.8714 82.9762 40.9274 83.4475 40.9274 83.9422ZM39.0024 83.9422C39.0024 83.3868 38.9278 82.8898 38.7784 82.4512C38.6291 82.0078 38.4168 81.6322 38.1414 81.3242C37.8661 81.0162 37.5301 80.7805 37.1334 80.6172C36.7414 80.4538 36.2981 80.3722 35.8034 80.3722C35.3088 80.3722 34.8631 80.4538 34.4664 80.6172C34.0744 80.7805 33.7384 81.0162 33.4584 81.3242C33.1831 81.6322 32.9708 82.0078 32.8214 82.4512C32.6721 82.8898 32.5974 83.3868 32.5974 83.9422C32.5974 84.4975 32.6721 84.9968 32.8214 85.4402C32.9708 85.8788 33.1831 86.2522 33.4584 86.5602C33.7384 86.8635 34.0744 87.0968 34.4664 87.2602C34.8631 87.4235 35.3088 87.5052 35.8034 87.5052C36.2981 87.5052 36.7414 87.4235 37.1334 87.2602C37.5301 87.0968 37.8661 86.8635 38.1414 86.5602C38.4168 86.2522 38.6291 85.8788 38.7784 85.4402C38.9278 84.9968 39.0024 84.4975 39.0024 83.9422ZM46.2911 83.9702C46.6364 83.9702 46.9374 83.9282 47.1941 83.8442C47.4507 83.7555 47.6631 83.6318 47.8311 83.4732C48.0037 83.3098 48.1321 83.1138 48.2161 82.8852C48.3001 82.6518 48.3421 82.3928 48.3421 82.1082C48.3421 81.8375 48.3001 81.5925 48.2161 81.3732C48.1321 81.1538 48.0061 80.9672 47.8381 80.8132C47.6701 80.6592 47.4577 80.5425 47.2011 80.4632C46.9444 80.3792 46.6411 80.3372 46.2911 80.3372H44.8841V83.9702H46.2911ZM46.2911 78.8812C46.9677 78.8812 47.5534 78.9605 48.0481 79.1192C48.5427 79.2778 48.9511 79.4995 49.2731 79.7842C49.5951 80.0688 49.8331 80.4095 49.9871 80.8062C50.1457 81.2028 50.2251 81.6368 50.2251 82.1082C50.2251 82.5982 50.1434 83.0485 49.9801 83.4592C49.8167 83.8652 49.5717 84.2152 49.2451 84.5092C48.9184 84.8032 48.5077 85.0318 48.0131 85.1952C47.5231 85.3585 46.9491 85.4402 46.2911 85.4402H44.8841V89.0032H43.0011V78.8812H46.2911ZM61.742 83.9422C61.742 84.6842 61.6184 85.3725 61.371 86.0072C61.1284 86.6372 60.783 87.1832 60.335 87.6452C59.887 88.1072 59.348 88.4688 58.718 88.7302C58.088 88.9868 57.388 89.1152 56.618 89.1152C55.8527 89.1152 55.155 88.9868 54.525 88.7302C53.895 88.4688 53.3537 88.1072 52.901 87.6452C52.453 87.1832 52.1054 86.6372 51.858 86.0072C51.6107 85.3725 51.487 84.6842 51.487 83.9422C51.487 83.2002 51.6107 82.5142 51.858 81.8842C52.1054 81.2495 52.453 80.7012 52.901 80.2392C53.3537 79.7772 53.895 79.4178 54.525 79.1612C55.155 78.8998 55.8527 78.7692 56.618 78.7692C57.1314 78.7692 57.6144 78.8298 58.067 78.9512C58.5197 79.0678 58.935 79.2358 59.313 79.4552C59.691 79.6698 60.0294 79.9335 60.328 80.2462C60.6314 80.5542 60.888 80.8995 61.098 81.2822C61.308 81.6648 61.4667 82.0802 61.574 82.5282C61.686 82.9762 61.742 83.4475 61.742 83.9422ZM59.817 83.9422C59.817 83.3868 59.7424 82.8898 59.593 82.4512C59.4437 82.0078 59.2314 81.6322 58.956 81.3242C58.6807 81.0162 58.3447 80.7805 57.948 80.6172C57.556 80.4538 57.1127 80.3722 56.618 80.3722C56.1234 80.3722 55.6777 80.4538 55.281 80.6172C54.889 80.7805 54.553 81.0162 54.273 81.3242C53.9977 81.6322 53.7854 82.0078 53.636 82.4512C53.4867 82.8898 53.412 83.3868 53.412 83.9422C53.412 84.4975 53.4867 84.9968 53.636 85.4402C53.7854 85.8788 53.9977 86.2522 54.273 86.5602C54.553 86.8635 54.889 87.0968 55.281 87.2602C55.6777 87.4235 56.1234 87.5052 56.618 87.5052C57.1127 87.5052 57.556 87.4235 57.948 87.2602C58.3447 87.0968 58.6807 86.8635 58.956 86.5602C59.2314 86.2522 59.4437 85.8788 59.593 85.4402C59.7424 84.9968 59.817 84.4975 59.817 83.9422ZM71.168 87.5332C71.518 87.5332 71.8097 87.4958 72.043 87.4212C72.281 87.3418 72.4723 87.2345 72.617 87.0992C72.7617 86.9638 72.8643 86.8052 72.925 86.6232C72.9857 86.4412 73.016 86.2452 73.016 86.0352C73.016 85.8065 72.9857 85.5988 72.925 85.4122C72.8643 85.2255 72.7617 85.0692 72.617 84.9432C72.4723 84.8125 72.2833 84.7122 72.05 84.6422C71.8167 84.5722 71.525 84.5372 71.175 84.5372H69.523V87.5332H71.168ZM71.175 83.0672C71.833 83.0672 72.3953 83.1395 72.862 83.2842C73.3333 83.4288 73.716 83.6272 74.01 83.8792C74.3087 84.1265 74.528 84.4205 74.668 84.7612C74.808 85.0972 74.878 85.4588 74.878 85.8462C74.878 86.3222 74.794 86.7538 74.626 87.1412C74.4627 87.5285 74.2223 87.8622 73.905 88.1422C73.5877 88.4175 73.198 88.6298 72.736 88.7792C72.2787 88.9285 71.756 89.0032 71.168 89.0032H67.64V78.8812H74.507V80.3372H69.523V83.0672H71.175ZM84.9073 78.8812L80.8193 87.5962C80.6747 87.8995 80.5207 88.1492 80.3573 88.3452C80.194 88.5412 80.0167 88.6952 79.8253 88.8072C79.6387 88.9192 79.4357 88.9962 79.2163 89.0382C79.0017 89.0848 78.7707 89.1082 78.5233 89.1082C78.1873 89.1082 77.9423 89.0778 77.7883 89.0172C77.6343 88.9565 77.5573 88.8678 77.5573 88.7512V87.5752H78.1033C78.206 87.5752 78.311 87.5658 78.4183 87.5472C78.5257 87.5285 78.6307 87.4912 78.7333 87.4352C78.8407 87.3792 78.9433 87.2998 79.0413 87.1972C79.1393 87.0945 79.2303 86.9592 79.3143 86.7912L79.7133 85.9792L75.6533 78.8812H77.4173C77.5807 78.8812 77.7113 78.9208 77.8093 79.0002C77.9073 79.0795 77.989 79.1798 78.0543 79.3012L80.0213 83.0112C80.1287 83.2165 80.2243 83.4195 80.3083 83.6202C80.397 83.8208 80.474 84.0262 80.5393 84.2362C80.6607 83.8162 80.817 83.4078 81.0083 83.0112L82.7233 79.3012C82.7747 79.1985 82.8517 79.1028 82.9543 79.0142C83.057 78.9255 83.1877 78.8812 83.3463 78.8812H84.9073ZM91.7081 87.5542V80.3302H88.9431C88.8871 81.3242 88.8101 82.2062 88.7121 82.9762C88.6187 83.7462 88.5091 84.4228 88.3831 85.0062C88.2571 85.5895 88.1171 86.0888 87.9631 86.5042C87.8091 86.9195 87.6434 87.2695 87.4661 87.5542H91.7081ZM95.1731 87.5542V90.8722C95.1731 91.0355 95.1171 91.1662 95.0051 91.2642C94.8977 91.3622 94.7554 91.4112 94.5781 91.4112H93.4441V89.0032H86.0101V90.8722C86.0101 91.0355 85.9541 91.1662 85.8421 91.2642C85.7347 91.3622 85.5924 91.4112 85.4151 91.4112H84.2811V87.5542H85.3871C85.5177 87.4842 85.6461 87.3722 85.7721 87.2182C85.9027 87.0642 86.0287 86.8472 86.1501 86.5672C86.2714 86.2872 86.3857 85.9325 86.4931 85.5032C86.6051 85.0738 86.7054 84.5512 86.7941 83.9352C86.8827 83.3145 86.9574 82.5888 87.0181 81.7582C87.0834 80.9275 87.1324 79.9685 87.1651 78.8812H93.5981V87.5542H95.1731ZM98.9267 80.3792V83.1862H102.469V84.6352H98.9267V87.4982H103.421V89.0032H97.0367V78.8812H103.421V80.3792H98.9267ZM112.579 80.4282H109.527V89.0032H107.644V80.4282H104.592V78.8812H112.579V80.4282Z" fill="white"/>
<path d="M62.0031 6.00031C63.6601 6.00031 65.0033 4.65709 65.0033 3.00015C65.0033 1.34321 63.6601 0 62.0031 0C60.3462 0 59.003 1.34321 59.003 3.00015C59.003 4.65709 60.3462 6.00031 62.0031 6.00031Z" fill="#CECECE"/>
</svg>
