<svg width="20" height="21" viewBox="0 0 20 21" fill="none" xmlns="http://www.w3.org/2000/svg">
<path fill-rule="evenodd" clip-rule="evenodd" d="M6.31258 15.2555L6.22283 17.8118C6.21352 18.0735 6.31155 18.3087 6.47915 18.4749C6.64494 18.6411 6.87953 18.7389 7.1418 18.7283C7.40251 18.7188 7.6459 18.602 7.82463 18.4232C8.00284 18.2443 8.11819 18.0023 8.12647 17.7398L8.29226 13.0173L8.30183 12.9611L8.30674 12.8822C8.3114 12.7564 8.28967 12.6371 8.25062 12.5286C8.21105 12.423 8.15104 12.3275 8.07526 12.2449L8.02948 12.1986C7.94697 12.1181 7.84506 12.0541 7.73203 12.0122C7.62288 11.9708 7.50261 11.9504 7.37846 11.9558L7.29958 11.9623L7.24319 11.9716L2.52341 12.1489C2.26218 12.1582 2.0193 12.2744 1.84032 12.4543C1.66237 12.6329 1.54676 12.8749 1.53874 13.1374C1.52917 13.3988 1.62745 13.6338 1.79454 13.8003C1.96085 13.9662 2.19518 14.0646 2.45719 14.0537L5.01211 13.9579L0.301372 18.6835C0.110232 18.8748 0.00962139 19.1231 0.000568759 19.3671C-0.00770793 19.6099 0.0742813 19.8491 0.250937 20.0264C0.408711 20.2037 0.685464 20.2915 0.917729 20.2829C1.16163 20.2741 1.41019 20.1708 1.60159 19.9793L6.31284 15.2555H6.31258Z" fill="#6D6D6D"/>
<path fill-rule="evenodd" clip-rule="evenodd" d="M14.9752 13.9571L17.5296 14.0469C17.7911 14.0565 18.0262 13.9581 18.1923 13.7904C18.3583 13.6245 18.4561 13.3897 18.4455 13.1275C18.4359 12.8663 18.3193 12.6228 18.1405 12.4439C17.9618 12.2658 17.72 12.1501 17.4577 12.1421L12.7387 11.9759L12.6826 11.9664L12.6037 11.9614C12.478 11.9568 12.3587 11.9785 12.2504 12.0176C12.1448 12.0572 12.0494 12.117 11.9669 12.1931L11.9206 12.2389C11.8402 12.3215 11.7763 12.4235 11.7344 12.5366C11.693 12.6458 11.6726 12.7662 11.678 12.8904L11.6845 12.9694L11.6938 13.0258L11.8709 17.7491C11.8802 18.0103 11.9964 18.2533 12.1761 18.4324C12.3546 18.6108 12.5964 18.7262 12.8587 18.7345C13.1199 18.7438 13.3548 18.6455 13.5211 18.4782C13.6869 18.3118 13.7852 18.0773 13.7743 17.8151L13.6786 15.2583L18.4007 19.9728C18.5919 20.1641 18.8399 20.2648 19.0838 20.2736C19.3264 20.2818 19.5654 20.1998 19.7426 20.023C19.9198 19.8651 20.0074 19.5879 19.9989 19.3555C19.9901 19.1116 19.8869 18.8629 19.6955 18.6713L14.9752 13.9563V13.9571Z" fill="#6D6D6D"/>
<path fill-rule="evenodd" clip-rule="evenodd" d="M14.9758 6.58621L17.5302 6.49639C17.7915 6.48682 18.0266 6.58492 18.1929 6.75265C18.3587 6.91882 18.4567 7.15333 18.4461 7.41579C18.4365 7.6767 18.3196 7.92053 18.1411 8.09913C17.9624 8.27747 17.7206 8.39317 17.4583 8.4012L12.7391 8.56737L12.6829 8.57669L12.604 8.58161C12.4786 8.58627 12.3594 8.56452 12.2507 8.52544C12.1455 8.48584 12.05 8.42578 11.9675 8.34994L11.9212 8.30413C11.8408 8.22156 11.7769 8.11958 11.735 8.00646C11.6933 7.89723 11.6732 7.77687 11.6786 7.65263L11.6851 7.57368L11.6944 7.51726L11.8716 2.79395C11.8809 2.53278 11.9967 2.28947 12.1765 2.11062C12.3552 1.93228 12.5971 1.81657 12.8593 1.80855C13.1206 1.79897 13.3554 1.89759 13.5215 2.06454C13.6875 2.23098 13.7855 2.46574 13.7747 2.72769L13.679 5.28451L18.4013 0.570262C18.5925 0.378979 18.8405 0.278291 19.0842 0.26949C19.3268 0.261207 19.566 0.343259 19.7429 0.520047C19.9204 0.677939 20.0078 0.954897 19.9995 1.18759C19.9905 1.43142 19.8875 1.68017 19.6961 1.87171L14.9758 6.58673V6.58621Z" fill="#6D6D6D"/>
<path fill-rule="evenodd" clip-rule="evenodd" d="M6.31258 5.28753L6.22283 2.73097C6.21326 2.46955 6.31128 2.23426 6.47889 2.06809C6.64494 1.90191 6.87927 1.80407 7.14154 1.81468C7.40225 1.824 7.6459 1.941 7.82437 2.11985C8.00257 2.29871 8.11819 2.54073 8.12621 2.80293L8.29226 7.52572L8.30157 7.58189L8.30648 7.66083C8.31114 7.78637 8.28941 7.90596 8.25036 8.01441C8.21078 8.12002 8.15078 8.21553 8.07499 8.29784L8.02921 8.34443C7.9467 8.42493 7.8448 8.4886 7.73177 8.53079C7.62262 8.57221 7.50235 8.59266 7.3782 8.58722L7.29931 8.58075L7.24293 8.57143L2.52315 8.39387C2.26217 8.38481 2.01904 8.26859 1.84032 8.0887C1.66211 7.90984 1.5465 7.66782 1.53848 7.40562C1.52891 7.14393 1.62745 6.90916 1.79428 6.74273C1.96059 6.57681 2.19518 6.47845 2.45693 6.48933L5.01184 6.5851L0.301113 1.85946C0.109973 1.66818 0.00936274 1.41995 0.000568758 1.17587C-0.00770793 0.933074 0.0742812 0.693906 0.250937 0.5166C0.408711 0.339295 0.685464 0.251549 0.917987 0.26009C1.16163 0.268891 1.41019 0.371909 1.60159 0.56345L6.3131 5.28753H6.31258Z" fill="#6D6D6D"/>
</svg>
