<svg width="42" height="41" viewBox="0 0 42 41" fill="none" xmlns="http://www.w3.org/2000/svg">
<g opacity="0.7">
<path fill-rule="evenodd" clip-rule="evenodd" d="M15.3833 13.6393C15.1917 11.8685 15.3886 10.0421 16.2068 8.44647C17.071 6.7623 18.2912 5.41181 19.9462 4.48514C20.6589 4.08649 21.4268 3.7798 22.2039 3.59271C24.1177 3.13274 25.9909 3.30161 27.6361 3.932C29.387 4.60287 30.8801 5.79631 31.8912 7.30535C32.2139 7.78851 32.4834 8.26824 32.753 8.75003C32.8671 8.95323 32.9822 9.15802 33.0996 9.36143L34.2624 11.3755L34.7108 12.1428C35.5938 13.65 37.1635 16.3282 37.5452 17.1446C37.8025 17.6976 37.9979 18.2671 38.1323 18.844C38.612 20.8991 38.3178 23.0251 37.4265 24.8583C36.6458 26.4633 35.4065 27.8473 33.8284 28.7648C33.0814 29.1982 32.2806 29.5164 31.4381 29.7124C29.4978 30.1653 27.6332 30 26.0014 29.3746C24.2608 28.7085 22.7838 27.5208 21.7591 26.0067C21.4404 25.5341 21.1703 25.0515 20.9011 24.5705C20.7847 24.3633 20.6686 24.1549 20.5503 23.9498L17.2472 18.2159L17.006 17.8074C16.6899 17.2745 16.3738 16.7437 16.1042 16.1658C15.6859 15.2712 15.4719 14.4659 15.3821 13.6389L15.3833 13.6393ZM21.7424 10.2188C21.7465 10.5421 21.8428 10.8069 21.9673 11.0467C22.2165 11.5264 22.5241 12.0184 22.7932 12.4919C22.9177 12.7094 23.0554 12.9054 23.1802 13.0383C23.4413 13.3168 23.777 13.4487 24.1115 13.4584C24.3006 13.4624 24.4893 13.4304 24.6626 13.3644C24.8368 13.2981 25.001 13.1979 25.1395 13.0678C25.3873 12.835 25.5552 12.5042 25.567 12.1013C25.5797 11.6295 25.3328 11.2221 25.1189 10.8683C24.92 10.5219 24.7282 10.1639 24.5225 9.8224C24.3955 9.61169 24.2641 9.41741 24.1419 9.29259C23.8469 8.9888 23.4752 8.85534 23.1146 8.85959C22.9312 8.8619 22.7499 8.89929 22.5833 8.9677C22.4167 9.03612 22.2623 9.13487 22.1332 9.2607C21.8924 9.49472 21.7365 9.82391 21.7424 10.2188V10.2188ZM19.4634 19.2599C21.0943 19.1682 24.735 17.6973 26.1369 16.9018C26.029 16.6854 25.7955 16.2661 25.5523 15.8448C25.2901 15.3908 25.0235 14.9457 24.8987 14.7647C24.5282 14.8387 24.1615 14.8785 23.7911 14.8361C23.5074 14.8034 23.1061 14.6688 22.7541 14.477C22.3913 14.2796 22.0384 13.8865 21.8363 13.5291L20.5044 11.1759C20.2032 10.6451 20.237 9.97854 20.55 9.18918C20.6918 8.83184 20.8567 8.63841 21.0072 8.46076C21.0625 8.39571 21.1159 8.33285 21.1632 8.26497L19.9441 6.1478C18.9838 6.71501 17.898 8.16515 17.4351 9.16279C16.7465 10.6463 16.5534 12.2259 16.8389 13.8357C16.9843 14.6572 17.2948 15.4261 17.6551 16.1279C18.1903 17.1696 18.878 18.2257 19.4634 19.2599V19.2599ZM22.3975 7.54915L22.5943 7.52201C23.1087 7.4439 23.865 7.32974 24.7697 7.99049C25.0075 8.16389 25.229 8.33289 25.3522 8.55749L26.8699 11.3266C27.2695 12.0558 27.061 12.9727 26.1519 14.039C26.2459 14.2388 26.4942 14.6892 26.7549 15.1409C26.9973 15.5625 27.2451 15.9769 27.3822 16.1828C28.8003 15.3416 31.8186 12.9701 32.762 11.5638C32.4845 11.1442 31.831 9.98817 31.4005 9.22769L31.0378 8.59033C30.2536 7.25243 29.0967 6.17885 27.7315 5.50638C26.4183 4.85936 24.9107 4.58404 23.3563 4.80452C22.9475 4.8622 22.4255 4.97888 21.9559 5.12721C21.6587 5.22087 21.3838 5.32727 21.1762 5.4375L22.3967 7.54961L22.3975 7.54915ZM27.4511 28.3604C29.3714 28.8736 31.4102 28.5081 33.097 27.5331C34.7831 26.5586 36.1186 24.975 36.6341 23.0511C36.9834 21.7475 37.0156 20.6142 36.8372 19.595C36.6577 18.5721 36.2674 17.6592 35.7731 16.8032L33.5023 12.896C29.9905 16.4729 25.275 19.7773 20.213 20.5472C20.5323 21.2 21.6729 23.1276 22.1994 24.0174L22.455 24.4507C22.9147 25.2488 23.5824 26.1649 24.5045 26.9224C25.4497 27.6996 26.2905 28.0481 27.4511 28.3604V28.3604Z" fill="#6D6D6D"/>
<path fill-rule="evenodd" clip-rule="evenodd" d="M15.8919 36.0324L16.8129 37.7664C16.9068 37.9439 17.0619 38.0626 17.2378 38.1084C17.4121 38.1551 17.6057 38.1298 17.7753 38.0223C17.9454 37.9155 18.0623 37.7444 18.1124 37.5575C18.1625 37.3705 18.1465 37.1652 18.0513 36.9874L16.3493 33.7843L16.334 33.743L16.3072 33.6891C16.2623 33.604 16.2021 33.533 16.1341 33.4762C16.067 33.421 15.9904 33.3808 15.9085 33.3555L15.86 33.3418C15.7738 33.3201 15.682 33.3165 15.5906 33.3319C15.5015 33.3459 15.414 33.3794 15.3334 33.4302L15.2828 33.4647L15.2489 33.4929L12.1776 35.423C12.0076 35.5298 11.8902 35.7 11.8405 35.8878C11.7905 36.0747 11.8065 36.2801 11.9025 36.4574C11.9964 36.6349 12.1522 36.7532 12.3266 36.7999C12.5009 36.8466 12.6945 36.8213 12.8641 36.7137L14.5265 35.6686L13.6103 39.1104C13.5565 39.3112 13.5853 39.5145 13.6723 39.68C13.7601 39.845 13.9061 39.9721 14.0918 40.0219C14.2646 40.079 14.4826 40.0312 14.6339 39.9363C14.7924 39.8373 14.9184 39.6727 14.9723 39.4719L15.8893 36.0317L15.8919 36.0324Z" fill="#6D6D6D"/>
<path fill-rule="evenodd" clip-rule="evenodd" d="M12.1883 29.6169L11.1476 27.9531C11.0408 27.783 11.0156 27.5894 11.0639 27.4141C11.1106 27.2398 11.2293 27.0848 11.4072 26.9917C11.5847 26.8977 11.7913 26.882 11.9783 26.9321C12.1652 26.9822 12.335 27.0988 12.4414 27.2701L14.3644 30.3456L14.3925 30.3795L14.4262 30.4305C14.4775 30.5119 14.5089 30.5995 14.5241 30.6869C14.5383 30.7726 14.5348 30.859 14.5158 30.9426L14.5034 30.9914C14.4791 31.0769 14.4364 31.1582 14.3773 31.2297C14.3201 31.299 14.2479 31.3589 14.1636 31.4033L14.1084 31.4298L14.067 31.4451L10.8598 33.1398C10.6824 33.2338 10.4762 33.2503 10.2888 33.1994C10.1019 33.1493 9.93204 33.0327 9.82644 32.8609C9.71971 32.6908 9.69521 32.4967 9.74192 32.3224C9.78863 32.1481 9.90734 31.9931 10.0853 31.9L11.8216 30.9829L8.38287 30.0554C8.18202 30.0016 8.02031 29.875 7.92051 29.7169C7.82197 29.5592 7.78441 29.3684 7.83417 29.1827C7.87111 29.0044 8.02155 28.8396 8.17934 28.756C8.34435 28.6682 8.54988 28.6414 8.75073 28.6952L12.1886 29.6211L12.1883 29.6169Z" fill="#6D6D6D"/>
<path fill-rule="evenodd" clip-rule="evenodd" d="M20.5736 33.3296L21.6147 34.9943C21.7215 35.1644 21.7468 35.358 21.6985 35.5332C21.6518 35.7076 21.533 35.8626 21.3551 35.9557C21.1776 36.0496 20.971 36.0654 20.7841 36.0153C20.5971 35.9652 20.4273 35.8486 20.3209 35.6772L18.398 32.6018L18.3698 32.5679L18.3366 32.5177C18.2853 32.4362 18.2539 32.3486 18.2387 32.2613C18.2245 32.1756 18.228 32.0892 18.247 32.0056L18.2594 31.9568C18.2837 31.8712 18.3264 31.79 18.3855 31.7185C18.4422 31.6484 18.5149 31.5893 18.5992 31.5449L18.6544 31.5184L18.6957 31.5031L21.9029 29.8083C22.0804 29.7144 22.2866 29.6979 22.474 29.7488C22.6609 29.7989 22.8308 29.9155 22.9364 30.0873C23.0431 30.2574 23.0676 30.4514 23.0209 30.6258C22.9742 30.8001 22.8555 30.9551 22.6775 31.0482L20.9412 31.9653L24.3799 32.8928C24.5808 32.9466 24.7425 33.0732 24.8423 33.2313C24.9413 33.3898 24.9784 33.5798 24.9286 33.7655C24.8917 33.9438 24.7412 34.1086 24.5834 34.1922C24.4184 34.28 24.2129 34.3068 24.0121 34.253L20.5742 33.3271L20.5736 33.3296Z" fill="#6D6D6D"/>
<path fill-rule="evenodd" clip-rule="evenodd" d="M16.8696 26.9142L15.949 25.181C15.8551 25.0035 15.7001 24.8848 15.5242 24.839C15.3498 24.7923 15.1562 24.8176 14.9866 24.9251C14.8165 25.0319 14.6996 25.2029 14.6495 25.3899C14.5994 25.5768 14.6155 25.7822 14.7107 25.96L16.4126 29.163L16.4279 29.2044L16.4552 29.2591C16.5001 29.3442 16.5603 29.4152 16.6283 29.472C16.6954 29.5272 16.772 29.5674 16.8539 29.5927L16.9024 29.6064C16.9886 29.6281 17.0804 29.6317 17.1718 29.6163C17.2604 29.6014 17.3484 29.5688 17.429 29.518L17.4796 29.4835L17.5135 29.4553L20.5848 27.5252C20.7548 27.4184 20.8722 27.2482 20.9219 27.0604C20.9719 26.8735 20.9559 26.6681 20.8599 26.4907C20.766 26.3133 20.6102 26.195 20.4358 26.1483C20.2615 26.1016 20.0679 26.1269 19.8983 26.2344L18.2359 27.2796L19.1521 23.8378C19.2059 23.637 19.1771 23.4336 19.0901 23.2682C19.0028 23.104 18.8563 22.976 18.6706 22.9263C18.4977 22.8691 18.2798 22.917 18.1285 23.0119C17.97 23.1109 17.8439 23.2754 17.7901 23.4763L16.8731 26.9165L16.8696 26.9142Z" fill="#6D6D6D"/>
<path fill-rule="evenodd" clip-rule="evenodd" d="M19.463 19.26C21.0939 19.1683 24.7347 17.6974 26.1365 16.9019C26.0287 16.6855 25.7951 16.2662 25.5519 15.8449C25.2897 15.3909 25.0232 14.9458 24.8984 14.7648C24.5279 14.8388 24.1611 14.8786 23.7907 14.8362C23.507 14.8035 23.1058 14.6689 22.7537 14.4771C22.391 14.2797 22.038 13.8866 21.8359 13.5292L20.504 11.176C20.2029 10.6452 20.2366 9.97864 20.5497 9.18928C20.6914 8.83194 20.8563 8.63851 21.0068 8.46086C21.0622 8.39581 21.1156 8.33295 21.1629 8.26507L19.9437 6.1479C18.9835 6.71511 17.8977 8.16525 17.4347 9.16289C16.7461 10.6464 16.553 12.226 16.8386 13.8358C16.984 14.6573 17.2944 15.4262 17.6547 16.128C18.19 17.1697 18.8777 18.2258 19.463 19.26V19.26Z" fill="#FFED00"/>
</g>
</svg>
