<svg width="27" height="27" viewBox="0 0 27 27" fill="none" xmlns="http://www.w3.org/2000/svg">
<path fill-rule="evenodd" clip-rule="evenodd" d="M8.33221 20.1201L8.21374 23.4943C8.20145 23.8397 8.33084 24.1503 8.55206 24.3696C8.7709 24.5889 9.08054 24.7181 9.42672 24.7041C9.77085 24.6914 10.0921 24.5374 10.328 24.3013C10.5632 24.0652 10.7155 23.7458 10.7264 23.3993L10.9453 17.1659L10.9579 17.0917L10.9644 16.9875C10.9705 16.8215 10.9418 16.664 10.8903 16.5208C10.8381 16.3814 10.7589 16.2554 10.6588 16.1464L10.5984 16.0852C10.4895 15.979 10.355 15.8946 10.2058 15.8392C10.0617 15.7846 9.90297 15.7576 9.7391 15.7648L9.63497 15.7733L9.56055 15.7856L3.33074 16.0196C2.98593 16.0319 2.66535 16.1853 2.4291 16.4228C2.19422 16.6585 2.04162 16.978 2.03104 17.3244C2.01841 17.6695 2.14813 17.9797 2.36868 18.1994C2.58819 18.4184 2.8975 18.5482 3.24334 18.5339L6.61566 18.4074L0.397791 24.645C0.145499 24.8975 0.0126996 25.2251 0.000750725 25.5473C-0.010174 25.8677 0.0980466 26.1834 0.331221 26.4175C0.539473 26.6515 0.904769 26.7673 1.21134 26.756C1.53328 26.7444 1.86136 26.6081 2.114 26.3553L8.33255 20.1201H8.33221Z" fill="#313131"/>
<path fill-rule="evenodd" clip-rule="evenodd" d="M19.7664 18.4064L23.138 18.5249C23.4831 18.5375 23.7935 18.4077 24.0126 18.1863C24.2318 17.9673 24.3609 17.6575 24.3469 17.3114C24.3342 16.9666 24.1803 16.6451 23.9444 16.4091C23.7085 16.174 23.3893 16.0213 23.0431 16.0107L16.8143 15.7913L16.7402 15.7787L16.6361 15.7722C16.4702 15.7661 16.3128 15.7948 16.1697 15.8464C16.0304 15.8986 15.9045 15.9775 15.7956 16.078L15.7344 16.1385C15.6283 16.2475 15.544 16.3821 15.4886 16.5314C15.434 16.6755 15.4071 16.8344 15.4142 16.9984L15.4228 17.1026L15.435 17.1771L15.6689 23.4116C15.6812 23.7563 15.8345 24.0771 16.0718 24.3135C16.3073 24.5489 16.6265 24.7013 16.9727 24.7122C17.3175 24.7245 17.6275 24.5947 17.847 24.374C18.0659 24.1543 18.1956 23.8448 18.1812 23.4987L18.0549 20.1238L24.2878 26.3467C24.5401 26.5992 24.8675 26.7321 25.1894 26.7437C25.5097 26.7546 25.8251 26.6463 26.059 26.413C26.2928 26.2046 26.4086 25.8386 26.3973 25.5318C26.3857 25.21 26.2495 24.8817 25.9968 24.6289L19.7664 18.4053V18.4064Z" fill="#313131"/>
<path fill-rule="evenodd" clip-rule="evenodd" d="M19.7671 8.67723L23.1387 8.55868C23.4835 8.54603 23.7939 8.67552 24.0134 8.89691C24.2322 9.11625 24.3616 9.42579 24.3476 9.77222C24.335 10.1166 24.1807 10.4384 23.9451 10.6742C23.7092 10.9096 23.39 11.0623 23.0438 11.0729L16.8147 11.2922L16.7406 11.3045L16.6365 11.311C16.4709 11.3172 16.3135 11.2885 16.1701 11.2369C16.0312 11.1846 15.9052 11.1053 15.7963 11.0052L15.7352 10.9448C15.629 10.8358 15.5447 10.7012 15.4894 10.5519C15.4344 10.4077 15.4078 10.2488 15.415 10.0848L15.4235 9.98063L15.4358 9.90615L15.6696 3.67169C15.6819 3.32696 15.8349 3.00581 16.0722 2.76973C16.3081 2.53433 16.6273 2.38161 16.9734 2.37102C17.3183 2.35838 17.6282 2.48855 17.8474 2.70891C18.0666 2.9286 18.196 3.23847 18.1816 3.58422L18.0553 6.95906L24.2886 0.736557C24.5408 0.484076 24.8682 0.351174 25.1898 0.339557C25.5101 0.328625 25.8259 0.436928 26.0594 0.670276C26.2936 0.878684 26.409 1.24425 26.398 1.5514C26.3861 1.87323 26.2502 2.20156 25.9976 2.45438L19.7671 8.67791V8.67723Z" fill="#313131"/>
<path fill-rule="evenodd" clip-rule="evenodd" d="M8.3322 6.96307L8.21374 3.58858C8.20111 3.24351 8.33049 2.93295 8.55172 2.71361C8.7709 2.49426 9.0802 2.36512 9.42637 2.37913C9.7705 2.39143 10.0921 2.54585 10.3277 2.78194C10.5629 3.01802 10.7155 3.33746 10.7261 3.68355L10.9453 9.91733L10.9575 9.99147L10.964 10.0957C10.9702 10.2614 10.9415 10.4192 10.8899 10.5624C10.8377 10.7018 10.7585 10.8278 10.6585 10.9365L10.5981 10.998C10.4891 11.1042 10.3546 11.1883 10.2054 11.244C10.0614 11.2986 9.90263 11.3256 9.73876 11.3184L9.63463 11.3099L9.56021 11.2976L3.3304 11.0632C2.98593 11.0513 2.66501 10.8979 2.4291 10.6604C2.19388 10.4243 2.04128 10.1049 2.0307 9.75881C2.01806 9.4134 2.14813 9.10352 2.36833 8.88384C2.58785 8.66484 2.8975 8.53501 3.243 8.54936L6.61532 8.67577L0.39745 2.43823C0.145157 2.18575 0.0123582 1.85811 0.000750725 1.53593C-0.010174 1.21546 0.0980465 0.899775 0.331221 0.665744C0.539473 0.431712 0.904769 0.315892 1.21168 0.327167C1.53328 0.338783 1.86136 0.474761 2.11399 0.727583L8.33289 6.96307H8.3322Z" fill="#313131"/>
</svg>
