<svg width="39" height="44" viewBox="0 0 39 44" fill="none" xmlns="http://www.w3.org/2000/svg">
<g opacity="0.7">
<path fill-rule="evenodd" clip-rule="evenodd" d="M11.992 19.6881C11.7953 17.8706 11.9975 15.996 12.8372 14.3583C13.7242 12.6297 14.9766 11.2436 16.6752 10.2925C17.4067 9.88333 18.1948 9.56856 18.9925 9.37654C20.9567 8.90443 22.8793 9.07775 24.568 9.72477C26.365 10.4133 27.8975 11.6382 28.9353 13.1871C29.2665 13.683 29.5431 14.1754 29.8199 14.6699C29.937 14.8784 30.055 15.0886 30.1756 15.2974L31.3691 17.3646L31.8292 18.1521C32.7355 19.6991 34.3467 22.4479 34.7384 23.2859C35.0025 23.8534 35.203 24.438 35.341 25.0301C35.8333 27.1394 35.5314 29.3214 34.6166 31.2031C33.8153 32.8504 32.5433 34.2709 30.9236 35.2126C30.1569 35.6574 29.335 35.984 28.4703 36.1852C26.4788 36.65 24.5649 36.4804 22.8902 35.8385C21.1036 35.1548 19.5877 33.9357 18.536 32.3817C18.2088 31.8966 17.9316 31.4013 17.6553 30.9076C17.5358 30.695 17.4167 30.481 17.2952 30.2706L13.9051 24.3854L13.6575 23.9661C13.333 23.4192 13.0086 22.8744 12.7319 22.2813C12.3026 21.3631 12.0829 20.5365 11.9907 19.6877L11.992 19.6881ZM18.5188 16.1774C18.523 16.5092 18.6218 16.781 18.7497 17.0271C19.0055 17.5195 19.3211 18.0244 19.5973 18.5104C19.7251 18.7337 19.8664 18.9348 19.9945 19.0713C20.2626 19.3571 20.607 19.4925 20.9504 19.5025C21.1445 19.5065 21.3381 19.4737 21.516 19.406C21.6948 19.3379 21.8634 19.2351 22.0055 19.1015C22.2599 18.8626 22.4321 18.5231 22.4443 18.1095C22.4573 17.6253 22.2039 17.2072 21.9844 16.844C21.7802 16.4885 21.5834 16.121 21.3722 15.7705C21.2419 15.5543 21.1071 15.3549 20.9816 15.2267C20.6788 14.915 20.2973 14.778 19.9272 14.7823C19.7389 14.7847 19.5529 14.8231 19.3819 14.8933C19.2109 14.9635 19.0524 15.0649 18.9199 15.194C18.6728 15.4342 18.5128 15.7721 18.5188 16.1774ZM16.1797 25.4569C17.8536 25.3628 21.5904 23.8531 23.0292 23.0367C22.9185 22.8145 22.6788 22.3842 22.4291 21.9518C22.1601 21.4858 21.8865 21.0289 21.7584 20.8431C21.3781 20.9191 21.0017 20.96 20.6215 20.9165C20.3303 20.8829 19.9185 20.7448 19.5572 20.5479C19.1848 20.3453 18.8226 19.9419 18.6152 19.575L17.2481 17.1598C16.939 16.6149 16.9737 15.9308 17.295 15.1206C17.4405 14.7538 17.6097 14.5553 17.7642 14.373C17.821 14.3062 17.8758 14.2417 17.9243 14.172L16.673 11.999C15.6875 12.5812 14.573 14.0696 14.0978 15.0935C13.3911 16.6161 13.1929 18.2375 13.486 19.8897C13.6352 20.7329 13.9539 21.5221 14.3237 22.2423C14.873 23.3115 15.5789 24.3955 16.1797 25.4569ZM19.1912 13.4373L19.3932 13.4095C19.9212 13.3293 20.6974 13.2121 21.6259 13.8903C21.8701 14.0683 22.0973 14.2417 22.2238 14.4723L23.7815 17.3145C24.1917 18.0629 23.9777 19.004 23.0446 20.0983C23.1411 20.3035 23.3959 20.7657 23.6635 21.2293C23.9123 21.6621 24.1666 22.0873 24.3073 22.2987C25.7629 21.4354 28.8607 19.0013 29.8291 17.5578C29.5443 17.1272 28.8735 15.9407 28.4316 15.1601L28.0594 14.506C27.2545 13.1328 26.0671 12.0309 24.6658 11.3407C23.318 10.6766 21.7707 10.394 20.1753 10.6203C19.7557 10.6795 19.2199 10.7993 18.7379 10.9515C18.4329 11.0476 18.1507 11.1568 17.9377 11.27L19.1903 13.4378L19.1912 13.4373ZM24.378 34.7975C26.3491 35.3243 28.4416 34.9491 30.1729 33.9484C31.9035 32.9481 33.2742 31.3228 33.8033 29.3482C34.1618 28.0102 34.1949 26.847 34.0117 25.8009C33.8275 24.751 33.4269 23.8141 32.9196 22.9354L30.5889 18.9252C26.9845 22.5964 22.1446 25.988 16.9491 26.7782C17.2768 27.4483 18.4475 29.4267 18.9879 30.3399L19.2502 30.7847C19.722 31.6038 20.4073 32.5441 21.3537 33.3216C22.3239 34.1193 23.1869 34.477 24.378 34.7975Z" fill="#6D6D6D"/>
<path fill-rule="evenodd" clip-rule="evenodd" d="M18.6146 19.5755L17.2475 17.1603C16.9384 16.6154 16.973 15.9313 17.2944 15.1211C17.4399 14.7543 17.6091 14.5558 17.7636 14.3735C17.8204 14.3067 17.8752 14.2422 17.9237 14.1725L16.6724 11.9995C15.6868 12.5817 14.5724 14.0701 14.0972 15.094C13.3905 16.6166 13.1923 18.2379 13.4854 19.8902C13.6346 20.7333 13.9533 21.5225 14.3231 22.2428C14.8724 23.312 15.5783 24.396 16.179 25.4574C17.853 25.3633 21.5897 23.8536 23.0286 23.0371C22.9179 22.815 22.6781 22.3846 22.4285 21.9523C22.1595 21.4862 21.8858 21.0294 21.7577 20.8436C21.3775 20.9196 21.0011 20.9605 20.6209 20.917C20.3297 20.8834 19.9179 20.7453 19.5565 20.5484C19.1842 20.3458 18.822 19.9423 18.6146 19.5755V19.5755Z" fill="#FFED00"/>
<path fill-rule="evenodd" clip-rule="evenodd" d="M12.1346 10.6806L10.5724 7.97471C10.189 7.31057 9.28557 7.28528 9.0382 8.04511C8.92613 8.38818 9.07311 8.64087 9.30267 9.03657L10.5607 11.2156C10.7738 11.5846 10.8861 11.8683 11.2781 11.974C11.9022 12.1419 12.6172 11.5165 12.1351 10.6814L12.1346 10.6806Z" fill="#6D6D6D"/>
<path fill-rule="evenodd" clip-rule="evenodd" d="M4.4112 15.5037C4.11595 15.9262 4.26354 16.5786 4.86831 16.7434C5.13586 16.8158 7.26612 16.935 7.72925 16.9646C8.07498 16.9863 8.80152 17.1609 9.15379 16.6682C9.45271 16.2501 9.27489 15.5757 8.70876 15.4171C8.4346 15.3409 7.6276 15.3136 7.27988 15.2941C6.80239 15.2662 6.33166 15.2234 5.84816 15.1946C5.59641 15.18 5.40501 15.1579 5.13185 15.1479C4.85704 15.1389 4.60304 15.2285 4.4112 15.5037Z" fill="#6D6D6D"/>
<path fill-rule="evenodd" clip-rule="evenodd" d="M7.42195 23.953L9.9188 22.5147C11.0819 21.8432 10.2193 20.465 9.14077 21.0855L6.74947 22.4617C6.46789 22.6232 6.28655 22.7191 6.16919 22.96C5.85921 23.5905 6.46637 24.5036 7.42277 23.9525L7.42195 23.953Z" fill="#6D6D6D"/>
</g>
</svg>
