<svg  
  xmlns="http://www.w3.org/2000/svg"
  xmlns:xlink="http://www.w3.org/1999/xlink"
  xmlns:ev="http://www.w3.org/2001/xml-events" >
  <defs>
    <symbol id="arrow_next_g" width="17" height="14" viewBox="0 0 17 14">
      <path d="M10.0261 1L16 6.97441L10 13" stroke="#6D6D6D" stroke-width="2" stroke-miterlimit="22.9256" stroke-linecap="round" stroke-linejoin="round"/>
      <line x1="1" y1="7" x2="9" y2="7" stroke="#6D6D6D" stroke-width="2" stroke-linecap="round"/>
    </symbol>

    <symbol id="arrow_prev_g" width="13" height="12" viewBox="0 0 13 12">
      <path d="M6.2873 11.0146L1.29773 6.04728L6.28626 1.01455" stroke="#6D6D6D" stroke-width="1.5" stroke-miterlimit="22.9256" stroke-linecap="round" stroke-linejoin="round"/>
      <line x1="11.9282" y1="5.91837" x2="5.09491" y2="5.93396" stroke="#6D6D6D" stroke-width="1.5" stroke-linecap="round"/>
    </symbol>

    <symbol id="menu_arrow" preserveAspectRatio="none" viewBox="0 0 8 14">
      <path d="M1.026 1L7 6.974 1 13" stroke-width="2"/>
    </symbol>

    <symbol id="close" width="19" height="19" viewBox="0 0 19 19">
      <path d="M1 18L18 1.00001" stroke-width="2" stroke-linecap="round" />
      <path
        d="M18 18L1.00001 1.00001"
        stroke-width="2"
        stroke-linecap="round"
      />
    </symbol>
    <symbol id="filter" width="20" height="22" viewBox="0 0 20 22">
      <path d="M19 3H1" stroke-width="1.5" stroke-linecap="round"/>
      <path d="M19 11H1" stroke-width="1.5" stroke-linecap="round"/>
      <path d="M6.5 17V21" stroke-width="1.5" stroke-linecap="round"/>
      <path d="M14 9V13" stroke-width="1.5" stroke-linecap="round"/>
      <path d="M5 1V5" stroke-width="1.5" stroke-linecap="round"/>
      <path d="M19 19H1" stroke-width="1.5" stroke-linecap="round"/>
    </symbol>
    <symbol id="plus" viewBox="0 0 13 14">
      <line x1="1" y1="-1" x2="12" y2="-1" transform="matrix(1 0 0 -1 0 6.18262)" stroke-width="2" stroke-linecap="round"/>
      <line x1="1" y1="-1" x2="12" y2="-1" transform="matrix(0 -1 -1 0 5.57123 13.6113)" stroke-width="2" stroke-linecap="round"/>
    </symbol>
    <symbol id="minus" viewBox="0 0 13 3">
      <line x1="1" y1="-1" x2="12" y2="-1" transform="matrix(1 0 0 -1 0 0.516113)" stroke-width="2" stroke-linecap="round"/>
    </symbol>
    <symbol id="lamp" width="26" height="26" viewBox="0 0 26 26">
      <path fill-rule="evenodd" clip-rule="evenodd" d="M12.1742 5.69394C11.5216 5.81137 11.3023 5.78591 10.5857 6.04446C9.15583 6.5607 8.10365 7.32188 7.19787 8.50535C6.04141 10.0167 5.37895 12.3602 6.04921 14.5926C6.33175 15.5342 6.76648 16.3915 7.38304 17.1277C7.91091 17.758 8.70929 18.589 9.08007 19.3085C9.42946 19.9865 9.24496 21.0756 9.32317 21.8438C9.37086 22.3137 9.52104 22.6818 9.80782 22.9265C9.77929 23.0503 9.7637 23.1892 9.76236 23.3457C9.75456 24.2395 9.66543 24.9761 10.2766 25.4644C10.5478 25.6813 10.8934 25.7825 11.2767 25.782L14.6707 25.7772C14.8388 25.777 14.9684 25.7564 15.0342 25.7373C15.6984 25.5432 16.1055 25.0637 16.1144 24.302C16.1204 23.7801 16.1454 23.3459 16.0561 22.9794C16.2856 22.8137 16.4502 22.5644 16.5213 22.191C16.7359 21.0653 16.0607 20.1601 17.4471 18.3899C18.0515 17.618 18.5816 17.1222 19.146 16.2091C19.5974 15.4793 20.0243 14.2825 20.0789 13.2803C20.1489 11.9941 19.9735 10.9818 19.5424 9.96011C18.8487 8.31659 17.2956 6.75099 15.5857 6.1463C14.6725 5.82344 13.3073 5.49026 12.1744 5.69372L12.1742 5.69394ZM22.1953 12.1901L24.7794 12.187C25.9388 12.1857 25.8628 10.7667 24.8153 10.7689L22.2312 10.7731C21.0522 10.7755 21.0852 12.1919 22.1953 12.1901ZM1.09157 12.1872L3.6398 12.1899C4.8279 12.1901 4.77665 10.774 3.67568 10.7731L1.2353 10.7694C0.94852 10.7685 0.767364 10.7623 0.570387 10.8923C0.0545472 11.2329 0.115823 12.1861 1.0918 12.1872H1.09157ZM3.73628 3.29056C3.29643 3.40996 3.02904 3.92927 3.34745 4.37592C3.48828 4.57346 4.87135 5.83837 5.16994 6.11602C5.39254 6.32321 5.78917 6.84383 6.30679 6.70951C6.74598 6.59537 7.00624 6.04468 6.71033 5.62349C6.56705 5.4198 6.03272 4.95273 5.80744 4.74598C5.49816 4.46196 5.20225 4.17092 4.88918 3.88295C4.72629 3.73326 4.60864 3.61123 4.42771 3.45342C4.24566 3.29451 4.02194 3.21352 3.73651 3.291L3.73628 3.29056ZM13.9836 3.91105V1.18897C13.9836 0.521076 13.3024 0.108221 12.7772 0.573533C12.5394 0.783801 12.5405 1.03797 12.5412 1.43656V3.62835C12.541 3.99972 12.5022 4.26289 12.7553 4.5131C13.1593 4.91191 13.9836 4.75146 13.9836 3.91127V3.91105ZM22.0527 3.47888C21.6744 3.58862 20.517 4.789 20.1567 5.1202C19.9564 5.30413 19.3875 5.77076 19.3351 6.07387C19.244 6.60042 19.6939 7.02469 20.2385 6.89124C20.5346 6.81859 21.8052 5.52977 22.1133 5.24465C22.3009 5.07082 22.8765 4.61275 22.9362 4.29032C23.0303 3.78111 22.5641 3.33073 22.0529 3.4791L22.0527 3.47888ZM12.373 23.2983H12.3863H12.4037H13.73L13.7806 23.2985H13.7837H13.7886C14.2318 23.3023 14.5725 23.3095 14.6358 23.3209L14.6427 24.3279C14.1135 24.3203 11.518 24.3911 11.2297 24.3084L11.2283 23.3273C11.2825 23.3126 11.7765 23.3029 12.3728 23.2983H12.373ZM15.1041 21.8594C15.2398 20.9303 14.8368 19.8146 15.6706 18.4088C16.5345 16.9521 17.6218 16.3549 18.2874 14.689C18.6201 13.8562 18.7282 12.9418 18.6061 11.9359C18.2199 8.7549 14.7082 6.0866 11.0516 7.38772C9.47403 7.94895 8.40023 8.99963 7.72463 10.4063C6.96346 11.9912 7.13035 14.0867 7.9811 15.4795C8.80622 16.8307 10.0621 17.6902 10.5917 19.2023C10.755 19.6678 10.749 20.914 10.7564 21.4606C10.7635 21.9702 10.5897 21.8813 11.9353 21.8813C12.4592 21.8813 14.7837 21.9142 15.1039 21.8594H15.1041Z"/>
    </symbol>
  </defs>
</svg>