<svg width="75" height="92" viewBox="0 0 75 92" fill="none" xmlns="http://www.w3.org/2000/svg">
<path d="M19.8975 6.66123H20.9428L20.5943 7.63923C20.4138 8.1455 20.1787 8.5498 19.9336 8.97153L19.9224 8.99192C19.6255 9.50346 19.3098 10.0489 19.0976 10.8453C18.876 11.6782 18.7818 13.8343 18.7497 16.2617C18.7172 18.6953 18.7454 21.4017 18.7656 23.3288L18.9261 44.4738L56.2414 44.4616C56.2669 42.4194 56.3193 37.3455 56.3409 31.7354C56.3541 28.1734 56.3558 24.3926 56.3313 21.0339C56.3114 18.3098 56.2739 15.8666 56.2129 14.0543C56.1598 12.4743 56.0888 11.3776 55.9956 11.0022C55.7731 10.1058 55.4438 9.53866 55.1347 9.00804C55.012 8.79849 54.8909 8.59158 54.7752 8.36722C54.6604 8.14452 54.5527 7.90733 54.4575 7.63989L54.1083 6.66188H55.1543C55.6822 6.66188 56.121 6.64609 56.4712 6.59576C56.8111 6.54708 57.0682 6.46516 57.2413 6.33358C57.3955 6.21745 57.5076 6.03093 57.5822 5.75691C57.6608 5.46972 57.6993 5.08878 57.7023 4.59666C57.7056 4.06341 57.7059 3.5874 57.6747 3.18212C57.6446 2.78802 57.5835 2.46334 57.4675 2.2255C57.3809 2.04818 57.237 1.90838 57.0144 1.81067C56.7793 1.70804 56.4579 1.64784 56.0251 1.63501C47.4519 1.37414 38.604 1.46658 29.8547 1.55704L29.6292 1.55935C26.004 1.59685 22.3934 1.63501 18.8203 1.64586C18.743 1.64784 18.6671 1.65409 18.5955 1.6633C18.5235 1.67251 18.4529 1.686 18.3862 1.70212C18.1806 1.75245 18.0084 1.84127 17.8682 1.95937C17.7173 2.08634 17.5999 2.25083 17.5123 2.44031C17.4132 2.65446 17.3452 2.90382 17.3037 3.17422C17.2579 3.47391 17.243 3.80155 17.253 4.1394C17.2861 5.30031 17.3986 5.93652 17.7677 6.27108C18.1368 6.60629 18.7881 6.66221 19.8971 6.66221L19.8975 6.66123ZM27.966 68.4516H46.9163C47.1518 68.4516 47.3667 68.5476 47.5215 68.7012C47.6771 68.8555 47.7736 69.069 47.7736 69.3019C47.7736 69.5358 47.6767 69.749 47.5219 69.9026C47.3663 70.0569 47.1518 70.1526 46.9163 70.1526H27.966C27.7305 70.1526 27.5156 70.0566 27.3607 69.9029C27.2052 69.7486 27.1087 69.5358 27.1087 69.3022C27.1087 69.0687 27.2055 68.8552 27.3604 68.7016C27.5159 68.5473 27.7305 68.4516 27.966 68.4516ZM27.966 64.7849H46.9163C47.1518 64.7849 47.3667 64.881 47.5215 65.0346C47.6771 65.1889 47.7736 65.4024 47.7736 65.6353C47.7736 65.8692 47.6767 66.0824 47.5219 66.236C47.3663 66.3903 47.1518 66.486 46.9163 66.486H27.966C27.7305 66.486 27.5156 66.3899 27.3607 66.2363C27.2052 66.082 27.1087 65.8692 27.1087 65.6356C27.1087 65.4021 27.2055 65.1886 27.3604 65.035C27.5159 64.8807 27.7305 64.7849 27.966 64.7849ZM27.966 60.9861H46.9163C47.1518 60.9861 47.3667 61.0821 47.5215 61.2358C47.6771 61.39 47.7736 61.6035 47.7736 61.8364C47.7736 62.0703 47.6767 62.2835 47.5219 62.4371C47.3663 62.5914 47.1518 62.6871 46.9163 62.6871H27.966C27.7305 62.6871 27.5156 62.5911 27.3607 62.4375C27.2052 62.2832 27.1087 62.0703 27.1087 61.8368C27.1087 61.6032 27.2055 61.3897 27.3604 61.2361C27.5159 61.0818 27.7305 60.9861 27.966 60.9861ZM27.966 57.3869H46.9163C47.1518 57.3869 47.3667 57.483 47.5215 57.6366C47.6771 57.7909 47.7736 58.0044 47.7736 58.2373C47.7736 58.4712 47.6767 58.6843 47.5219 58.838C47.3663 58.9922 47.1518 59.088 46.9163 59.088H27.966C27.7305 59.088 27.5156 58.9919 27.3607 58.8383C27.2052 58.684 27.1087 58.4712 27.1087 58.2376C27.1087 58.004 27.2055 57.7905 27.3604 57.6369C27.5159 57.4826 27.7305 57.3869 27.966 57.3869ZM27.966 53.7381H46.9163C47.1518 53.7381 47.3667 53.8341 47.5215 53.9877C47.6771 54.142 47.7736 54.3555 47.7736 54.5884C47.7736 54.8223 47.6767 55.0355 47.5219 55.1891C47.3663 55.3434 47.1518 55.4391 46.9163 55.4391H27.966C27.7305 55.4391 27.5156 55.3431 27.3607 55.1894C27.2052 55.0352 27.1087 54.8223 27.1087 54.5887C27.1087 54.3552 27.2055 54.1417 27.3604 53.9881C27.5159 53.8338 27.7305 53.7381 27.966 53.7381ZM20.2782 36.2998C20.2716 34.3576 20.2557 32.3841 20.2401 30.4057L20.2377 30.1334C20.2165 27.3799 20.1943 24.6114 20.1923 21.855C20.1907 19.098 20.2099 16.3498 20.2686 13.6375C20.2901 12.6154 20.4351 11.6743 20.7037 10.8384C20.9683 10.0147 21.354 9.29194 21.8608 8.6929C22.3682 8.0932 22.9917 7.61851 23.7303 7.29185C24.442 6.97703 25.2624 6.79774 26.191 6.77373L49.0663 6.77965C49.9564 6.81321 50.7424 7.00302 51.4249 7.32639C52.138 7.66292 52.7409 8.14715 53.2337 8.75112C53.7249 9.35411 54.1 10.0765 54.3573 10.8914C54.619 11.7184 54.7613 12.6434 54.7828 13.6372C54.9022 19.1572 54.8568 24.8236 54.8113 30.4452L54.8107 30.512C54.7954 32.465 54.7788 34.4155 54.7705 36.3428L54.7669 37.0718C43.2732 37.0718 31.7732 37.0751 20.2805 37.0291L20.2779 36.2994L20.2782 36.2998ZM21.7119 30.1218L21.7494 35.5695L29.6414 35.5793L29.603 35.1444C29.5396 34.4243 29.4932 33.4434 29.4836 32.3805C29.4756 31.465 29.4945 30.4893 29.5532 29.5715C29.604 28.7747 29.6862 28.0109 29.8079 27.3516C29.9174 26.7585 30.0596 26.2467 30.239 25.869C30.5641 25.1854 30.9531 24.6282 31.4154 24.1775C31.879 23.7265 32.4179 23.3817 33.0427 23.1225C33.6324 22.8784 34.294 22.7149 35.0386 22.6139C35.7811 22.5126 36.6062 22.4721 37.5255 22.4721C38.4405 22.4721 39.2643 22.5149 40.0072 22.6185C40.7524 22.7225 41.4167 22.8886 42.0083 23.135C42.6341 23.3952 43.1747 23.741 43.639 24.1906C44.1026 24.64 44.4903 25.1933 44.811 25.869C44.9954 26.2572 45.1407 26.7845 45.2505 27.3964C45.3725 28.0747 45.4531 28.8609 45.4992 29.6797C45.5519 30.6107 45.5625 31.5943 45.5426 32.5111C45.5211 33.522 45.4617 34.4516 45.3811 35.1398L45.3267 35.5991L53.3004 35.6089L53.3379 30.3952C53.382 24.8009 53.4271 19.1628 53.309 13.6665C53.2911 12.8335 53.1773 12.0651 52.9684 11.3858C52.7645 10.7229 52.469 10.143 52.0836 9.66926C51.7291 9.23404 51.2893 8.88435 50.7663 8.64059C50.2622 8.40604 49.6789 8.26722 49.0176 8.24222L26.2262 8.2363C25.5211 8.25472 24.9016 8.3863 24.3687 8.61724C23.8201 8.85475 23.3611 9.1995 22.9937 9.63406C22.598 10.1015 22.2962 10.6788 22.089 11.346C21.8764 12.0296 21.7606 12.8099 21.7427 13.6665C21.6257 19.0694 21.6688 24.6038 21.7116 30.086L21.7119 30.1222V30.1218ZM73.5093 81.1808C72.7286 81.5045 71.8511 81.989 70.9556 82.4831L70.9497 82.4864C69.9425 83.0424 68.9101 83.6118 67.9029 84.0194C66.8874 84.4302 65.8951 84.677 64.9761 84.5819L64.6598 84.5487L64.4674 84.3036C64.2064 83.9707 63.9875 83.6671 63.8366 83.3707C63.6824 83.0674 63.5975 82.7703 63.6078 82.4568C63.6197 82.115 63.7365 81.8032 63.9845 81.5091C64.226 81.2235 64.5948 80.9538 65.1141 80.6899L73.2907 76.5624L73.3899 76.497V71.3204C72.508 71.7063 71.5337 72.2284 70.6363 72.709L70.5703 72.7442C70.0808 73.0064 69.6125 73.257 69.181 73.4722L68.8225 73.6567C68.1218 74.0192 66.8493 74.6768 66.3747 74.7607C66.188 74.7923 66.0022 74.8055 65.8228 74.8005C65.6374 74.7959 65.457 74.7719 65.2876 74.7318C65.0869 74.6834 64.8969 74.612 64.7244 74.5212C64.55 74.4295 64.3905 74.315 64.2525 74.1841C64.1029 74.0423 63.9756 73.8794 63.8777 73.7005C63.7829 73.5274 63.7139 73.337 63.6778 73.1343C63.6555 73.0011 63.6466 72.8633 63.6519 72.7235C63.6569 72.5889 63.6764 72.4498 63.7099 72.3096C63.9099 71.4813 65.5323 70.5454 66.9912 69.8187C66.8191 69.8825 66.632 69.922 66.4334 69.9404C65.3297 70.0437 63.9471 69.2963 63.0168 68.7933L62.983 68.7753C62.8155 68.6845 62.6636 68.6025 62.5273 68.5358C61.1848 67.8834 59.8403 67.2367 58.4952 66.5903L58.4458 71.6823C59.3969 72.2846 60.8913 72.9794 62.3927 73.6761L62.401 73.6798C65.1658 74.964 67.9586 76.2615 68.132 77.5194C68.1543 77.6789 68.1599 77.8342 68.1499 77.9813C68.14 78.1329 68.1138 78.2786 68.073 78.4165C68.0146 78.6145 67.9264 78.7951 67.8137 78.955C67.6989 79.1188 67.5553 79.2642 67.3915 79.3856C67.2426 79.4965 67.0761 79.5882 66.8987 79.658C66.7199 79.7284 66.5276 79.7784 66.3279 79.8057C66.124 79.833 65.9104 79.8386 65.6941 79.8205C65.4829 79.8027 65.2653 79.7623 65.0471 79.6988C64.8889 79.6527 64.5599 79.4975 64.1202 79.2738C63.6821 79.0511 63.1325 78.7599 62.5303 78.4415C61.8272 78.0698 61.0459 77.6559 60.2901 77.2687C59.6049 76.9174 58.9529 76.594 58.4295 76.3578L58.4435 81.541C58.8043 81.7824 59.3512 82.0775 59.9989 82.4028C60.6668 82.7384 61.4558 83.1124 62.2603 83.4934C63.6005 84.1289 64.9851 84.7852 66.0633 85.4073C67.1613 86.0405 67.9523 86.6475 68.0816 87.1777C68.1261 87.3593 68.1493 87.5383 68.1519 87.7087C68.1546 87.8863 68.1364 88.0571 68.0982 88.2176C68.0551 88.3998 67.9865 88.5712 67.8976 88.7278C67.8064 88.886 67.6926 89.0311 67.5596 89.1574C67.4306 89.2798 67.283 89.3861 67.1229 89.4713C66.9643 89.5555 66.7899 89.6216 66.6052 89.666C66.4118 89.7124 66.2042 89.7367 65.988 89.7348C65.7797 89.7328 65.5621 89.7068 65.3413 89.6555C64.7025 89.5078 63.2924 88.7538 61.7884 87.9501L61.7609 87.9357C60.5637 87.2965 59.3054 86.6244 58.4514 86.2507C58.5025 88.4064 58.6614 89.4933 59.5203 90.019C60.4134 90.5651 62.0869 90.5437 65.1791 90.5042L65.268 90.5032C66.2486 90.4911 67.36 90.4762 68.6222 90.4759C69.8592 90.4753 70.7898 90.4042 71.4826 90.2654C72.1635 90.1298 72.6125 89.9282 72.8994 89.663C73.1498 89.4318 73.2861 89.1078 73.3614 88.7045C73.4386 88.2883 73.4529 87.7867 73.4569 87.2152L73.5103 81.1808H73.5093ZM67.2993 69.6667L68.9582 68.8782C69.4274 68.644 69.8523 68.4394 70.2363 68.2588L71.274 67.7801C71.9068 67.4913 72.3787 67.2762 72.7127 67.085C73.0363 66.9002 73.234 66.737 73.3328 66.5488C73.4386 66.3472 73.4861 66.0541 73.4996 65.6274C73.5133 65.1892 73.4927 64.6096 73.4655 63.8448L73.4635 63.7911C73.4403 63.1299 73.4121 62.3444 73.3985 61.4391C72.3674 61.9302 70.9842 62.6552 69.7544 63.2997L69.7345 63.3102C69.0082 63.6911 68.3333 64.0448 67.7961 64.3145C67.2552 64.5859 66.8503 64.7728 66.6692 64.8172C66.506 64.856 66.3442 64.8813 66.1863 64.8919C66.0241 64.9027 65.8623 64.9001 65.7064 64.884C65.4756 64.8603 65.2521 64.807 65.0445 64.7284C64.8345 64.6488 64.6379 64.5412 64.4648 64.4122C64.2757 64.2718 64.1119 64.1043 63.9835 63.9158C63.8585 63.7323 63.7647 63.526 63.7096 63.303C63.6837 63.1941 63.6658 63.0832 63.6585 62.972C63.6516 62.8628 63.6536 62.751 63.6655 62.6385C63.6993 62.3148 64.0157 61.9312 64.5211 61.518C65.0849 61.0571 65.8895 60.5502 66.7982 60.0436C67.7699 59.5021 68.8862 58.9301 69.9425 58.411C71.3665 57.7109 72.6832 57.106 73.3922 56.799L73.4068 55.395C73.4237 53.9614 73.4356 52.8903 73.3239 52.1126C73.2154 51.3603 72.9889 50.8882 72.5329 50.63C71.4441 50.0126 69.0062 50.0576 64.2028 50.1468L64.0625 50.1491C62.9916 50.1688 61.805 50.1908 60.4864 50.2073C60.1491 50.3188 59.849 50.4264 59.5923 50.5438C59.3406 50.6586 59.1333 50.7833 58.9787 50.9294C58.8637 51.0383 58.7682 51.1715 58.6945 51.3379C58.6259 51.4922 58.5751 51.6758 58.544 51.8945L66.1628 55.802L66.438 55.9352C67.0714 56.2395 67.6223 56.504 67.9287 56.9398C68.2395 57.3816 68.2909 57.983 67.9115 58.9439C67.8909 58.9949 67.886 59.0031 67.8571 59.0521C67.2479 60.0656 66.2118 60.1574 64.9884 59.8015C63.7955 59.4548 62.4245 58.6801 61.1006 57.9326L61.091 57.9274C60.1037 57.3698 59.1466 56.8293 58.4123 56.5438L58.4388 61.7552C59.057 62.1118 59.7123 62.4562 60.3846 62.7934C61.076 63.1408 61.7894 63.4829 62.5018 63.8237C63.43 64.2685 64.3586 64.7136 65.2527 65.1764C66.1445 65.6376 66.9952 66.1143 67.7606 66.6176L68.0538 66.8104L68.0873 67.1597C68.1791 68.1256 68.0415 68.792 67.7457 69.2312C67.6223 69.4148 67.4714 69.5588 67.299 69.6681L67.2993 69.6667ZM70.2343 81.2054L70.2419 81.2018C71.597 80.4544 72.912 79.729 74.0817 79.4475L75 79.2257L74.93 87.2268C74.9241 87.9696 74.9018 88.6258 74.7669 89.2048C74.6292 89.793 74.3749 90.3012 73.9046 90.7361C73.4705 91.1378 72.8639 91.4408 72.0049 91.6418C71.1556 91.8405 70.0546 91.9411 68.6212 91.9411C67.3932 91.9385 66.2944 91.953 65.324 91.9648L65.196 91.9664C61.2502 92.0171 59.2242 92.0434 58.1546 91.1934C57.0784 90.3391 57.0028 88.6387 56.959 85.2405L56.9481 84.4013L57.7858 84.5033C58.6444 84.6072 60.621 85.6625 62.4593 86.6445L62.5004 86.6665C63.9093 87.4185 65.2269 88.1228 65.6769 88.2271C65.7887 88.2531 65.8941 88.2673 65.9893 88.2696C66.0868 88.2722 66.178 88.2627 66.2576 88.2439C66.3146 88.2308 66.368 88.2104 66.4145 88.1863C66.4606 88.1627 66.5024 88.1334 66.5355 88.1018C66.5654 88.0735 66.5916 88.0403 66.6115 88.0048C66.632 87.9689 66.6483 87.9278 66.6582 87.8847C66.6705 87.833 66.6761 87.7758 66.6745 87.7159C66.6728 87.6564 66.6639 87.5909 66.6473 87.5228C66.6045 87.3472 65.9548 86.9567 65.0229 86.4705C64.0665 85.9714 62.8251 85.3826 61.6242 84.8135C60.6857 84.3694 59.7674 83.9338 58.9953 83.5361C58.2196 83.1364 57.5892 82.7716 57.2293 82.4693L56.97 82.2512C56.97 79.6169 56.9571 76.9812 56.9488 74.3469L57.8711 74.5831C58.8348 74.8295 61.3049 76.1364 63.2201 77.1493L63.2251 77.152C64.3583 77.752 65.2892 78.2448 65.462 78.2944C65.5797 78.3283 65.6958 78.3507 65.8062 78.3606C65.9173 78.3708 66.0261 78.3688 66.1249 78.3556C66.2035 78.3448 66.2772 78.3267 66.3412 78.3027C66.4035 78.2796 66.4606 78.2497 66.5063 78.2158C66.5412 78.1902 66.573 78.1576 66.5989 78.1211C66.6237 78.0855 66.6433 78.0464 66.6556 78.0046C66.6665 77.9668 66.6738 77.9224 66.6761 77.874C66.6785 77.826 66.6758 77.7717 66.6682 77.7148C66.6042 77.248 64.1752 76.12 61.7725 75.0042C60.894 74.5966 60.0194 74.1903 59.2451 73.7998C58.4637 73.4061 57.7759 73.0245 57.2734 72.6682L56.9627 72.4475C57.0048 69.7204 57.0214 66.9854 57.0423 64.2576L61.6302 66.4696L63.1793 67.2225C63.3077 67.2854 63.4814 67.3795 63.6741 67.4834L63.7209 67.5087C64.1089 67.7183 64.5928 67.9802 65.063 68.1805C65.5237 68.3766 65.9704 68.5141 66.2938 68.4838C66.3952 68.4746 66.4815 68.418 66.5408 68.2963C66.6078 68.1601 66.644 67.9486 66.6387 67.641C65.9485 67.2068 65.1851 66.7887 64.3858 66.3794C63.57 65.9616 62.7143 65.5511 61.86 65.1419C61.0684 64.7629 60.2745 64.3823 59.5173 63.9987C58.7519 63.6115 58.011 63.2148 57.3222 62.802L56.9683 62.5894C56.9683 60.0038 56.9478 57.4112 56.9282 54.8253L57.7132 54.873C58.7817 54.9365 60.2705 55.7776 61.8256 56.6559C62.8636 57.2418 63.9361 57.8478 64.814 58.2077C65.6497 58.5504 66.303 58.6738 66.5587 58.3455C66.6668 58.035 66.6254 57.8346 66.4931 57.683C66.3495 57.5185 66.0911 57.3938 65.7956 57.2527C63.8114 56.2829 61.8262 55.2509 59.8473 54.2229C58.9343 53.7482 58.022 53.2742 57.0695 52.786L57.0158 52.7584L57.031 52.2965C57.0489 51.7245 57.1365 51.2547 57.2907 50.86C57.4466 50.4609 57.6707 50.1389 57.9596 49.8662C58.2309 49.6099 58.5469 49.4112 58.9091 49.2392C59.2656 49.0704 59.6705 48.9266 60.1239 48.7786C60.2499 48.7378 60.2088 48.7457 60.3464 48.7441C61.7211 48.728 62.9704 48.7043 64.093 48.6835L64.1822 48.6816C69.2556 48.5881 71.8315 48.5408 73.2662 49.3543C74.1052 49.83 74.5204 50.4978 74.7191 51.4801C74.9144 52.4442 74.8995 53.7114 74.8799 55.4065L74.8796 55.4296C74.8746 55.875 74.869 56.376 74.869 57.2859V57.83L74.34 57.9882C74.1304 58.0511 72.6808 58.7001 70.9672 59.537C69.8393 60.0877 68.5967 60.7203 67.5205 61.3203C66.7925 61.7262 66.1538 62.0953 65.714 62.3727C65.3542 62.5996 65.137 62.7506 65.1337 62.7845L65.1313 62.8717L65.1426 62.9513C65.1556 63.0029 65.1804 63.0553 65.2139 63.1016C65.2501 63.1523 65.2968 63.199 65.3512 63.2395C65.4156 63.2882 65.4925 63.3299 65.5777 63.3609C65.6626 63.3921 65.7572 63.4145 65.8563 63.4244C65.9299 63.4319 66.0079 63.4336 66.0865 63.428C66.1624 63.423 66.24 63.4109 66.3163 63.3924C66.4931 63.349 67.6598 62.7371 69.0238 62.0223L69.0716 61.9973C70.8047 61.0894 72.835 60.0252 73.8602 59.6278L74.8693 59.236V60.3104C74.8693 61.7996 74.9075 62.8743 74.937 63.7254L74.9396 63.798C75.003 65.5698 75.0348 66.4801 74.6451 67.2229C74.4276 67.6377 74.1241 67.9348 73.6771 68.217C73.2383 68.4943 72.6636 68.7575 71.8922 69.1088L70.8671 69.5815C70.4857 69.7602 70.0695 69.9602 69.6221 70.1832L68.8819 70.5365C68.2027 70.8559 67.2824 71.2885 66.5206 71.6954C65.7777 72.0919 65.1884 72.4577 65.1423 72.6462L65.1247 72.7675C65.1231 72.8057 65.125 72.8432 65.1313 72.8771C65.1406 72.9231 65.1572 72.9676 65.1794 73.0067C65.203 73.0485 65.2338 73.088 65.2693 73.1215C65.3144 73.1643 65.3688 73.2024 65.4282 73.2334C65.4895 73.2649 65.5572 73.2903 65.6278 73.307C65.7014 73.3245 65.7817 73.335 65.8639 73.336C65.9435 73.3376 66.0288 73.3307 66.116 73.3156C66.3853 73.2656 67.5351 72.6698 68.1566 72.3475L68.5128 72.1629C68.9107 71.9642 69.3641 71.7211 69.8387 71.4678L69.9345 71.4165C70.5812 71.0701 71.2664 70.703 71.9433 70.3724C72.6201 70.0418 73.2891 69.7473 73.9006 69.5486L74.869 69.2332V76.898L74.607 77.3868C74.5782 77.4326 74.5463 77.4717 74.5019 77.5171C74.4505 77.5701 74.4077 77.6046 74.3662 77.6316C74.3235 77.6589 74.285 77.6763 74.2389 77.697L74.2329 77.7003C74.2123 77.7112 74.1742 77.7319 74.1029 77.7839C72.5591 78.8964 67.7762 80.9877 65.7834 81.9926C65.5217 82.1242 65.3393 82.2334 65.2239 82.3249C65.1267 82.4019 65.0823 82.4594 65.0809 82.5005C65.0789 82.5598 65.1121 82.6456 65.1728 82.7539C65.2345 82.8634 65.323 82.992 65.4298 83.1354C66.0895 83.1243 66.8546 82.8821 67.6608 82.5285C68.4968 82.162 69.3747 81.6775 70.2337 81.2035L70.2343 81.2054ZM1.47879 66.8206L1.47812 71.6997C2.60338 72.1807 3.93028 72.8784 5.16233 73.5258L5.27343 73.5844C5.87668 73.9015 6.45606 74.2067 6.94921 74.4515L7.48216 74.7015C8.03335 74.9551 8.74571 75.2828 9.39871 75.6759C10.0564 76.072 10.6523 76.5348 10.9597 77.0543C11.2181 77.4908 11.3133 77.9355 11.1697 78.3744C11.0284 78.806 10.6543 79.227 9.97577 79.6221C9.85273 79.6938 9.89485 79.6784 9.75887 79.708C8.297 80.0231 6.70346 79.1215 5.44721 78.4109L5.40608 78.3875C5.13712 78.2356 4.88474 78.0928 4.69405 77.9961C4.19957 77.7451 3.58836 77.4513 2.9798 77.1589L1.49272 76.4351L1.48078 81.6571L8.71984 85.226L9.19376 85.4477C9.7015 85.6806 10.1293 85.8764 10.4706 86.1836C10.8158 86.4942 11.0672 86.9139 11.2135 87.5863L11.2572 87.787L11.1846 87.988C10.8394 88.9393 10.3286 89.4341 9.72869 89.6295C9.1334 89.8229 8.45552 89.7177 7.77069 89.4729C7.45231 89.3594 7.13957 89.2153 6.84076 89.0617C6.5456 88.9101 6.25542 88.7443 5.9848 88.5903L5.04161 88.0719C4.02148 87.5228 2.61831 86.7669 1.48575 86.2504C1.50864 88.1469 1.62637 89.2216 2.18452 89.8104C2.75428 90.4124 3.81222 90.5315 5.73109 90.5315C6.5456 90.5315 7.16942 90.5216 7.86553 90.5111L9.66502 90.4864C10.3081 90.4799 10.9995 90.4756 11.7408 90.4766C12.5072 90.4776 13.2026 90.4697 13.8095 90.4177C14.4068 90.3664 14.9146 90.2706 15.3132 90.0983C15.6409 89.9565 15.9012 89.7433 16.0849 89.4305C16.272 89.1117 16.3837 88.6854 16.4103 88.1235L16.3924 81.2058C15.9924 81.3591 15.5215 81.5821 15.0383 81.8285C14.5083 82.0982 13.9498 82.4038 13.4537 82.6752L13.4301 82.6881C12.9479 82.9519 12.5185 83.1864 12.2077 83.3371C12.1155 83.3799 11.9072 83.4888 11.6714 83.6115L11.6184 83.6391C11.2629 83.825 10.8516 84.0404 10.4709 84.2204C10.0836 84.4036 9.72007 84.5559 9.46371 84.6128C9.27136 84.6559 9.08034 84.6789 8.89661 84.6822C8.70724 84.6855 8.52252 84.6687 8.34807 84.6332C8.15274 84.5931 7.96801 84.5299 7.79954 84.4474C7.62941 84.3635 7.4732 84.2575 7.33624 84.1339C7.19263 84.0042 7.06893 83.8526 6.97043 83.6848C6.87492 83.5216 6.80196 83.3407 6.75785 83.1473C6.72602 83.0065 6.70844 82.8571 6.70811 82.7038C6.70778 82.5565 6.72369 82.4029 6.75619 82.2446C6.88421 81.6278 7.71066 80.9738 8.84786 80.3205C9.96748 79.6767 11.3929 79.027 12.743 78.4119C13.6288 78.0082 14.4804 77.6201 15.1381 77.2993C15.7593 76.997 16.2212 76.75 16.3993 76.5993L16.4239 71.3083C15.9811 71.4968 15.4213 71.7708 14.8161 72.0803C14.1511 72.4208 13.4265 72.8074 12.7403 73.1735C12.0333 73.5505 11.362 73.9087 10.7949 74.191C10.2305 74.4726 9.77711 74.6742 9.5128 74.7341C9.31381 74.7791 9.11582 74.8025 8.9238 74.8048C8.72647 74.8071 8.53379 74.787 8.35272 74.7479C8.1597 74.7051 7.97564 74.6393 7.8075 74.5548C7.63803 74.4689 7.48183 74.3614 7.34386 74.2364C7.19927 74.1044 7.07391 73.9518 6.97441 73.7817C6.8789 73.6179 6.80528 73.436 6.76084 73.2403C6.72602 73.0919 6.70811 72.9343 6.7091 72.7708C6.70976 72.6129 6.72801 72.4481 6.76515 72.281C6.88719 71.726 7.59127 71.1494 8.59183 70.5615C9.57349 69.9845 10.846 69.3898 12.1271 68.7917C12.9731 68.3969 13.8248 67.9986 14.5833 67.616C15.3139 67.2472 15.9519 66.8942 16.4 66.5788L16.3894 61.3861C15.5795 61.7262 14.4642 62.3513 13.6135 62.8276L12.2837 63.5622C11.7547 63.8556 11.1611 64.1846 10.5638 64.4399C9.95985 64.6981 9.34963 64.8817 8.79579 64.88C8.1985 64.8784 7.68446 64.707 7.31998 64.2826C6.96082 63.8638 6.75089 63.202 6.75354 62.2174L6.75454 61.8447L7.05401 61.6266C7.5717 61.2492 8.45088 60.7555 9.47632 60.2222L10.0109 59.9469L9.86168 59.9614C8.9563 60.0469 7.84663 59.735 6.68323 59.2511C5.52647 58.7695 4.31631 58.1179 3.19934 57.5168L3.05309 57.4382C2.49228 57.1389 1.95934 56.8537 1.48244 56.6178V61.8253C2.5931 62.3368 4.9 63.4063 6.97773 64.5185C9.10853 65.6603 11.0052 66.8567 11.1577 67.5739C11.1879 67.7167 11.2018 67.8591 11.2012 67.9963C11.2002 68.1371 11.1826 68.2759 11.1508 68.4085C11.1073 68.5966 11.0327 68.7729 10.9329 68.9332C10.8311 69.0966 10.7007 69.245 10.5502 69.373C10.4119 69.4901 10.2547 69.5911 10.0826 69.6727C9.91309 69.7529 9.72803 69.8154 9.53104 69.8566C9.32343 69.9 9.09891 69.9207 8.8651 69.9148C8.64157 69.9095 8.40677 69.8792 8.16766 69.8227C7.18003 69.5855 2.74897 67.1561 1.49139 66.5324L1.47945 66.8206H1.47879ZM10.2663 59.8166C11.0808 59.4041 11.9447 58.9801 12.7702 58.5758L15.1394 57.4086C15.741 57.1086 16.1897 56.879 16.3791 56.7681C16.4063 56.2734 16.4375 55.5773 16.4487 54.8443C16.457 54.3035 16.4557 53.7384 16.4348 53.215C16.4176 52.791 16.3887 52.3992 16.3449 52.0817C16.3071 51.808 16.2577 51.5906 16.1954 51.4606C15.554 50.1438 13.7034 50.1586 12.027 50.1718L11.7467 50.1741C10.8287 50.1797 9.89717 50.152 8.97852 50.1257L8.97355 50.126C8.35404 50.108 7.74084 50.0899 7.14919 50.0823C6.55721 50.0751 5.98049 50.0777 5.43593 50.0997C4.35478 50.1445 3.40264 50.2695 2.70818 50.5622C2.0522 50.8389 1.62471 51.2695 1.53915 51.9311C3.48555 53.1555 5.40443 53.9854 6.9638 54.6598C7.64632 54.9549 8.26384 55.2223 8.80308 55.4871C9.34333 55.7533 9.80331 56.0178 10.1648 56.3036C10.7422 56.7596 11.0874 57.2412 11.1405 57.7951C11.1932 58.3462 10.9554 58.9616 10.3708 59.6883L10.2673 59.8163L10.2663 59.8166ZM0.00364805 72.1902L0.00331641 71.6079C0.00331641 69.1591 0.00364805 66.8048 0.102477 64.3573L0.108447 64.2116L8.58553 68.417C8.69862 68.4394 8.80905 68.4516 8.91186 68.4522C9.02197 68.4532 9.1271 68.4437 9.22261 68.4236C9.29856 68.4081 9.3692 68.3854 9.43188 68.3575C9.49323 68.3298 9.54662 68.2969 9.58907 68.2608C9.62091 68.2338 9.64844 68.2025 9.66999 68.1696C9.68989 68.1394 9.70482 68.1061 9.71278 68.0719L9.71377 68.0683C9.72074 68.044 9.72405 68.0147 9.72405 67.9825C9.72405 67.9486 9.71941 67.9111 9.71145 67.8729C9.56055 67.1627 2.66805 63.9872 0.729942 63.0947L0.00132656 62.7595V54.4331L0.99625 54.7996C1.79318 55.0924 2.80038 55.6345 3.89745 56.225L3.90474 56.2293C4.87048 56.7507 5.9125 57.3126 6.8925 57.7497C7.83735 58.1718 8.71852 58.4761 9.40369 58.51C9.54397 58.2807 9.59504 58.0882 9.56951 57.9225C9.54298 57.7488 9.42889 57.5951 9.24616 57.4501C8.96758 57.2287 8.57094 57.0056 8.08541 56.7698C7.60188 56.5355 7.01885 56.2826 6.37481 56.0043L6.3695 56.002C4.67316 55.2681 2.56491 54.3555 0.382714 52.9321L0.0666599 52.7252L0.0507411 52.3498C-0.00895431 50.9287 0.551519 50.0293 1.52223 49.4698C2.47769 48.9191 3.83012 48.7023 5.37789 48.6381C6.50614 48.5921 7.74714 48.6279 9.00406 48.6641L9.04784 48.6651C9.95222 48.6908 10.8685 48.7174 11.7351 48.7125L12.015 48.7102C13.068 48.702 14.1767 48.6928 15.155 48.9516C16.1466 49.2135 17.0013 49.7481 17.5249 50.8261C17.6357 51.0567 17.7196 51.3735 17.7803 51.7455C17.8476 52.1607 17.8884 52.6472 17.9093 53.1584C17.9328 53.7417 17.9338 54.3706 17.9229 54.9641C17.9076 55.8368 17.8672 56.6346 17.8386 57.1152L17.829 57.2695L17.7577 57.4073C17.6304 57.6517 17.0818 58.0103 16.2922 58.4406C15.5175 58.8626 14.5007 59.3613 13.4232 59.8897C12.4399 60.3713 11.4002 60.8815 10.4726 61.3581C9.57481 61.8193 8.78053 62.2503 8.24361 62.594C8.27279 62.9023 8.34177 63.1112 8.43861 63.2408C8.53147 63.3658 8.65484 63.4181 8.79513 63.4181C9.14965 63.4188 9.61129 63.2635 10.0965 63.046C10.5913 62.8233 11.1067 62.5378 11.566 62.2832L12.0906 61.995C12.357 61.8536 12.5878 61.7236 12.8418 61.5812L12.8836 61.5578C14.2039 60.8183 16.1081 59.7512 17.0716 59.6821L17.8592 59.6245C17.8592 62.1753 17.8526 64.7346 17.8748 67.2847L17.6111 67.5032C16.6491 68.2996 14.6907 69.2144 12.7569 70.1174C11.6224 70.647 10.4964 71.1734 9.64446 71.6198C8.81403 72.055 8.24858 72.4063 8.20812 72.5912C8.19353 72.6531 8.1859 72.7113 8.18491 72.7636C8.18391 72.8172 8.18922 72.8685 8.1995 72.9139C8.21011 72.962 8.22835 73.0064 8.25123 73.0458C8.27577 73.087 8.30695 73.1255 8.3431 73.158C8.38356 73.1945 8.43198 73.2271 8.48504 73.2528C8.54042 73.2797 8.60244 73.3011 8.66744 73.3153C8.74671 73.3324 8.83127 73.3403 8.91717 73.3389C9.00207 73.338 9.09161 73.3268 9.18182 73.3064C9.34499 73.2692 9.72438 73.0922 10.2275 72.8369C10.7273 72.5833 11.3663 72.2422 12.0399 71.8833C13.0056 71.3681 14.0424 70.8151 14.9487 70.3806C15.8611 69.9437 16.6441 69.6256 17.0984 69.5848L17.9056 69.5118C17.8874 72.0017 17.8708 74.4979 17.8708 76.9878L17.8115 77.1233C17.6473 77.497 17.0656 77.9096 16.2531 78.3517C15.4551 78.7859 14.4277 79.2544 13.3555 79.7429C12.1477 80.2929 10.8719 80.8748 9.89186 81.3821C8.9301 81.8801 8.24924 82.3015 8.20082 82.5371C8.18988 82.591 8.18358 82.6433 8.18358 82.6904C8.18358 82.7387 8.18822 82.7844 8.19718 82.8256C8.20679 82.8683 8.22338 82.9095 8.2456 82.9466C8.26815 82.9848 8.29667 83.0203 8.32983 83.0503C8.36897 83.0854 8.41639 83.117 8.4678 83.1417C8.52086 83.167 8.58022 83.1874 8.64224 83.1999C8.71454 83.2144 8.79446 83.221 8.8787 83.2187C8.96028 83.2164 9.04883 83.2052 9.13937 83.1848C9.29325 83.1509 9.58078 83.0239 9.90679 82.8654C10.2315 82.7078 10.6062 82.5114 10.9296 82.3423L10.9505 82.3315C11.1577 82.2232 11.3445 82.1259 11.5587 82.0213C11.8562 81.8749 12.2485 81.6601 12.6893 81.4193L12.743 81.3896C14.1548 80.6172 16.0173 79.5988 17.0825 79.534L17.8612 79.4859L17.8698 82.2436C17.8768 84.2786 17.8838 86.3152 17.8838 88.1857L17.8834 88.1903C17.8416 89.0745 17.6466 89.7565 17.3133 90.2822C16.9774 90.8115 16.5025 91.1822 15.9029 91.4411C15.3746 91.6694 14.7574 91.7951 14.0583 91.8628C13.3661 91.9296 12.5914 91.9401 11.7401 91.9388C11.0085 91.9382 10.3223 91.9424 9.68227 91.9487L7.74515 91.9757C6.89681 91.9885 6.1536 92 5.73043 92C2.98809 92 1.56004 91.8184 0.804893 90.8552C0.0547208 89.8989 0 88.1962 0 85.1494V84.1102L0.985969 84.4582C2.24422 84.9013 4.34417 86.0323 5.74635 86.7873L6.17881 87.0195L6.71806 87.3218C6.96214 87.4616 7.22381 87.611 7.48746 87.7472C7.74979 87.8834 8.01544 88.0074 8.26748 88.0972C8.56696 88.2041 8.85979 88.2577 9.11284 88.2018C9.3483 88.1495 9.55591 87.9969 9.70979 87.6952C9.62456 87.4639 9.48892 87.3031 9.3105 87.1708C9.11715 87.0277 8.86643 86.9126 8.57458 86.779L8.06949 86.5415L0.00397969 82.565C0.00397969 79.71 0.0162504 76.8542 0.0228832 73.9992L1.11 74.588C1.48409 74.7903 1.89168 74.9979 2.31452 75.2068L3.6192 75.8397C4.17702 76.1075 4.73617 76.3769 5.3633 76.6947C5.62397 76.8266 5.87337 76.9677 6.13768 77.1174L6.17383 77.1378C6.68091 77.425 7.25399 77.7497 7.81579 77.9836C8.35869 78.2106 8.89163 78.353 9.33869 78.2934C9.51976 78.177 9.62821 78.074 9.67895 77.9849C9.71974 77.9128 9.71742 77.8494 9.68591 77.7951C9.50086 77.4816 9.03656 77.152 8.50162 76.8467C7.96005 76.5384 7.34121 76.2532 6.86265 76.0331L6.28858 75.7614L5.42267 75.3206L4.48677 74.8305C3.10847 74.1058 1.60647 73.3156 0.470931 72.8731L0.00232149 72.6902L0.00265313 72.1909L0.00364805 72.1902ZM53.0895 78.3717C52.8096 79.3958 52.338 80.1876 51.7556 80.7663C51.1039 81.414 50.3106 81.7966 49.4878 81.943C49.1734 81.9989 48.8531 82.0196 48.5367 82.0071C48.2157 81.9946 47.8953 81.9466 47.5849 81.867C47.2751 81.7874 46.9723 81.6745 46.6855 81.5321C46.4019 81.3923 46.131 81.2209 45.8802 81.0212C45.217 80.4945 44.693 79.7725 44.4223 78.8922C44.1799 78.104 44.1411 77.1888 44.3862 76.1736L44.42 76.0387C44.5567 75.5502 44.7944 75.069 45.1151 74.6337C45.4249 74.2146 45.8139 73.836 46.2653 73.5363C46.7508 73.2139 47.3113 72.9777 47.9261 72.8721C48.4866 72.7758 49.0945 72.7876 49.7336 72.9393L49.905 72.982C50.4731 73.1389 51.0174 73.4087 51.4949 73.7699C51.9605 74.1222 52.3638 74.5624 52.6656 75.0699C52.9492 75.5476 53.1442 76.0848 53.2185 76.6648C53.2874 77.2013 53.2526 77.7757 53.0898 78.3714L53.0895 78.3717ZM49.2272 80.5031C49.7727 80.4064 50.3013 80.1422 50.7404 79.6902C51.1361 79.2826 51.4611 78.7195 51.6614 77.9875C51.7705 77.5891 51.7947 77.2076 51.751 76.8536C51.7042 76.4723 51.5768 76.1203 51.3928 75.8095C51.1895 75.4663 50.9142 75.168 50.5978 74.9292C50.2722 74.6834 49.9014 74.5002 49.5144 74.3936L49.3794 74.3587C48.9539 74.2594 48.5506 74.2518 48.1795 74.3153C47.7739 74.3847 47.4048 74.54 47.0858 74.7518C46.78 74.9548 46.517 75.2098 46.3084 75.4907C46.0925 75.7822 45.9333 76.1029 45.8428 76.4253L45.8166 76.5243C45.6454 77.2427 45.668 77.8829 45.8292 78.429C46.0079 79.0343 46.3588 79.5264 46.8042 79.88C46.9723 80.0139 47.1554 80.1297 47.3468 80.2248C47.5408 80.3208 47.7461 80.3975 47.9543 80.4508C48.1629 80.5044 48.3782 80.5366 48.5931 80.5452C48.805 80.5537 49.0186 80.5403 49.2265 80.5034L49.2272 80.5031ZM21.5378 77.8635C21.4018 76.8753 21.5557 76.0134 21.9072 75.2953C22.3012 74.492 22.9436 73.8663 23.706 73.4422C23.9913 73.2837 24.2964 73.1524 24.6124 73.0518C24.9311 72.9504 25.2601 72.8794 25.5908 72.8412C25.9231 72.8031 26.2597 72.7965 26.5927 72.8238C26.9187 72.8508 27.2437 72.9103 27.5581 73.0027C28.3772 73.2445 29.1224 73.709 29.6726 74.411C30.1628 75.038 30.4977 75.8542 30.5899 76.872C30.6831 77.9023 30.5203 78.7849 30.1797 79.5129C29.7986 80.3268 29.1954 80.9485 28.481 81.3673C28.2021 81.5308 27.9046 81.664 27.5972 81.764C27.2851 81.8653 26.9624 81.9344 26.6361 81.9689C26.3124 82.0035 25.9828 82.0051 25.6578 81.9739C25.3347 81.943 25.0137 81.8778 24.7043 81.7811C23.8894 81.5262 23.1356 81.0459 22.5619 80.3353C22.0475 79.6981 21.6774 78.8751 21.5381 77.8632L21.5378 77.8635ZM24.429 74.7216C23.9249 75.0015 23.5004 75.4163 23.2421 75.9493C23.0096 76.4279 22.9094 77.0049 23.0006 77.6684C23.0981 78.377 23.3512 78.9504 23.7011 79.3919C24.0891 79.881 24.5988 80.21 25.1487 80.3817C25.3636 80.4488 25.5841 80.4936 25.8053 80.5149C26.0299 80.537 26.2567 80.5357 26.4796 80.512C26.7011 80.4886 26.921 80.4416 27.1316 80.3732C27.3388 80.306 27.5398 80.2159 27.7285 80.1054C28.2024 79.8277 28.6017 79.407 28.8528 78.8491C29.0793 78.3448 29.1861 77.726 29.1204 76.9977C29.0584 76.3088 28.8375 75.7585 28.5155 75.3397C28.157 74.8729 27.6698 74.566 27.1359 74.4081C26.9203 74.3446 26.6941 74.3031 26.4646 74.2854C26.2312 74.267 25.9927 74.2719 25.7579 74.2985C25.5231 74.3258 25.2903 74.3755 25.0664 74.4469C24.8459 74.5166 24.6307 74.6094 24.4287 74.7216H24.429ZM21.7059 80.3653C21.822 80.5258 21.9029 80.5975 21.9563 80.6449C22.1493 80.8153 22.2501 80.9041 22.3274 81.2423C22.348 81.3294 22.3626 81.4301 22.3735 81.565L22.4083 82.1147C22.4262 82.4272 22.4518 82.8667 22.5035 83.5835C22.5251 83.8802 22.5795 84.1378 22.6644 84.3536C22.7483 84.5664 22.8627 84.7418 23.0079 84.878C23.1582 85.0178 23.3489 85.1276 23.577 85.2063C23.8102 85.2865 24.0848 85.3362 24.3992 85.3536C27.1402 85.5096 33.8752 85.4461 39.2557 85.3954L39.7319 85.3908C41.7477 85.3724 43.5488 85.3553 44.8402 85.3546C45.4627 85.352 46.1784 85.376 46.8722 85.3994L46.9296 85.4013C48.3244 85.4487 49.6228 85.4925 50.6012 85.3082C51.55 85.13 52.1983 84.7335 52.337 83.9079C52.388 83.6042 52.3754 83.2266 52.3635 82.8608L52.3632 82.8525C52.3492 82.4104 52.335 81.9778 52.4109 81.5798C52.4381 81.438 52.5011 81.2923 52.59 81.1334C52.6756 80.9808 52.7873 80.813 52.9147 80.6218C53.2881 80.061 53.8539 79.2109 54.0963 78.201C54.3374 77.1983 54.2608 76.0295 53.3601 74.8163C53.2443 74.6597 53.1402 74.5446 53.0526 74.4479L53.046 74.4403C52.6414 73.9926 52.4212 73.7485 52.3622 72.6774L52.3768 57.2876C52.3741 56.6934 52.404 56.0289 52.4335 55.374L52.4341 55.3536C52.4908 54.1045 52.5452 52.8943 52.3526 51.9557C52.1658 51.0452 51.7423 50.3859 50.8505 50.1941C47.2847 50.1925 44.232 50.2076 41.4963 50.2205L41.3431 50.2214C35.4846 50.2501 31.0496 50.2721 26.0076 50.1043C25.3918 50.0839 24.8446 50.0839 24.3806 50.1369C23.9266 50.1892 23.5532 50.2928 23.2752 50.4784C23.0205 50.6488 22.8235 50.9149 22.6919 51.307C22.5562 51.7116 22.4876 52.2518 22.4912 52.9594L22.5151 72.4356C22.5101 72.6873 22.4833 72.9166 22.4402 73.1278C22.3971 73.3393 22.3357 73.5347 22.2627 73.7159C22.1904 73.8959 22.1072 74.0597 22.0183 74.2117C21.9284 74.364 21.8313 74.5068 21.7318 74.6433C21.3799 75.1278 21.1086 75.6045 20.9252 76.0756C20.7428 76.544 20.6443 77.0092 20.6374 77.4714C20.6301 77.9316 20.712 78.4004 20.8871 78.8797C21.0635 79.3613 21.3355 79.856 21.7062 80.3646L21.7059 80.3653ZM20.9 81.6749L20.7534 81.5252C20.6858 81.4508 20.6052 81.3528 20.5104 81.2229C20.0444 80.5857 19.7025 79.9544 19.4799 79.3284C19.2567 78.7001 19.1526 78.0744 19.1629 77.4493C19.1728 76.8273 19.2969 76.2121 19.5284 75.6025C19.7585 74.9949 20.0965 74.3906 20.5342 73.787C20.6052 73.6886 20.6735 73.5883 20.7345 73.4853C20.7952 73.3837 20.8496 73.2791 20.8927 73.1718C20.9355 73.0659 20.9713 72.9511 20.9969 72.8258C21.0221 72.6985 21.038 72.5603 21.041 72.4103L21.0171 52.966C21.0121 51.9896 21.1332 51.2241 21.3716 50.6248C21.6131 50.0175 21.9755 49.579 22.4478 49.2628C22.8985 48.9625 23.4275 48.7934 24.0324 48.7079C24.6297 48.623 25.3046 48.6181 26.0541 48.6424C31.0814 48.8095 35.4916 48.7875 41.3112 48.7595L41.7546 48.7572C44.4452 48.7444 47.4426 48.7293 50.9361 48.7319C51.0087 48.7316 51.0071 48.7303 51.0747 48.7431C54.1816 49.3349 54.0499 52.2732 53.9079 55.4118L53.9073 55.4362C53.8808 56.0286 53.8536 56.6313 53.8536 57.2872L53.836 72.5968C53.8665 73.1531 53.964 73.2649 54.1414 73.4613L54.1494 73.4699C54.2645 73.5975 54.3998 73.7475 54.55 73.9502C55.7555 75.5739 55.8855 77.0996 55.5967 78.3938C55.3095 79.6827 54.608 80.7357 54.1457 81.4301L53.8615 81.8518C53.8144 82.0995 53.8254 82.4482 53.8366 82.8029L53.8373 82.8226C53.8509 83.2631 53.8655 83.7174 53.7935 84.1483C53.5465 85.6188 52.6679 86.3284 51.414 86.655C50.183 86.9754 48.5921 86.9215 46.8821 86.8633L46.8181 86.8609C46.2082 86.8409 45.5794 86.8198 44.8396 86.8198C43.5687 86.8175 41.7861 86.8343 39.7883 86.8527L39.2912 86.8573C36.5827 86.8827 33.5293 86.9123 30.8091 86.9149C28.0864 86.9179 25.6956 86.8942 24.3166 86.8159C23.8274 86.7883 23.3883 86.7021 23.0016 86.5573C22.614 86.4122 22.2773 86.207 21.9964 85.9435C21.7096 85.6734 21.4844 85.349 21.3229 84.9717C21.162 84.5957 21.0632 84.1677 21.0284 83.6871L20.8994 81.6752L20.9 81.6749ZM43.976 34.3256C44.0287 33.6799 44.0638 32.9111 44.0735 32.1052C44.0827 31.337 44.0688 30.5304 44.0254 29.76C43.9839 29.0254 43.9156 28.3287 43.8161 27.7421C43.7282 27.2227 43.6151 26.7888 43.4748 26.4934C43.2381 25.9934 42.9535 25.5854 42.6159 25.2558C42.2796 24.9279 41.8876 24.6759 41.4353 24.4877C40.9484 24.2851 40.384 24.1479 39.7369 24.062C39.0882 23.9758 38.352 23.94 37.5252 23.94C36.6905 23.94 35.9516 23.9739 35.3025 24.0574C34.6555 24.141 34.0927 24.2752 33.6092 24.4752C33.1611 24.6611 32.7731 24.9117 32.4382 25.241C32.1019 25.572 31.817 25.9845 31.5749 26.4934C31.4386 26.7802 31.3282 27.1987 31.2409 27.7017C31.1424 28.2708 31.0721 28.9468 31.0267 29.6629C30.9779 30.4311 30.958 31.2393 30.9584 32.0137C30.959 32.8588 30.9859 33.6697 31.027 34.3487L43.975 34.3256H43.976ZM9.30287 28.1287L9.30519 30.3041L8.73808 30.4386C6.7688 30.9048 6.77642 31.2123 6.83877 33.8174C6.88156 35.5945 6.9051 37.3949 6.91207 39.1953C6.91936 40.9625 6.91008 42.7316 6.89051 44.4787L14.5537 44.4587L14.5574 31.8742C14.4934 31.3459 14.3385 31.0574 14.0977 30.8824C13.8517 30.7034 13.5028 30.6311 13.07 30.5423L12.2545 30.3659L12.1281 29.956C11.7892 28.8534 11.8708 22.2504 11.9421 16.4903L11.9431 16.4074C11.9825 13.1599 12.0193 10.1917 11.9789 8.69586L11.9742 8.51559C11.9693 8.32018 11.9659 8.20537 11.9467 8.10866C11.9288 8.01754 11.8927 7.93365 11.823 7.7968L11.4386 7.25369C11.0364 7.14842 10.6984 7.10039 10.4232 7.10894C10.1512 7.1175 9.94028 7.18197 9.78839 7.30007C9.61992 7.43133 9.49655 7.64581 9.41563 7.94023C9.33106 8.24617 9.29192 8.63796 9.29358 9.11002C9.31215 13.2467 9.30884 17.3884 9.30585 21.5267L9.3032 28.1287H9.30287ZM7.82972 29.1514L7.83171 21.3231C7.83436 17.2551 7.83701 13.1842 7.81911 9.11627C7.81612 8.41953 7.89571 7.82279 8.06585 7.33033C8.23863 6.83031 8.50627 6.43523 8.87472 6.14804C9.24649 5.85823 9.70051 5.69309 10.2417 5.65657C10.7747 5.62039 11.3949 5.70822 12.1072 5.92205C12.5214 6.04672 12.8246 6.38325 13.0368 6.79445C13.3131 7.33033 13.4364 8.0001 13.4484 8.48072L13.453 8.66099C13.4945 10.1818 13.4573 13.1924 13.4165 16.4808L13.4162 16.5163C13.3529 21.6198 13.2812 27.3924 13.4716 29.1297C14.1737 29.2748 14.7408 29.404 15.1726 29.7485C15.6196 30.1054 15.9088 30.685 16.0292 31.7351C16.3128 34.2217 16.207 38.0729 16.1121 41.524C16.069 43.0968 16.0279 44.587 16.0276 45.8232V45.917C12.4836 45.9308 8.9374 45.9459 5.39348 45.9459L5.40608 45.2011C5.43693 43.3228 5.4492 41.4178 5.44256 39.514C5.4356 37.6196 5.40973 35.7228 5.36496 33.8516C5.32384 32.141 5.29996 31.1406 5.61568 30.4719C5.93107 29.8031 6.56749 29.4827 7.83038 29.1514H7.82972ZM62.4829 30.2936C62.3449 30.3633 62.2083 30.4153 62.0723 30.4571C61.937 30.4982 61.8033 30.5311 61.668 30.5636C61.3851 30.6321 61.0853 30.7051 60.8651 30.9739C60.6379 31.2518 60.4807 31.7453 60.4807 32.6647L60.5093 44.4008L68.1622 44.457L68.1798 32.4489C68.1791 31.6206 68.0378 31.1804 67.8283 30.936C67.6263 30.7005 67.3447 30.6416 67.0645 30.583C66.9113 30.5515 66.7574 30.5189 66.6022 30.4758C66.445 30.432 66.2865 30.3771 66.1309 30.3021L65.7406 30.1133L65.7177 29.68C65.4905 25.4387 65.5578 20.9777 65.6235 16.5725L65.6656 13.5763C65.6769 12.5875 65.6859 11.6052 65.6862 10.6357L65.6872 10.2755C65.6905 9.41596 65.6945 8.59552 65.5144 7.99912C65.3429 7.43067 64.9964 7.06322 64.3022 7.06157C62.8921 7.05697 62.8968 8.61033 62.9011 10.3081C62.9163 14.7603 62.906 19.2167 62.8961 23.6709L62.8838 30.0899L62.4829 30.2939V30.2936ZM61.3201 29.1415L61.4107 29.1192L61.4266 10.3078C61.4196 7.84319 61.4137 5.58979 64.3019 5.59901C65.7419 5.60229 66.4622 6.17173 66.8207 7.05236C67.1719 7.91424 67.167 9.06857 67.1613 10.2785L67.1603 10.6354C67.158 12.5829 67.1278 14.5596 67.0983 16.5442L67.098 16.5752C67.035 20.7777 66.9713 25.0311 67.1666 29.1057L67.3656 29.1494C67.9331 29.2679 68.5022 29.3869 68.9376 29.8376C69.3687 30.284 69.6573 31.0489 69.6573 32.4489L69.6344 45.9295C66.1037 45.9157 62.5701 45.8805 59.0391 45.8522L59.0036 32.6647C59.0026 31.1936 59.3077 30.3794 59.7498 29.8988C60.1979 29.4133 60.7746 29.2731 61.3205 29.1412L61.3201 29.1415ZM15.7792 4.17756C15.7666 3.73412 15.7888 3.29824 15.8564 2.88901C15.9194 2.51071 16.0216 2.15312 16.1712 1.83041C16.3529 1.4373 16.6 1.09518 16.9237 0.825761C17.2244 0.574762 17.5922 0.386267 18.034 0.278367C18.1477 0.250734 18.2691 0.227707 18.3955 0.211588C18.5179 0.196126 18.6472 0.1856 18.7805 0.181981L18.8004 0.181652C22.4136 0.171454 26.0826 0.132308 29.7665 0.0941481L29.8341 0.0934902C34.2194 0.0480934 38.6302 0.00203863 43.0169 6.48568e-05C47.4051 -0.00190892 51.7712 0.0408562 56.0656 0.171125C56.8131 0.193824 57.3852 0.325738 57.8246 0.560617C58.2704 0.799444 58.5808 1.14387 58.7977 1.58764C58.9857 1.97219 59.0832 2.41498 59.1316 2.91961C59.1797 3.417 59.1807 3.97623 59.1761 4.60126C59.1711 5.33287 59.0922 5.91777 58.9267 6.38621C58.7582 6.86255 58.4995 7.22178 58.137 7.4958C57.8863 7.68594 57.5981 7.82279 57.2671 7.91852C56.9799 8.00175 56.6602 8.05504 56.3044 8.08662L56.4165 8.28038C56.776 8.90146 57.159 9.56267 57.4293 10.6506C57.5374 11.0871 57.6187 12.2447 57.6777 13.8856C57.7447 15.7501 57.7848 18.2486 57.8054 21.026C57.8309 24.5163 57.8286 28.4606 57.8134 32.1436C57.7875 38.4633 57.7238 44.0172 57.7056 45.2018L57.6936 45.9212C44.287 45.9755 30.8705 45.9351 17.4629 45.9351C17.439 42.9609 17.4689 39.8641 17.4881 36.7508L17.4072 26.1164C17.378 25.1762 17.3399 24.2469 17.2911 23.3307C17.2503 19.4072 17.176 12.3227 17.6698 10.4709C17.9348 9.47681 18.3036 8.84323 18.6475 8.25176L18.7404 8.09221C17.4788 7.99484 16.7575 7.61258 16.3406 6.96683C15.9118 6.30331 15.8143 5.36774 15.7792 4.17624V4.17756Z" fill="#CCCCCC"/>
</svg>
