<svg width="20" height="20" viewBox="0 0 20 20" fill="none" xmlns="http://www.w3.org/2000/svg">
<rect x="0.75" y="0.75" width="18.5" height="18.5" rx="4.25" stroke="#FFED00" stroke-width="1.5"/>
<path fill-rule="evenodd" clip-rule="evenodd" d="M8.28119 6.04972C7.48481 6.25014 7.46195 6.28041 7.87374 6.5911C8.21229 6.84642 8.27781 7.04733 8.32916 7.98972C8.39404 9.17793 8.18702 9.97544 7.81402 9.97544C7.4605 9.97544 6.69809 8.9627 6.04708 7.62799L5.46448 6.43382H4.09581C3.27286 6.43382 2.72729 6.49934 2.72729 6.59803C2.72729 6.91001 4.21976 9.73268 4.98185 10.862C6.29676 12.8107 7.61005 13.7461 9.31421 13.948C10.5551 14.0948 10.9374 13.94 10.9374 13.2904C10.9374 12.9919 11.0691 12.5853 11.2299 12.3866C11.5722 11.9639 11.9365 12.0841 12.5701 12.8293C13.4368 13.8487 13.7776 14 15.2054 14C17.2432 14 17.297 13.6513 15.541 11.8246C14.957 11.2171 14.479 10.6343 14.479 10.5294C14.479 10.4244 14.9409 9.71915 15.5053 8.96205C16.4961 7.63314 16.9696 6.72424 16.7733 6.528C16.7215 6.47616 16.0111 6.43382 15.1944 6.43382H13.7098L13.1516 7.60932C12.5693 8.83552 11.6968 9.97544 11.3403 9.97544C11.0176 9.97544 10.9376 9.58361 10.935 7.9902C10.9335 7.17853 10.874 6.42223 10.8027 6.30971C10.6663 6.09496 8.84656 5.90725 8.28119 6.04972Z" fill="#FFED00"/>
</svg>
