<svg width="50" height="25" viewBox="0 0 50 25" fill="none" xmlns="http://www.w3.org/2000/svg">
<path fill-rule="evenodd" clip-rule="evenodd" d="M23.4867 11.0073L16.1733 8.89917C16.0717 9.07244 15.9481 9.23186 15.8083 9.37394C15.3832 9.79904 14.7952 10.0624 14.1472 10.0624C13.498 10.0624 12.9111 9.79904 12.4872 9.37279C12.4248 9.31041 12.3671 9.24572 12.3116 9.17641L9.02518 10.4494L7.93125 10.8733C7.79494 11.1587 7.50384 11.355 7.16769 11.355C6.89507 11.355 6.65248 11.2257 6.49769 11.0247C5.00984 11.139 3.66755 11.7952 2.66833 12.7944C1.56515 13.8976 0.880142 15.4189 0.880142 17.0927C0.880142 18.7666 1.56515 20.363 2.66833 21.4662C3.77151 22.5693 5.29286 23.2544 6.96669 23.2544H43.047C44.7197 23.2544 46.2422 22.5693 47.3454 21.4662C48.4485 20.363 49.1335 18.7666 49.1335 17.0927C49.1335 15.4189 48.4485 13.8976 47.3454 12.7944C46.2422 11.6912 44.7208 11.0062 43.047 11.0062H23.489L23.4867 11.0073Z" fill="#FFED00"/>
<path d="M11.5563 15.0531L8.8798 16.0234C8.57484 15.5532 8.17977 15.3176 7.69229 15.3176C7.26604 15.3176 6.90678 15.5001 6.61568 15.8651C6.32458 16.2302 6.17788 16.6657 6.17788 17.1693C6.17788 17.673 6.32805 18.1073 6.62839 18.4735C6.92873 18.8385 7.28337 19.021 7.69229 19.021C7.95336 19.021 8.18208 18.9575 8.3773 18.8316C8.57368 18.7057 8.70999 18.5336 8.78854 18.3152H7.45664V16.3757H12.1558V17.182C12.1558 17.9629 11.9514 18.6814 11.5424 19.3364C11.1335 19.9914 10.5814 20.51 9.88479 20.8924C9.18823 21.2748 8.4316 21.4654 7.61374 21.4654C6.79589 21.4654 6.03926 21.2748 5.34269 20.8924C4.64613 20.51 4.09397 19.9914 3.68504 19.3364C3.27611 18.6814 3.07165 17.9629 3.07165 17.182C3.07165 16.4011 3.27611 15.6826 3.68504 15.0276C4.09397 14.3727 4.64613 13.854 5.34269 13.4716C6.03926 13.0893 6.79589 12.8987 7.61374 12.8987C8.44892 12.8987 9.2148 13.0916 9.91136 13.4786C10.6079 13.8644 11.1555 14.39 11.5563 15.0531ZM12.9402 21.2135V13.05H16.021V21.2135H12.9402ZM16.9347 21.2135V13.05H19.9763V18.5798H22.9393V21.2124H16.9347V21.2135ZM23.8657 21.2135V13.05H27.9122C28.7821 13.05 29.4659 13.2348 29.9615 13.6045C30.4571 13.9741 30.7054 14.4651 30.7054 15.0785C30.7054 15.6329 30.5968 16.0442 30.3785 16.3133C30.1613 16.5825 29.8171 16.8043 29.3469 16.981C30.4871 17.2583 31.0566 17.8797 31.0566 18.8455C31.0566 20.4246 30.0031 21.2135 27.8972 21.2135H23.8634H23.8657ZM27.3635 16.1112C27.747 16.1112 27.9377 15.9137 27.9377 15.5186C27.9377 15.3418 27.8868 15.2125 27.7875 15.1281C27.687 15.0438 27.5541 15.0022 27.3889 15.0022H26.697V16.1112H27.3624H27.3635ZM27.4548 19.1851C27.9157 19.1851 28.1467 18.9714 28.1467 18.5428C28.1467 18.1223 27.8984 17.9132 27.4028 17.9132H26.6982V19.1862H27.4548V19.1851ZM31.8409 21.2135V13.05H37.5058V15.2795H34.8305V16.0604H37.2459V18.1512H34.8305V19.0083H37.559V21.2124H31.8421L31.8409 21.2135ZM42.3102 13.05C43.076 13.05 43.7218 13.1459 44.2485 13.34C44.7753 13.5329 45.1727 13.8378 45.443 14.2537C45.7133 14.6695 45.8473 15.2009 45.8473 15.8478C45.8473 16.8805 45.3032 17.5609 44.2162 17.889L46.4618 21.2147H43.068L41.5928 18.5312V21.2147H38.6033V13.0512H42.3102V13.05ZM41.5928 16.7535H42.1149C42.681 16.7535 42.964 16.4635 42.964 15.8836C42.964 15.6826 42.8935 15.5082 42.7549 15.3603C42.6151 15.2136 42.4372 15.1397 42.2201 15.1397H41.594V16.7523L41.5928 16.7535Z" fill="black"/>
<path d="M6.49663 11.0249C5.00878 11.1392 3.66648 11.7954 2.66727 12.7946C1.56409 13.8977 0.879078 15.4191 0.879078 17.0929C0.879078 18.7668 1.56409 20.3632 2.66727 21.4664C3.77045 22.5695 5.29179 23.2546 6.96562 23.2546H43.0448C44.7186 23.2546 46.2399 22.5695 47.3431 21.4664C48.4463 20.3632 49.1313 18.7668 49.1313 17.0929C49.1313 15.4191 48.4463 13.8977 47.3431 12.7946C46.2399 11.6914 44.7186 11.0064 43.0448 11.0064H23.4879L15.3914 8.6718C15.3498 8.72493 15.3059 8.77461 15.2585 8.82197L15.2597 8.82312C14.9755 9.10729 14.5816 9.28403 14.1473 9.28403C13.7129 9.28403 13.3202 9.10729 13.0348 8.82312L13.036 8.82197C12.7507 8.53664 12.5739 8.14389 12.5739 7.7107C12.5739 7.27867 12.7495 6.88592 13.0348 6.60059L13.036 6.59944C13.3213 6.31411 13.7141 6.13853 14.1461 6.13853C14.5781 6.13853 14.9709 6.31411 15.2562 6.59944L15.2574 6.60059C15.5427 6.88592 15.7183 7.27867 15.7183 7.7107C15.7183 7.76268 15.716 7.81351 15.7102 7.86434L23.5942 10.1365H43.0436C44.9566 10.1365 46.6962 10.9197 47.9565 12.18C49.2168 13.4403 50 15.18 50 17.0929C50 19.007 49.2168 20.8206 47.9565 22.0809C46.6962 23.3412 44.9566 24.1244 43.0436 24.1244H6.96447C5.05152 24.1244 3.31185 23.3423 2.05157 22.0809C0.791285 20.8206 0.00808613 19.0059 0.00808613 17.0929C0.00808613 15.1788 0.791285 13.4403 2.05157 12.18C3.18593 11.0457 4.70844 10.2983 6.39497 10.1608C6.52782 9.86739 6.82354 9.66292 7.16547 9.66292C7.63215 9.66292 8.01104 10.0418 8.01104 10.5085C8.01104 10.9752 7.63215 11.3541 7.16547 11.3541C6.89285 11.3541 6.65026 11.2247 6.49547 11.0237L6.49663 11.0249ZM14.4407 5.37959L16.4587 0L15.3105 5.67184C15.0483 5.52052 14.7537 5.42002 14.4407 5.38074V5.37959ZM12.5866 5.95486L10.9209 1.84826L13.4923 5.45352C13.1527 5.5517 12.8442 5.72498 12.5866 5.95486ZM11.7965 7.79387L0 3.90791L12.0044 6.74383C11.8704 7.03955 11.7954 7.36762 11.7954 7.71186C11.7954 7.73958 11.7954 7.7673 11.7965 7.79387ZM12.3094 9.1766L9.02412 10.4484L11.8496 8.21782C11.9282 8.57361 12.0876 8.89936 12.3071 9.17429L12.3082 9.1766H12.3094ZM16.0567 6.34415L21.1418 4.40925L16.4518 7.25326C16.386 6.91942 16.2485 6.61099 16.0567 6.34299V6.34415ZM14.7352 7.12041C14.5851 6.97024 14.3771 6.87783 14.1461 6.87783C13.9151 6.87783 13.7071 6.97024 13.557 7.12041L13.5558 7.12157C13.4056 7.27174 13.3132 7.47967 13.3132 7.7107C13.3132 7.94173 13.4056 8.15082 13.5558 8.29983H13.557C13.7083 8.45 13.9162 8.54357 14.1461 8.54357C14.376 8.54357 14.5851 8.45 14.7352 8.29983H14.7364C14.8866 8.14966 14.979 7.94173 14.979 7.7107C14.979 7.47967 14.8866 7.27174 14.7364 7.12157L14.7352 7.12041Z" fill="black"/>
</svg>
