<svg width="56" height="14" viewBox="0 0 56 14" fill="none" xmlns="http://www.w3.org/2000/svg">
<path fill-rule="evenodd" clip-rule="evenodd" d="M31.3687 0H53.9068C54.9275 0 55.7626 0.833035 55.7626 1.85124V12.1488C55.7626 13.167 54.9275 14 53.9068 14H26.2891V7.18762L29.5437 10.8146H31.3687V0V0ZM34.7411 4.95869H38.1818V3.18523H32.1869V10.8146H38.1818V9.04119H34.4919V7.81497H37.5827V6.16107H34.4919V4.95869H34.7411ZM42.5571 9.02193L43.6577 10.8146H46.4169L44.7614 8.37633L44.9523 8.235C45.3135 7.96765 45.59 7.63569 45.776 7.25719C45.9641 6.87423 46.0611 6.43977 46.0611 5.97219C46.0611 5.07775 45.7553 4.38422 45.1792 3.91796C44.5868 3.43834 43.7017 3.18523 42.5605 3.18523H39V10.8146H41.3049V8.90249H42.4837L42.5571 9.02193ZM41.3049 6.71314V5.00655H42.5605C42.8863 5.00655 43.1639 5.09456 43.3644 5.24918C43.5832 5.41792 43.7083 5.65868 43.7083 5.94823C43.7083 6.25152 43.586 6.50871 43.3723 6.6905C43.1704 6.86244 42.89 6.96174 42.5605 6.96174H41.3049V6.71314ZM50.1405 3.00608C49.1528 3.00608 48.3139 3.24789 47.7363 3.70763C47.204 4.13124 46.8916 4.74936 46.8916 5.54194C46.8916 6.13748 47.0717 6.57276 47.4252 6.90446C47.7986 7.25499 48.37 7.50672 49.1285 7.71711L50.5182 8.09957C50.7292 8.15765 50.8637 8.2217 50.9507 8.29359C51.0819 8.40211 51.1206 8.51891 51.1206 8.64919C51.1206 8.8301 51.0411 8.99464 50.8287 9.10279C50.7003 9.16802 50.5163 9.20848 50.2603 9.20848C49.9132 9.20848 49.6238 9.1504 49.3964 9.02161C49.2036 8.91253 49.0604 8.75778 48.9698 8.55128H46.5987C46.7979 9.55343 47.3326 10.1532 47.9766 10.5051C48.6961 10.8984 49.5613 10.9939 50.2603 10.9939C51.3679 10.9939 52.2645 10.7523 52.8744 10.3008C53.4507 9.87422 53.7729 9.25032 53.7729 8.458C53.7729 7.77959 53.5385 7.31289 53.1648 6.98074C52.7737 6.63323 52.2239 6.41819 51.6227 6.2598L50.1141 5.86549C49.9426 5.82089 49.8179 5.77184 49.7256 5.69788C49.5994 5.59651 49.5439 5.47363 49.5439 5.30294C49.5439 5.10566 49.6397 4.96126 49.7954 4.86535C49.9294 4.78248 50.1076 4.74359 50.2962 4.74359C50.5774 4.74359 50.7893 4.82577 50.9516 4.96515C51.0628 5.06163 51.146 5.18138 51.2088 5.31731H53.6067C53.4748 4.56852 53.1099 4.05797 52.6501 3.71359C51.8787 3.13605 50.8304 3.00608 50.1405 3.00608Z" fill="#960E10"/>
<path fill-rule="evenodd" clip-rule="evenodd" d="M1.85586 0H29.0638V6.85936L25.8394 3.18523H23.9842V14H1.85586C0.83502 14 0 13.167 0 12.1488V1.85124C0 0.833035 0.83502 0 1.85586 0V0ZM5.53167 3.00608C4.54397 3.00608 3.70499 3.24789 3.12741 3.70763C2.59523 4.13124 2.28271 4.74936 2.28271 5.54194C2.28271 6.13748 2.4628 6.57276 2.81633 6.90446C3.18973 7.25499 3.76114 7.50672 4.51963 7.71711L5.9094 8.09957C6.12044 8.15765 6.25488 8.2217 6.34185 8.29359C6.47308 8.40211 6.51169 8.51891 6.51169 8.64919C6.51169 8.8301 6.43221 8.99464 6.21979 9.10279C6.09139 9.16802 5.90745 9.20848 5.65146 9.20848C5.30441 9.20848 5.0149 9.1504 4.78764 9.02161C4.59484 8.91253 4.45159 8.75778 4.36098 8.55128H1.9898C2.18907 9.55343 2.7237 10.1532 3.36768 10.5051C4.08719 10.8984 4.95239 10.9939 5.65146 10.9939C6.75901 10.9939 7.65559 10.7523 8.26556 10.3008C8.84188 9.87422 9.16402 9.25032 9.16402 8.458C9.16402 7.77959 8.92966 7.31289 8.55595 6.98074C8.16488 6.63323 7.61503 6.41819 7.01381 6.2598L5.50526 5.86549C5.33377 5.82089 5.20908 5.77184 5.11677 5.69788C4.99056 5.59651 4.93504 5.47363 4.93504 5.30294C4.93504 5.10566 5.03087 4.96126 5.18657 4.86535C5.32051 4.78248 5.49878 4.74359 5.68736 4.74359C5.96858 4.74359 6.18043 4.82577 6.34273 4.96515C6.45397 5.06163 6.5371 5.18138 6.59992 5.31731H8.99789C8.86596 4.56852 8.50105 4.05797 8.04119 3.71359C7.26987 3.13605 6.22149 3.00608 5.53167 3.00608ZM16.4125 5.07825V3.18523H9.60307V5.07825H11.8553V10.8146H14.1602V5.07825H16.4125ZM19.7253 4.95869H23.166V3.18523H17.1711V10.8146H23.166V9.04119H19.4761V7.81497H22.567V6.16107H19.4761V4.95869H19.7253Z" fill="#CF1B27"/>
</svg>
