<svg width="41" height="17" viewBox="0 0 41 17" fill="none" xmlns="http://www.w3.org/2000/svg">
<path fill-rule="evenodd" clip-rule="evenodd" d="M20.2803 0C25.4664 0.00160015 30.6546 0.764339 38.8671 1.8183C39.7909 1.93672 40.5606 2.58051 40.5606 3.5118V3.72888V6.3334V10.6671V13.2711V13.4882C40.5606 14.4195 39.7909 15.0633 38.8671 15.1817C30.6546 16.2357 25.4664 16.9984 20.2803 17C14.1747 17 7.7506 15.9594 1.69349 15.1817C0.769673 15.0633 0 14.4195 0 13.4882V13.2711V10.6671V6.3334V3.72888V3.5118C0 2.58051 0.769673 1.93672 1.69349 1.8183C7.75113 1.04063 14.1747 0 20.2803 0Z" fill="#145947"/>
<path d="M10.7291 10.6804V9.14375C10.7291 8.60237 10.4581 8.35755 10.2026 8.1938C10.417 8.09192 10.6272 7.66255 10.6272 7.28491V6.33069C10.6272 5.3706 10.2288 4.86975 9.17692 4.86975H3.68093V12.1312H9.34013C10.3312 12.1312 10.7291 11.5589 10.7291 10.6804ZM8.00134 6.34029C8.00134 6.88167 8.00134 7.44813 8.00134 7.44813C8.00134 7.72389 7.84826 7.8567 7.6029 7.8567H6.29505V5.95252H7.61304C7.87866 5.95252 8.00134 6.06506 8.00134 6.34082V6.34029ZM8.10322 10.5578C8.10322 10.905 7.93947 11.0479 7.5517 11.0479H6.29505V8.8984H7.57197C7.96027 8.8984 8.10322 9.10268 8.10322 9.40885C8.10322 9.40885 8.10322 10.0772 8.10322 10.5572V10.5578Z" fill="#FEFEFE"/>
<path d="M18.8519 10.2107V6.80023C18.8519 6.10577 18.709 5.62519 18.4332 5.32916C18.1473 5.02247 17.7489 4.86938 17.1968 4.86938H13.1415C12.5793 4.86938 12.1686 5.03047 11.895 5.32916C11.6166 5.63319 11.4864 6.12604 11.4864 6.80023V10.2107C11.4864 10.9052 11.6192 11.3959 11.895 11.6919C12.1809 11.9986 12.5895 12.1314 13.1415 12.1314H17.1968C17.7585 12.1314 18.1644 11.9751 18.4332 11.6818C18.7159 11.3724 18.8519 10.8849 18.8519 10.2107ZM16.1551 10.6294C16.1551 10.9153 15.9813 11.0481 15.6543 11.0481H14.6734C14.3464 11.0481 14.1832 10.9052 14.1832 10.6294V6.38099C14.1832 6.0951 14.3464 5.96229 14.6734 5.96229H15.6543C15.9813 5.96229 16.1551 6.10523 16.1551 6.38099V10.6294Z" fill="#FEFEFE"/>
<path d="M25.7881 4.8645H24.5416L23.1729 9.8175L21.8656 4.8645H19.1176L21.0789 12.1361H23.7453L25.7881 4.8645Z" fill="#FEFEFE"/>
<path d="M29.0165 12.1361V4.8645H26.3197V12.1361H29.0165Z" fill="#FEFEFE"/>
<path d="M36.8586 12.1361L34.8664 4.8645C34.8664 4.8645 34.6312 4.8645 31.6485 4.8645L29.5545 12.1361H30.801L31.3381 10.2581H33.5687L34.0392 12.1361H36.8586ZM33.2743 9.08303H31.6741L32.5275 6.10035L33.2748 9.08303H33.2743Z" fill="#FEFEFE"/>
</svg>
