<svg width="62" height="11" viewBox="0 0 62 11" fill="none" xmlns="http://www.w3.org/2000/svg">
<path d="M35.791 3.07553V0.395515C35.791 0.34312 35.8319 0.298584 35.8855 0.298584H39.9313C39.9849 0.298584 40.0257 0.34312 40.0257 0.395515V1.11595C39.1885 2.77164 37.1388 3.30869 35.791 3.07553Z" fill="#CC0000"/>
<path d="M39.9313 10.2012H35.8855C35.8319 10.2012 35.791 10.1593 35.791 10.1043V4.79404C37.4681 4.81238 39.2038 4.26485 40.0257 2.52271V10.1043C40.0257 10.1593 39.9849 10.2012 39.9313 10.2012Z" fill="#111111"/>
<path d="M9.784 2.95509C9.81718 3.22231 9.83249 3.50524 9.83249 3.80651V3.80913C9.83249 3.86153 9.7891 3.90606 9.73805 3.90606H6.21295C6.1619 3.90606 6.12106 3.86153 6.12106 3.80913V2.92365C6.12106 2.71145 6.07001 2.42328 5.85559 2.33683C5.47015 2.17702 4.41084 2.15606 4.05348 2.35778C3.87735 2.45472 3.83141 2.73765 3.83141 2.92365V7.57635C3.83141 7.99813 3.93861 8.14484 4.31384 8.22343C4.76309 8.31512 5.18682 8.31512 5.63607 8.22343C6.02151 8.14222 6.12106 7.97717 6.12106 7.57635V6.51534C6.12106 6.46295 6.1619 6.41841 6.21295 6.41841H9.73805C9.7891 6.41841 9.83249 6.46295 9.83249 6.51534C9.83249 6.81138 9.81718 7.09431 9.7891 7.35891C9.75847 7.6235 9.71508 7.87238 9.65637 8.10292C9.59766 8.3387 9.51342 8.55876 9.40366 8.76572C9.2939 8.9753 9.15862 9.16916 9.00036 9.35254C8.63789 9.76647 8.1478 10.0284 7.63984 10.204C7.0604 10.4004 5.85815 10.5 4.97496 10.5C4.48231 10.5 3.90033 10.4738 3.37705 10.4188C2.92269 10.369 2.51173 10.3009 2.2386 10.2092C1.9425 10.1123 1.67959 9.98653 1.45241 9.83196C0.985291 9.51759 0.671326 9.08795 0.449252 8.564C0.339492 8.2994 0.250152 8.00337 0.18889 7.68376C0.125076 7.36415 0.0765771 7 0.0459462 6.59656C0.0153154 6.19049 0 5.74252 0 5.25C0 4.73653 0.017868 4.26759 0.0510514 3.84581C0.0867873 3.42141 0.137839 3.04416 0.206758 2.71407C0.27823 2.38136 0.372675 2.08271 0.490093 1.81549C0.722377 1.2994 1.04911 0.895958 1.52388 0.599925C1.75361 0.455838 2.01142 0.343189 2.29986 0.256737C2.56533 0.175524 2.96864 0.115269 3.41023 0.0733533C3.92075 0.0235778 4.48742 0 4.96219 0C5.42931 0 5.98833 0.0261976 6.49884 0.0759731C6.93788 0.117889 7.33863 0.180763 7.6041 0.261976C8.10185 0.413922 8.58939 0.641841 8.96207 1.02171C9.12543 1.18413 9.26327 1.36751 9.37558 1.56662C9.49045 1.76572 9.57979 1.98054 9.6436 2.21108C9.70487 2.44162 9.75336 2.69049 9.784 2.95509Z" fill="#111111"/>
<path d="M13.6372 10.2013H9.95388C9.94367 10.2013 9.93601 10.1987 9.9258 10.196C9.8773 10.1803 9.84923 10.1279 9.86454 10.0755L12.823 0.371937C12.8332 0.330021 12.8689 0.298584 12.9149 0.298584H17.8158C17.8566 0.298584 17.8949 0.324782 17.9051 0.366698L20.81 10.0703C20.8151 10.0808 20.8176 10.0912 20.8176 10.1043C20.8176 10.1594 20.7768 10.2013 20.7232 10.2013H17.0679C17.0245 10.2013 16.9837 10.1698 16.976 10.1253L16.6722 8.6792H14.0508L13.7291 10.1227C13.7215 10.1672 13.6832 10.2013 13.6372 10.2013ZM16.2409 6.60958L15.4036 2.55158L14.5102 6.60958H16.2409Z" fill="#111111"/>
<path d="M54.417 10.2013H50.7337C50.726 10.2013 50.7158 10.1987 50.7056 10.196C50.6571 10.1803 50.629 10.1279 50.6443 10.0755L53.6028 0.371937C53.613 0.330021 53.6513 0.298584 53.6946 0.298584H58.5981C58.6364 0.298584 58.6747 0.324782 58.6875 0.366698L61.5923 10.0703C61.5974 10.0808 61.6 10.0912 61.6 10.1043C61.6 10.1594 61.5566 10.2013 61.5055 10.2013H57.8477C57.8043 10.2013 57.766 10.1698 57.7558 10.1253L57.4546 8.6792H54.8305L54.5115 10.1227C54.5038 10.1672 54.4655 10.2013 54.417 10.2013ZM57.0206 6.60958L56.1834 2.55158L55.2926 6.60958H57.0206Z" fill="#111111"/>
<path d="M46.0371 2.55944H45.0901V7.94042H46.0371C46.1903 7.94042 46.3204 7.9247 46.4225 7.89065C46.5195 7.85921 46.5961 7.81205 46.6472 7.7518C46.7595 7.61819 46.8156 7.37979 46.8156 7.03137V3.46849C46.8156 3.29035 46.8003 3.14102 46.7722 3.01789C46.7442 2.90263 46.7008 2.81355 46.6472 2.75068C46.54 2.62231 46.3357 2.55944 46.0371 2.55944ZM47.002 10.2013H41.4731C41.4195 10.2013 41.3787 10.1594 41.3787 10.1043V0.395515C41.3787 0.34312 41.4195 0.298584 41.4731 0.298584H47.002C47.6197 0.298584 48.1557 0.366698 48.6075 0.500305C49.0644 0.636533 49.4371 0.840874 49.723 1.11333C50.0114 1.3884 50.2259 1.73683 50.3688 2.16385C50.5118 2.58301 50.5807 3.07815 50.5807 3.64664V6.85584C50.5807 7.42171 50.5118 7.91684 50.3688 8.33863C50.2259 8.76303 50.0114 9.11408 49.723 9.38653C49.1538 9.92882 48.2476 10.2013 47.002 10.2013Z" fill="#111111"/>
<path d="M24.4756 10.2013H21.4814C21.4278 10.2013 21.387 10.1594 21.387 10.1043V0.395515C21.387 0.34312 21.4278 0.298584 21.4814 0.298584H26.635C26.6784 0.298584 26.7167 0.330021 26.7269 0.371937L27.9164 5.38616L29.2182 0.377177C29.2259 0.332641 29.2642 0.298584 29.3101 0.298584H34.3438C34.3974 0.298584 34.4383 0.34312 34.4383 0.395515V10.1043C34.4383 10.1594 34.3974 10.2013 34.3438 10.2013H31.3496C31.2986 10.2013 31.2578 10.1594 31.2578 10.1043V3.35584L29.5424 10.1227C29.5348 10.1672 29.4965 10.2013 29.4505 10.2013H26.3747C26.3338 10.2013 26.2956 10.1725 26.2853 10.1305L24.57 3.35584V10.1043C24.57 10.1594 24.5266 10.2013 24.4756 10.2013Z" fill="#111111"/>
</svg>
