<svg width="126" height="18" viewBox="0 0 126 18" fill="none" xmlns="http://www.w3.org/2000/svg">
<path fill-rule="evenodd" clip-rule="evenodd" d="M11.0983 2.89497C10.3682 2.90538 9.62653 2.96141 8.90725 3.0951C8.40652 3.18796 7.90899 3.32045 7.43548 3.50697C6.90232 3.71671 6.39959 3.99529 5.9585 4.36233C5.60186 4.64412 5.25403 5.06319 5.01787 5.45025C4.51234 6.2964 4.22855 7.59565 3.95877 8.54308L3.60814 9.77468L1.02362 13.5123L3.08859 6.25758C4.17251 2.44988 7.79412 1.39478 11.3365 1.39158C12.0193 1.39078 12.737 1.39078 13.4723 1.39038V1.62453C12.6674 1.99438 11.8764 2.46749 11.0987 2.89537L11.0983 2.89497Z" fill="#313131"/>
<path d="M26.2129 13.3662L27.8872 7.02079C28.3399 5.29365 29.8145 4.42949 32.3101 4.42468H35.9025C36.0662 4.42468 36.2027 4.48592 36.312 4.61121C36.4212 4.73649 36.4757 4.87978 36.4757 5.04349V13.3678C36.4757 13.5407 36.4144 13.6864 36.2892 13.8024C36.1639 13.9209 36.0162 13.9802 35.8433 13.9802H34.5896C34.4075 13.9802 34.2574 13.9209 34.1413 13.8024C34.0233 13.6864 33.964 13.5363 33.964 13.3541V11.673H29.2429L28.7946 13.3565C28.749 13.5387 28.6489 13.6864 28.492 13.8048C28.3375 13.9209 28.1734 13.9798 27.9985 13.9798H26.6833C26.5103 13.9798 26.3787 13.9205 26.2898 13.8C26.2282 13.7204 26.1965 13.6291 26.1965 13.5271C26.1989 13.477 26.2057 13.4246 26.2125 13.3658L26.2129 13.3662ZM29.7485 9.7898H33.964V6.30872H32.0712C31.6481 6.30872 31.2771 6.4292 30.9585 6.67256C30.6422 6.91632 30.4285 7.24133 30.3192 7.6508L29.7485 9.7894V9.7898Z" fill="#313131"/>
<path d="M38.3864 5.05746C38.3864 4.88455 38.4481 4.73645 38.5729 4.61157C38.6982 4.48629 38.8459 4.42505 39.0188 4.42505H44.4356C45.0456 4.42505 45.5983 4.5091 46.0987 4.67521C46.5966 4.84372 47.0225 5.13712 47.3751 5.55579C47.7253 5.97647 47.9007 6.49561 47.9007 7.11642C47.9007 7.79886 47.6005 8.38365 47.0021 8.87037C47.8598 9.32747 48.2877 10.0692 48.2829 11.0978C48.2829 12.0144 47.9415 12.7221 47.259 13.2248C46.5786 13.7276 45.7412 13.9801 44.7518 13.9801H39.0188C38.8459 13.9801 38.6978 13.9189 38.5729 13.796C38.4477 13.6755 38.3864 13.5274 38.3864 13.3545V5.05746ZM40.8981 12.1785H44.7114C45.0572 12.1785 45.321 12.0761 45.5007 11.8715C45.6804 11.6666 45.7713 11.3868 45.7713 11.0322C45.7713 10.6772 45.6804 10.3974 45.4983 10.1928C45.3162 9.9879 45.0548 9.88583 44.7114 9.88583H40.8981V12.1789V12.1785ZM40.8981 8.08345H44.4632C44.743 8.08345 44.9683 8.0014 45.1364 7.84009C45.3046 7.67838 45.389 7.45103 45.389 7.15764C45.389 6.86625 45.305 6.6389 45.1364 6.47279C44.9679 6.30909 44.7426 6.22703 44.4632 6.22703H40.8981V8.08345Z" fill="#313131"/>
<path d="M48.4195 5.68271V5.0571C48.4195 4.87498 48.4788 4.72488 48.5992 4.6044C48.7197 4.48392 48.8698 4.42468 49.0519 4.42468H57.5063C57.688 4.42468 57.8385 4.48392 57.959 4.6044C58.0795 4.72488 58.1387 4.87498 58.1387 5.0571V5.68271C58.1387 5.86483 58.0795 6.01493 57.959 6.131C57.8385 6.24948 57.688 6.30832 57.5063 6.30832H54.5351V13.3658C54.5351 13.5407 54.4739 13.6864 54.3506 13.8024C54.2301 13.9209 54.0824 13.9802 53.9091 13.9802H52.6487C52.4758 13.9802 52.3277 13.9209 52.2072 13.8024C52.0843 13.6864 52.0231 13.5407 52.0231 13.3658V6.30832H49.0515C48.8698 6.30832 48.7197 6.24908 48.5988 6.131C48.4784 6.01493 48.4191 5.86483 48.4191 5.68271H48.4195Z" fill="#313131"/>
<path d="M59.6423 12.9908C58.7321 12.1946 58.2774 10.9318 58.2774 9.20268C58.2774 7.47355 58.7325 6.21112 59.6423 5.4146C60.5545 4.61808 61.8878 4.22021 63.6441 4.22021C65.4025 4.22021 66.7358 4.61808 67.6436 5.4146C68.5513 6.21072 69.0064 7.47355 69.0064 9.20268C69.0064 10.9318 68.5513 12.1946 67.6436 12.9908C66.7358 13.7869 65.4025 14.1852 63.6441 14.1852C61.8874 14.1852 60.5545 13.7869 59.6423 12.9908ZM61.4643 6.82312C61.014 7.35547 60.7887 8.14919 60.7887 9.20509C60.7887 10.2606 61.014 11.0547 61.4643 11.587C61.9174 12.1174 62.6431 12.3836 63.6441 12.3836C64.6476 12.3836 65.3733 12.1174 65.8212 11.587C66.2694 11.0547 66.4944 10.2606 66.4944 9.20509C66.4944 8.14959 66.269 7.35547 65.8212 6.82312C65.3729 6.28837 64.6472 6.0222 63.6441 6.0222C62.6431 6.0222 61.9174 6.28877 61.4643 6.82312Z" fill="#313131"/>
<path d="M69.5779 13.3662L71.2526 7.02079C71.7053 5.29365 73.1795 4.42949 75.6755 4.42468H79.2679C79.4316 4.42468 79.5681 4.48592 79.6773 4.61121C79.7866 4.73649 79.841 4.87978 79.841 5.04349V13.3678C79.841 13.5407 79.7794 13.6864 79.6545 13.8024C79.5292 13.9209 79.3815 13.9802 79.2086 13.9802H77.955C77.7733 13.9802 77.6232 13.9209 77.5067 13.8024C77.3882 13.6864 77.3294 13.5363 77.3294 13.3541V11.673H72.6087L72.1604 13.3565C72.1148 13.5387 72.0147 13.6864 71.8578 13.8048C71.7029 13.9209 71.5392 13.9798 71.3639 13.9798H70.049C69.8761 13.9798 69.744 13.9205 69.6552 13.8C69.5939 13.7204 69.5619 13.6291 69.5619 13.5271C69.5639 13.477 69.5711 13.4246 69.5779 13.3658V13.3662ZM73.1134 9.7898H77.3294V6.30872H75.4365C75.0135 6.30872 74.6424 6.4292 74.3242 6.67256C74.008 6.91632 73.7943 7.24133 73.685 7.6508L73.1138 9.7894L73.1134 9.7898Z" fill="#313131"/>
<path d="M80.9617 13.4206L82.6544 7.02079C83.1095 5.29365 84.5817 4.42949 87.0725 4.42468H90.4055C90.5604 4.42468 90.6921 4.48832 90.8013 4.61801C90.9102 4.74769 90.965 4.89339 90.965 5.0571V13.3541C90.965 13.5271 90.9058 13.6752 90.7877 13.7956C90.6717 13.9185 90.526 13.9798 90.353 13.9798H89.079C88.9061 13.9798 88.7584 13.9185 88.6375 13.7956C88.5146 13.6752 88.4534 13.5271 88.4534 13.3541V6.30832H86.8335C86.4081 6.30832 86.0374 6.4288 85.7208 6.67216C85.4046 6.91592 85.1905 7.24093 85.0816 7.6504L83.5574 13.3565C83.5118 13.5387 83.4117 13.6864 83.2548 13.8048C83.1003 13.9209 82.9338 13.9798 82.7613 13.9798H81.4008C81.2439 13.9798 81.1254 13.9229 81.0389 13.8068C80.9777 13.7272 80.9457 13.6407 80.9457 13.5475C80.9501 13.5066 80.9549 13.4634 80.9617 13.4202V13.4206Z" fill="#313131"/>
<path d="M92.8773 13.3409V5.05746C92.8773 4.87534 92.9366 4.72525 93.0571 4.60477C93.1779 4.48429 93.328 4.42505 93.5098 4.42505H94.7634C94.9363 4.42505 95.0844 4.48629 95.2049 4.61157C95.3278 4.73685 95.389 4.88455 95.389 5.05746V7.67358H98.6788C99.7278 7.67358 100.594 7.95136 101.282 8.50853C101.967 9.06609 102.31 9.8394 102.31 10.8293C102.31 11.8211 101.967 12.5924 101.277 13.1476C100.59 13.7027 99.723 13.9801 98.6788 13.9801H93.4781C93.312 13.9801 93.1711 13.9165 93.0551 13.7912C92.9366 13.6639 92.8773 13.5138 92.8773 13.3409ZM95.389 12.0965H98.6788C99.4252 12.0965 99.7983 11.6734 99.7983 10.8269C99.7983 9.98029 99.4252 9.55722 98.6788 9.55722H95.389V12.0961V12.0965Z" fill="#313131"/>
<path d="M104.198 12.1831C103.301 11.5575 102.853 10.5632 102.853 9.19792C102.853 7.83502 103.301 6.84077 104.198 6.21996C105.094 5.59636 106.302 5.28495 107.822 5.28495V4.62972C107.822 4.45681 107.883 4.30871 108.008 4.18623C108.134 4.06335 108.286 4.00171 108.468 4.00171H109.694C109.876 4.00171 110.028 4.06295 110.149 4.18623C110.272 4.30911 110.334 4.45681 110.334 4.62972V5.28495C111.854 5.28495 113.059 5.59676 113.958 6.21996C114.854 6.84077 115.302 7.83502 115.302 9.19792C115.302 10.5632 114.854 11.5575 113.958 12.1831C113.059 12.8087 111.854 13.1205 110.334 13.1205V13.7689C110.334 13.9394 110.27 14.0875 110.145 14.208C110.018 14.3285 109.867 14.3901 109.695 14.3901H108.468C108.295 14.3901 108.145 14.3289 108.015 14.208C107.886 14.0875 107.822 13.9394 107.822 13.7689V13.1205C106.302 13.1205 105.094 12.8087 104.198 12.1831H104.198ZM106.043 7.61008C105.59 7.95791 105.365 8.48825 105.365 9.19792C105.365 9.90999 105.59 10.4403 106.043 10.793C106.493 11.1436 107.112 11.3185 107.895 11.3185V7.08693C107.112 7.08693 106.494 7.26225 106.043 7.61008ZM110.268 11.3185C111.048 11.3185 111.665 11.1436 112.115 10.793C112.566 10.4403 112.791 9.91039 112.791 9.19792C112.791 8.48825 112.566 7.95791 112.115 7.61008C111.665 7.26185 111.048 7.08693 110.268 7.08693V11.3185Z" fill="#313131"/>
<path d="M115.737 13.3662L117.412 7.02079C117.864 5.29365 119.339 4.42949 121.835 4.42468H125.427C125.591 4.42468 125.727 4.48592 125.836 4.61121C125.946 4.73649 126 4.87978 126 5.04349V13.3678C126 13.5407 125.938 13.6864 125.814 13.8024C125.688 13.9209 125.541 13.9802 125.368 13.9802H124.114C123.932 13.9802 123.782 13.9209 123.666 13.8024C123.547 13.6864 123.488 13.5363 123.488 13.3541V11.673H118.767L118.319 13.3565C118.273 13.5387 118.173 13.6864 118.016 13.8048C117.862 13.9209 117.698 13.9798 117.523 13.9798H116.208C116.035 13.9798 115.903 13.9205 115.814 13.8C115.753 13.7204 115.721 13.6291 115.721 13.5271C115.723 13.477 115.73 13.4246 115.737 13.3658V13.3662ZM119.273 9.7898H123.488V6.30872H121.596C121.172 6.30872 120.802 6.4292 120.483 6.67256C120.167 6.91632 119.953 7.24133 119.844 7.6508L119.273 9.7894V9.7898Z" fill="#313131"/>
<path fill-rule="evenodd" clip-rule="evenodd" d="M21.3064 0.0465523L22.7257 1.20811C22.7465 1.23093 22.7649 1.24894 22.7689 1.27136V1.27096L22.7725 1.61918C22.7757 1.86775 22.7193 1.89336 22.3118 1.90297C21.7415 1.90377 21.1711 1.90417 20.6007 1.90417C20.2577 1.90417 19.9911 1.947 19.6621 2.16034C19.4608 2.29083 19.2502 2.49976 18.9568 2.77234C17.3818 4.2349 16.5517 6.08331 16.0557 7.97295C15.3209 10.7728 14.9614 14.3808 14.698 17.2751L8.03087 17.2743L8.03127 17.2731L8.04488 17.2262C8.54881 15.4983 9.09477 13.7704 9.67755 12.0424H7.99605C7.25716 13.6179 6.58912 15.3582 5.88626 17.2254L5.88586 17.2266L5.86865 17.2731H5.86945L5.86905 17.2739L0 17.2731C0.953826 15.612 2.37916 13.3485 3.00998 12.4655C5.43276 9.07288 8.09291 6.14615 10.3232 4.51068C11.6164 3.56206 13.4424 2.58342 15.1451 1.92779L15.2892 1.87335L15.2948 1.87095C14.9994 1.88896 14.4187 1.93059 14.4075 1.88136L14.4055 1.53393L14.4051 1.44307C14.4051 1.43506 14.4026 1.35221 14.4059 1.3434C14.4071 1.3394 14.4099 1.335 14.4143 1.3314C14.4499 1.29657 14.584 1.26335 14.7161 1.23773C15.0127 1.1793 15.3128 1.12806 15.6106 1.07082L21.1251 0.00972816C21.2131 -0.0078834 21.2399 -0.00468129 21.308 0.0453515L21.3064 0.0465523ZM14.7213 3.86906H13.9496C14.7841 3.20262 15.6987 2.61544 16.7074 2.12392C15.9849 2.68028 15.3253 3.26266 14.7213 3.86906ZM12.1996 5.49533H13.2715C12.5118 6.44955 11.8582 7.45221 11.2858 8.4969H9.9085C10.5901 7.42139 11.3462 6.41193 12.2 5.49533H12.1996Z" fill="#313131"/>
<path fill-rule="evenodd" clip-rule="evenodd" d="M21.1746 2.9237V15.3122C21.1746 15.875 20.9473 16.3781 20.5286 16.7528C20.1311 17.1086 19.642 17.2959 19.1089 17.2939L15.7515 17.2795L15.9008 15.8334H18.9263C19.1213 15.8334 19.2846 15.7729 19.4299 15.6425C19.558 15.528 19.6196 15.3955 19.6196 15.223V3.49488L20.3721 2.93771C20.5498 2.89729 20.9725 2.9221 21.1746 2.9233V2.9237Z" fill="#313131"/>
</svg>
